<svg width="1448" height="1032" viewBox="0 0 1448 1032" fill="none" xmlns="http://www.w3.org/2000/svg">
<g filter="url(#filter0_d_1_4)">
<rect x="4" width="1440" height="1024" fill="white"/>
<rect x="4.5" y="0.5" width="1439" height="1023" stroke="black"/>
<rect x="4" width="1440" height="110" fill="#D9D9D9"/>
<path d="M552.554 157H549.599L558.145 133.727H561.054L569.599 157H566.645L559.69 137.409H559.509L552.554 157ZM553.645 147.909H565.554V150.409H553.645V147.909ZM579.952 157.364C578.315 157.364 576.906 156.977 575.724 156.205C574.543 155.432 573.634 154.367 572.997 153.011C572.361 151.655 572.043 150.106 572.043 148.364C572.043 146.591 572.368 145.027 573.02 143.67C573.679 142.307 574.596 141.242 575.77 140.477C576.952 139.705 578.33 139.318 579.906 139.318C581.134 139.318 582.24 139.545 583.224 140C584.209 140.455 585.016 141.091 585.645 141.909C586.274 142.727 586.664 143.682 586.815 144.773H584.134C583.929 143.977 583.474 143.273 582.77 142.659C582.073 142.038 581.134 141.727 579.952 141.727C578.906 141.727 577.99 142 577.202 142.545C576.421 143.083 575.812 143.845 575.372 144.83C574.94 145.807 574.724 146.955 574.724 148.273C574.724 149.621 574.937 150.795 575.361 151.795C575.793 152.795 576.399 153.572 577.179 154.125C577.967 154.678 578.891 154.955 579.952 154.955C580.649 154.955 581.281 154.833 581.849 154.591C582.418 154.348 582.899 154 583.293 153.545C583.687 153.091 583.967 152.545 584.134 151.909H586.815C586.664 152.939 586.289 153.867 585.69 154.693C585.099 155.511 584.315 156.163 583.338 156.648C582.368 157.125 581.24 157.364 579.952 157.364ZM597.827 157.364C596.19 157.364 594.781 156.977 593.599 156.205C592.418 155.432 591.509 154.367 590.872 153.011C590.236 151.655 589.918 150.106 589.918 148.364C589.918 146.591 590.243 145.027 590.895 143.67C591.554 142.307 592.471 141.242 593.645 140.477C594.827 139.705 596.205 139.318 597.781 139.318C599.009 139.318 600.115 139.545 601.099 140C602.084 140.455 602.891 141.091 603.52 141.909C604.149 142.727 604.539 143.682 604.69 144.773H602.009C601.804 143.977 601.349 143.273 600.645 142.659C599.948 142.038 599.009 141.727 597.827 141.727C596.781 141.727 595.865 142 595.077 142.545C594.296 143.083 593.687 143.845 593.247 144.83C592.815 145.807 592.599 146.955 592.599 148.273C592.599 149.621 592.812 150.795 593.236 151.795C593.668 152.795 594.274 153.572 595.054 154.125C595.842 154.678 596.766 154.955 597.827 154.955C598.524 154.955 599.156 154.833 599.724 154.591C600.293 154.348 600.774 154 601.168 153.545C601.562 153.091 601.842 152.545 602.009 151.909H604.69C604.539 152.939 604.164 153.867 603.565 154.693C602.974 155.511 602.19 156.163 601.213 156.648C600.243 157.125 599.115 157.364 597.827 157.364ZM619.611 149.864V139.545H622.293V157H619.611V154.045H619.429C619.02 154.932 618.384 155.686 617.52 156.307C616.656 156.92 615.565 157.227 614.247 157.227C613.156 157.227 612.187 156.989 611.338 156.511C610.49 156.027 609.823 155.299 609.338 154.33C608.853 153.352 608.611 152.121 608.611 150.636V139.545H611.293V150.455C611.293 151.727 611.649 152.742 612.361 153.5C613.08 154.258 613.997 154.636 615.111 154.636C615.777 154.636 616.455 154.466 617.145 154.125C617.842 153.784 618.425 153.261 618.895 152.557C619.372 151.852 619.611 150.955 619.611 149.864ZM634.523 157.364C632.841 157.364 631.39 156.992 630.17 156.25C628.958 155.5 628.023 154.455 627.364 153.114C626.712 151.765 626.386 150.197 626.386 148.409C626.386 146.621 626.712 145.045 627.364 143.682C628.023 142.311 628.939 141.242 630.114 140.477C631.295 139.705 632.674 139.318 634.25 139.318C635.159 139.318 636.057 139.47 636.943 139.773C637.83 140.076 638.636 140.568 639.364 141.25C640.091 141.924 640.67 142.818 641.102 143.932C641.534 145.045 641.75 146.417 641.75 148.045V149.182H628.295V146.864H639.023C639.023 145.879 638.826 145 638.432 144.227C638.045 143.455 637.492 142.845 636.773 142.398C636.061 141.951 635.22 141.727 634.25 141.727C633.182 141.727 632.258 141.992 631.477 142.523C630.705 143.045 630.11 143.727 629.693 144.568C629.277 145.409 629.068 146.311 629.068 147.273V148.818C629.068 150.136 629.295 151.254 629.75 152.17C630.212 153.08 630.852 153.773 631.67 154.25C632.489 154.72 633.439 154.955 634.523 154.955C635.227 154.955 635.864 154.856 636.432 154.659C637.008 154.455 637.504 154.152 637.92 153.75C638.337 153.341 638.659 152.833 638.886 152.227L641.477 152.955C641.205 153.833 640.746 154.606 640.102 155.273C639.458 155.932 638.663 156.447 637.716 156.818C636.769 157.182 635.705 157.364 634.523 157.364ZM645.83 157V139.545H648.511V157H645.83ZM647.193 136.636C646.67 136.636 646.22 136.458 645.841 136.102C645.47 135.746 645.284 135.318 645.284 134.818C645.284 134.318 645.47 133.89 645.841 133.534C646.22 133.178 646.67 133 647.193 133C647.716 133 648.163 133.178 648.534 133.534C648.913 133.89 649.102 134.318 649.102 134.818C649.102 135.318 648.913 135.746 648.534 136.102C648.163 136.458 647.716 136.636 647.193 136.636ZM656.105 133.727V157H653.423V133.727H656.105ZM682.381 143.455L679.972 144.136C679.82 143.735 679.597 143.345 679.301 142.966C679.013 142.58 678.619 142.261 678.119 142.011C677.619 141.761 676.979 141.636 676.199 141.636C675.131 141.636 674.241 141.883 673.528 142.375C672.824 142.86 672.472 143.477 672.472 144.227C672.472 144.894 672.714 145.42 673.199 145.807C673.684 146.193 674.441 146.515 675.472 146.773L678.062 147.409C679.623 147.788 680.786 148.367 681.551 149.148C682.316 149.92 682.699 150.917 682.699 152.136C682.699 153.136 682.411 154.03 681.835 154.818C681.267 155.606 680.472 156.227 679.449 156.682C678.426 157.136 677.237 157.364 675.881 157.364C674.1 157.364 672.627 156.977 671.46 156.205C670.294 155.432 669.555 154.303 669.244 152.818L671.79 152.182C672.032 153.121 672.491 153.826 673.165 154.295C673.847 154.765 674.737 155 675.835 155C677.085 155 678.078 154.735 678.812 154.205C679.555 153.667 679.926 153.023 679.926 152.273C679.926 151.667 679.714 151.159 679.29 150.75C678.866 150.333 678.214 150.023 677.335 149.818L674.426 149.136C672.828 148.758 671.653 148.17 670.903 147.375C670.161 146.572 669.79 145.568 669.79 144.364C669.79 143.379 670.066 142.508 670.619 141.75C671.18 140.992 671.941 140.398 672.903 139.966C673.873 139.534 674.972 139.318 676.199 139.318C677.926 139.318 679.282 139.697 680.267 140.455C681.259 141.212 681.964 142.212 682.381 143.455ZM686.736 157V139.545H689.418V157H686.736ZM688.099 136.636C687.577 136.636 687.126 136.458 686.747 136.102C686.376 135.746 686.19 135.318 686.19 134.818C686.19 134.318 686.376 133.89 686.747 133.534C687.126 133.178 687.577 133 688.099 133C688.622 133 689.069 133.178 689.44 133.534C689.819 133.89 690.009 134.318 690.009 134.818C690.009 135.318 689.819 135.746 689.44 136.102C689.069 136.458 688.622 136.636 688.099 136.636ZM701.92 139.545V141.818H692.875V139.545H701.92ZM695.511 135.364H698.193V152C698.193 152.758 698.303 153.326 698.523 153.705C698.75 154.076 699.038 154.326 699.386 154.455C699.742 154.576 700.117 154.636 700.511 154.636C700.807 154.636 701.049 154.621 701.239 154.591C701.428 154.553 701.58 154.523 701.693 154.5L702.239 156.909C702.057 156.977 701.803 157.045 701.477 157.114C701.152 157.189 700.739 157.227 700.239 157.227C699.481 157.227 698.739 157.064 698.011 156.739C697.292 156.413 696.693 155.917 696.216 155.25C695.746 154.583 695.511 153.742 695.511 152.727V135.364ZM713.085 157.364C711.403 157.364 709.953 156.992 708.733 156.25C707.521 155.5 706.585 154.455 705.926 153.114C705.275 151.765 704.949 150.197 704.949 148.409C704.949 146.621 705.275 145.045 705.926 143.682C706.585 142.311 707.502 141.242 708.676 140.477C709.858 139.705 711.237 139.318 712.812 139.318C713.722 139.318 714.619 139.47 715.506 139.773C716.392 140.076 717.199 140.568 717.926 141.25C718.653 141.924 719.233 142.818 719.665 143.932C720.097 145.045 720.312 146.417 720.312 148.045V149.182H706.858V146.864H717.585C717.585 145.879 717.388 145 716.994 144.227C716.608 143.455 716.055 142.845 715.335 142.398C714.623 141.951 713.782 141.727 712.812 141.727C711.744 141.727 710.82 141.992 710.04 142.523C709.267 143.045 708.672 143.727 708.256 144.568C707.839 145.409 707.631 146.311 707.631 147.273V148.818C707.631 150.136 707.858 151.254 708.312 152.17C708.775 153.08 709.415 153.773 710.233 154.25C711.051 154.72 712.002 154.955 713.085 154.955C713.79 154.955 714.426 154.856 714.994 154.659C715.57 154.455 716.066 154.152 716.483 153.75C716.9 153.341 717.222 152.833 717.449 152.227L720.04 152.955C719.767 153.833 719.309 154.606 718.665 155.273C718.021 155.932 717.225 156.447 716.278 156.818C715.331 157.182 714.267 157.364 713.085 157.364ZM734.71 157H731.756L740.301 133.727H743.21L751.756 157H748.801L741.847 137.409H741.665L734.71 157ZM735.801 147.909H747.71V150.409H735.801V147.909ZM766.017 149.864V139.545H768.699V157H766.017V154.045H765.835C765.426 154.932 764.79 155.686 763.926 156.307C763.063 156.92 761.972 157.227 760.653 157.227C759.562 157.227 758.593 156.989 757.744 156.511C756.896 156.027 756.229 155.299 755.744 154.33C755.259 153.352 755.017 152.121 755.017 150.636V139.545H757.699V150.455C757.699 151.727 758.055 152.742 758.767 153.5C759.487 154.258 760.403 154.636 761.517 154.636C762.184 154.636 762.862 154.466 763.551 154.125C764.248 153.784 764.831 153.261 765.301 152.557C765.778 151.852 766.017 150.955 766.017 149.864ZM781.202 139.545V141.818H772.156V139.545H781.202ZM774.793 135.364H777.474V152C777.474 152.758 777.584 153.326 777.804 153.705C778.031 154.076 778.319 154.326 778.668 154.455C779.024 154.576 779.399 154.636 779.793 154.636C780.088 154.636 780.33 154.621 780.52 154.591C780.709 154.553 780.861 154.523 780.974 154.5L781.52 156.909C781.338 156.977 781.084 157.045 780.759 157.114C780.433 157.189 780.02 157.227 779.52 157.227C778.762 157.227 778.02 157.064 777.293 156.739C776.573 156.413 775.974 155.917 775.497 155.25C775.027 154.583 774.793 153.742 774.793 152.727V135.364ZM792.139 157.364C790.563 157.364 789.181 156.989 787.991 156.239C786.81 155.489 785.885 154.439 785.219 153.091C784.56 151.742 784.23 150.167 784.23 148.364C784.23 146.545 784.56 144.958 785.219 143.602C785.885 142.246 786.81 141.193 787.991 140.443C789.181 139.693 790.563 139.318 792.139 139.318C793.715 139.318 795.094 139.693 796.276 140.443C797.465 141.193 798.389 142.246 799.048 143.602C799.715 144.958 800.048 146.545 800.048 148.364C800.048 150.167 799.715 151.742 799.048 153.091C798.389 154.439 797.465 155.489 796.276 156.239C795.094 156.989 793.715 157.364 792.139 157.364ZM792.139 154.955C793.336 154.955 794.321 154.648 795.094 154.034C795.866 153.42 796.438 152.614 796.81 151.614C797.181 150.614 797.366 149.53 797.366 148.364C797.366 147.197 797.181 146.11 796.81 145.102C796.438 144.095 795.866 143.28 795.094 142.659C794.321 142.038 793.336 141.727 792.139 141.727C790.942 141.727 789.957 142.038 789.185 142.659C788.412 143.28 787.84 144.095 787.469 145.102C787.098 146.11 786.912 147.197 786.912 148.364C786.912 149.53 787.098 150.614 787.469 151.614C787.84 152.614 788.412 153.42 789.185 154.034C789.957 154.648 790.942 154.955 792.139 154.955ZM814.142 145.773V148.273H803.96V145.773H814.142ZM826.179 157.364C824.497 157.364 823.046 156.992 821.827 156.25C820.615 155.5 819.679 154.455 819.02 153.114C818.368 151.765 818.043 150.197 818.043 148.409C818.043 146.621 818.368 145.045 819.02 143.682C819.679 142.311 820.596 141.242 821.77 140.477C822.952 139.705 824.33 139.318 825.906 139.318C826.815 139.318 827.713 139.47 828.599 139.773C829.486 140.076 830.293 140.568 831.02 141.25C831.747 141.924 832.327 142.818 832.759 143.932C833.19 145.045 833.406 146.417 833.406 148.045V149.182H819.952V146.864H830.679C830.679 145.879 830.482 145 830.088 144.227C829.702 143.455 829.149 142.845 828.429 142.398C827.717 141.951 826.876 141.727 825.906 141.727C824.838 141.727 823.914 141.992 823.134 142.523C822.361 143.045 821.766 143.727 821.349 144.568C820.933 145.409 820.724 146.311 820.724 147.273V148.818C820.724 150.136 820.952 151.254 821.406 152.17C821.868 153.08 822.509 153.773 823.327 154.25C824.145 154.72 825.096 154.955 826.179 154.955C826.884 154.955 827.52 154.856 828.088 154.659C828.664 154.455 829.16 154.152 829.577 153.75C829.993 153.341 830.315 152.833 830.543 152.227L833.134 152.955C832.861 153.833 832.402 154.606 831.759 155.273C831.115 155.932 830.319 156.447 829.372 156.818C828.425 157.182 827.361 157.364 826.179 157.364ZM824.543 137.182L827.315 131.909H830.452L826.906 137.182H824.543ZM844.577 157.364C842.94 157.364 841.531 156.977 840.349 156.205C839.168 155.432 838.259 154.367 837.622 153.011C836.986 151.655 836.668 150.106 836.668 148.364C836.668 146.591 836.993 145.027 837.645 143.67C838.304 142.307 839.221 141.242 840.395 140.477C841.577 139.705 842.955 139.318 844.531 139.318C845.759 139.318 846.865 139.545 847.849 140C848.834 140.455 849.641 141.091 850.27 141.909C850.899 142.727 851.289 143.682 851.44 144.773H848.759C848.554 143.977 848.099 143.273 847.395 142.659C846.698 142.038 845.759 141.727 844.577 141.727C843.531 141.727 842.615 142 841.827 142.545C841.046 143.083 840.437 143.845 839.997 144.83C839.565 145.807 839.349 146.955 839.349 148.273C839.349 149.621 839.562 150.795 839.986 151.795C840.418 152.795 841.024 153.572 841.804 154.125C842.592 154.678 843.516 154.955 844.577 154.955C845.274 154.955 845.906 154.833 846.474 154.591C847.043 154.348 847.524 154 847.918 153.545C848.312 153.091 848.592 152.545 848.759 151.909H851.44C851.289 152.939 850.914 153.867 850.315 154.693C849.724 155.511 848.94 156.163 847.963 156.648C846.993 157.125 845.865 157.364 844.577 157.364ZM862.452 157.364C860.876 157.364 859.493 156.989 858.304 156.239C857.122 155.489 856.198 154.439 855.531 153.091C854.872 151.742 854.543 150.167 854.543 148.364C854.543 146.545 854.872 144.958 855.531 143.602C856.198 142.246 857.122 141.193 858.304 140.443C859.493 139.693 860.876 139.318 862.452 139.318C864.027 139.318 865.406 139.693 866.588 140.443C867.777 141.193 868.702 142.246 869.361 143.602C870.027 144.958 870.361 146.545 870.361 148.364C870.361 150.167 870.027 151.742 869.361 153.091C868.702 154.439 867.777 155.489 866.588 156.239C865.406 156.989 864.027 157.364 862.452 157.364ZM862.452 154.955C863.649 154.955 864.634 154.648 865.406 154.034C866.179 153.42 866.751 152.614 867.122 151.614C867.493 150.614 867.679 149.53 867.679 148.364C867.679 147.197 867.493 146.11 867.122 145.102C866.751 144.095 866.179 143.28 865.406 142.659C864.634 142.038 863.649 141.727 862.452 141.727C861.255 141.727 860.27 142.038 859.497 142.659C858.724 143.28 858.152 144.095 857.781 145.102C857.41 146.11 857.224 147.197 857.224 148.364C857.224 149.53 857.41 150.614 857.781 151.614C858.152 152.614 858.724 153.42 859.497 154.034C860.27 154.648 861.255 154.955 862.452 154.955ZM877.136 133.727V157H874.455V133.727H877.136ZM889.366 157.364C887.685 157.364 886.234 156.992 885.014 156.25C883.802 155.5 882.866 154.455 882.207 153.114C881.556 151.765 881.23 150.197 881.23 148.409C881.23 146.621 881.556 145.045 882.207 143.682C882.866 142.311 883.783 141.242 884.957 140.477C886.139 139.705 887.518 139.318 889.094 139.318C890.003 139.318 890.901 139.47 891.787 139.773C892.673 140.076 893.48 140.568 894.207 141.25C894.935 141.924 895.514 142.818 895.946 143.932C896.378 145.045 896.594 146.417 896.594 148.045V149.182H883.139V146.864H893.866C893.866 145.879 893.67 145 893.276 144.227C892.889 143.455 892.336 142.845 891.616 142.398C890.904 141.951 890.063 141.727 889.094 141.727C888.026 141.727 887.101 141.992 886.321 142.523C885.548 143.045 884.954 143.727 884.537 144.568C884.12 145.409 883.912 146.311 883.912 147.273V148.818C883.912 150.136 884.139 151.254 884.594 152.17C885.056 153.08 885.696 153.773 886.514 154.25C887.332 154.72 888.283 154.955 889.366 154.955C890.071 154.955 890.707 154.856 891.276 154.659C891.851 154.455 892.348 154.152 892.764 153.75C893.181 153.341 893.503 152.833 893.73 152.227L896.321 152.955C896.048 153.833 895.59 154.606 894.946 155.273C894.302 155.932 893.507 156.447 892.56 156.818C891.613 157.182 890.548 157.364 889.366 157.364Z" fill="black"/>
<rect x="63" y="343" width="358" height="426" rx="46" fill="#D9D9D9"/>
<rect x="544" y="343" width="358" height="426" rx="46" fill="#D9D9D9"/>
<rect x="1026" y="343" width="358" height="426" rx="46" fill="#D9D9D9"/>
<path d="M174.224 568V544.727H182.088C183.914 544.727 185.406 545.057 186.565 545.716C187.732 546.367 188.596 547.25 189.156 548.364C189.717 549.477 189.997 550.72 189.997 552.091C189.997 553.462 189.717 554.708 189.156 555.83C188.603 556.951 187.747 557.845 186.588 558.511C185.429 559.17 183.944 559.5 182.134 559.5H176.497V557H182.043C183.293 557 184.296 556.784 185.054 556.352C185.812 555.92 186.361 555.337 186.702 554.602C187.05 553.86 187.224 553.023 187.224 552.091C187.224 551.159 187.05 550.326 186.702 549.591C186.361 548.856 185.808 548.28 185.043 547.864C184.277 547.439 183.262 547.227 181.997 547.227H177.043V568H174.224ZM196.855 544.727V568H194.173V544.727H196.855ZM206.903 568.409C205.797 568.409 204.794 568.201 203.892 567.784C202.991 567.36 202.275 566.75 201.744 565.955C201.214 565.152 200.949 564.182 200.949 563.045C200.949 562.045 201.146 561.235 201.54 560.614C201.934 559.985 202.46 559.492 203.119 559.136C203.778 558.78 204.506 558.515 205.301 558.341C206.104 558.159 206.911 558.015 207.722 557.909C208.782 557.773 209.642 557.67 210.301 557.602C210.968 557.527 211.453 557.402 211.756 557.227C212.066 557.053 212.222 556.75 212.222 556.318V556.227C212.222 555.106 211.915 554.235 211.301 553.614C210.695 552.992 209.775 552.682 208.54 552.682C207.259 552.682 206.256 552.962 205.528 553.523C204.801 554.083 204.29 554.682 203.994 555.318L201.449 554.409C201.903 553.348 202.509 552.523 203.267 551.932C204.032 551.333 204.866 550.917 205.767 550.682C206.676 550.439 207.57 550.318 208.449 550.318C209.009 550.318 209.653 550.386 210.381 550.523C211.116 550.652 211.824 550.92 212.506 551.33C213.195 551.739 213.767 552.356 214.222 553.182C214.676 554.008 214.903 555.114 214.903 556.5V568H212.222V565.636H212.085C211.903 566.015 211.6 566.42 211.176 566.852C210.752 567.284 210.188 567.652 209.483 567.955C208.778 568.258 207.919 568.409 206.903 568.409ZM207.312 566C208.373 566 209.267 565.792 209.994 565.375C210.729 564.958 211.282 564.42 211.653 563.761C212.032 563.102 212.222 562.409 212.222 561.682V559.227C212.108 559.364 211.858 559.489 211.472 559.602C211.093 559.708 210.653 559.803 210.153 559.886C209.661 559.962 209.18 560.03 208.71 560.091C208.248 560.144 207.873 560.189 207.585 560.227C206.888 560.318 206.237 560.466 205.631 560.67C205.032 560.867 204.547 561.167 204.176 561.568C203.813 561.962 203.631 562.5 203.631 563.182C203.631 564.114 203.975 564.818 204.665 565.295C205.362 565.765 206.244 566 207.312 566ZM222.48 557.5V568H219.798V550.545H222.389V553.273H222.616C223.026 552.386 223.647 551.674 224.48 551.136C225.313 550.591 226.389 550.318 227.707 550.318C228.889 550.318 229.923 550.561 230.81 551.045C231.696 551.523 232.385 552.25 232.878 553.227C233.37 554.197 233.616 555.424 233.616 556.909V568H230.935V557.091C230.935 555.72 230.579 554.652 229.866 553.886C229.154 553.114 228.177 552.727 226.935 552.727C226.079 552.727 225.313 552.913 224.639 553.284C223.973 553.655 223.446 554.197 223.06 554.909C222.673 555.621 222.48 556.485 222.48 557.5ZM241.199 557.5V568H238.517V550.545H241.108V553.273H241.335C241.744 552.386 242.366 551.674 243.199 551.136C244.032 550.591 245.108 550.318 246.426 550.318C247.608 550.318 248.642 550.561 249.528 551.045C250.415 551.523 251.104 552.25 251.597 553.227C252.089 554.197 252.335 555.424 252.335 556.909V568H249.653V557.091C249.653 555.72 249.297 554.652 248.585 553.886C247.873 553.114 246.896 552.727 245.653 552.727C244.797 552.727 244.032 552.913 243.358 553.284C242.691 553.655 242.165 554.197 241.778 554.909C241.392 555.621 241.199 556.485 241.199 557.5ZM257.236 568V550.545H259.918V568H257.236ZM258.599 547.636C258.077 547.636 257.626 547.458 257.247 547.102C256.876 546.746 256.69 546.318 256.69 545.818C256.69 545.318 256.876 544.89 257.247 544.534C257.626 544.178 258.077 544 258.599 544C259.122 544 259.569 544.178 259.94 544.534C260.319 544.89 260.509 545.318 260.509 545.818C260.509 546.318 260.319 546.746 259.94 547.102C259.569 547.458 259.122 547.636 258.599 547.636ZM267.511 557.5V568H264.83V550.545H267.42V553.273H267.648C268.057 552.386 268.678 551.674 269.511 551.136C270.345 550.591 271.42 550.318 272.739 550.318C273.92 550.318 274.955 550.561 275.841 551.045C276.727 551.523 277.417 552.25 277.909 553.227C278.402 554.197 278.648 555.424 278.648 556.909V568H275.966V557.091C275.966 555.72 275.61 554.652 274.898 553.886C274.186 553.114 273.208 552.727 271.966 552.727C271.11 552.727 270.345 552.913 269.67 553.284C269.004 553.655 268.477 554.197 268.091 554.909C267.705 555.621 267.511 556.485 267.511 557.5ZM290.594 574.909C289.298 574.909 288.185 574.742 287.253 574.409C286.321 574.083 285.545 573.652 284.923 573.114C284.31 572.583 283.821 572.015 283.457 571.409L285.594 569.909C285.836 570.227 286.143 570.591 286.514 571C286.885 571.417 287.393 571.777 288.037 572.08C288.688 572.39 289.541 572.545 290.594 572.545C292.003 572.545 293.166 572.205 294.082 571.523C294.999 570.841 295.457 569.773 295.457 568.318V564.773H295.23C295.033 565.091 294.753 565.485 294.389 565.955C294.033 566.417 293.518 566.83 292.844 567.193C292.177 567.549 291.276 567.727 290.139 567.727C288.73 567.727 287.465 567.394 286.344 566.727C285.23 566.061 284.348 565.091 283.696 563.818C283.052 562.545 282.73 561 282.73 559.182C282.73 557.394 283.045 555.837 283.673 554.511C284.302 553.178 285.177 552.148 286.298 551.42C287.42 550.686 288.715 550.318 290.185 550.318C291.321 550.318 292.223 550.508 292.889 550.886C293.563 551.258 294.079 551.682 294.435 552.159C294.798 552.629 295.079 553.015 295.276 553.318H295.548V550.545H298.139V568.5C298.139 570 297.798 571.22 297.116 572.159C296.442 573.106 295.533 573.799 294.389 574.239C293.253 574.686 291.988 574.909 290.594 574.909ZM290.503 565.318C291.579 565.318 292.488 565.072 293.23 564.58C293.973 564.087 294.537 563.379 294.923 562.455C295.31 561.53 295.503 560.424 295.503 559.136C295.503 557.879 295.313 556.769 294.935 555.807C294.556 554.845 293.995 554.091 293.253 553.545C292.51 553 291.594 552.727 290.503 552.727C289.366 552.727 288.42 553.015 287.662 553.591C286.912 554.167 286.348 554.939 285.969 555.909C285.598 556.879 285.412 557.955 285.412 559.136C285.412 560.348 285.601 561.42 285.98 562.352C286.366 563.277 286.935 564.004 287.685 564.534C288.442 565.057 289.382 565.318 290.503 565.318Z" fill="black"/>
<path d="M667.358 552H664.54C664.373 551.189 664.081 550.477 663.665 549.864C663.256 549.25 662.756 548.735 662.165 548.318C661.581 547.894 660.934 547.576 660.222 547.364C659.509 547.152 658.767 547.045 657.994 547.045C656.585 547.045 655.309 547.402 654.165 548.114C653.028 548.826 652.123 549.875 651.449 551.261C650.782 552.648 650.449 554.348 650.449 556.364C650.449 558.379 650.782 560.08 651.449 561.466C652.123 562.852 653.028 563.902 654.165 564.614C655.309 565.326 656.585 565.682 657.994 565.682C658.767 565.682 659.509 565.576 660.222 565.364C660.934 565.152 661.581 564.837 662.165 564.42C662.756 563.996 663.256 563.477 663.665 562.864C664.081 562.242 664.373 561.53 664.54 560.727H667.358C667.146 561.917 666.759 562.981 666.199 563.92C665.638 564.86 664.941 565.659 664.108 566.318C663.275 566.97 662.339 567.466 661.301 567.807C660.271 568.148 659.169 568.318 657.994 568.318C656.009 568.318 654.244 567.833 652.699 566.864C651.153 565.894 649.938 564.515 649.051 562.727C648.165 560.939 647.722 558.818 647.722 556.364C647.722 553.909 648.165 551.788 649.051 550C649.938 548.212 651.153 546.833 652.699 545.864C654.244 544.894 656.009 544.409 657.994 544.409C659.169 544.409 660.271 544.58 661.301 544.92C662.339 545.261 663.275 545.761 664.108 546.42C664.941 547.072 665.638 547.867 666.199 548.807C666.759 549.739 667.146 550.803 667.358 552ZM676.685 568.409C675.579 568.409 674.575 568.201 673.673 567.784C672.772 567.36 672.056 566.75 671.526 565.955C670.995 565.152 670.73 564.182 670.73 563.045C670.73 562.045 670.927 561.235 671.321 560.614C671.715 559.985 672.241 559.492 672.901 559.136C673.56 558.78 674.287 558.515 675.082 558.341C675.885 558.159 676.692 558.015 677.503 557.909C678.563 557.773 679.423 557.67 680.082 557.602C680.749 557.527 681.234 557.402 681.537 557.227C681.848 557.053 682.003 556.75 682.003 556.318V556.227C682.003 555.106 681.696 554.235 681.082 553.614C680.476 552.992 679.556 552.682 678.321 552.682C677.041 552.682 676.037 552.962 675.31 553.523C674.582 554.083 674.071 554.682 673.776 555.318L671.23 554.409C671.685 553.348 672.291 552.523 673.048 551.932C673.813 551.333 674.647 550.917 675.548 550.682C676.457 550.439 677.351 550.318 678.23 550.318C678.791 550.318 679.435 550.386 680.162 550.523C680.897 550.652 681.605 550.92 682.287 551.33C682.976 551.739 683.548 552.356 684.003 553.182C684.457 554.008 684.685 555.114 684.685 556.5V568H682.003V565.636H681.866C681.685 566.015 681.382 566.42 680.957 566.852C680.533 567.284 679.969 567.652 679.264 567.955C678.56 568.258 677.7 568.409 676.685 568.409ZM677.094 566C678.154 566 679.048 565.792 679.776 565.375C680.51 564.958 681.063 564.42 681.435 563.761C681.813 563.102 682.003 562.409 682.003 561.682V559.227C681.889 559.364 681.639 559.489 681.253 559.602C680.874 559.708 680.435 559.803 679.935 559.886C679.442 559.962 678.961 560.03 678.491 560.091C678.029 560.144 677.654 560.189 677.366 560.227C676.67 560.318 676.018 560.466 675.412 560.67C674.813 560.867 674.329 561.167 673.957 561.568C673.594 561.962 673.412 562.5 673.412 563.182C673.412 564.114 673.757 564.818 674.446 565.295C675.143 565.765 676.026 566 677.094 566ZM697.17 550.545V552.818H688.125V550.545H697.17ZM690.761 546.364H693.443V563C693.443 563.758 693.553 564.326 693.773 564.705C694 565.076 694.288 565.326 694.636 565.455C694.992 565.576 695.367 565.636 695.761 565.636C696.057 565.636 696.299 565.621 696.489 565.591C696.678 565.553 696.83 565.523 696.943 565.5L697.489 567.909C697.307 567.977 697.053 568.045 696.727 568.114C696.402 568.189 695.989 568.227 695.489 568.227C694.731 568.227 693.989 568.064 693.261 567.739C692.542 567.413 691.943 566.917 691.466 566.25C690.996 565.583 690.761 564.742 690.761 563.727V546.364ZM706.341 568.409C705.235 568.409 704.231 568.201 703.33 567.784C702.428 567.36 701.712 566.75 701.182 565.955C700.652 565.152 700.386 564.182 700.386 563.045C700.386 562.045 700.583 561.235 700.977 560.614C701.371 559.985 701.898 559.492 702.557 559.136C703.216 558.78 703.943 558.515 704.739 558.341C705.542 558.159 706.348 558.015 707.159 557.909C708.22 557.773 709.08 557.67 709.739 557.602C710.405 557.527 710.89 557.402 711.193 557.227C711.504 557.053 711.659 556.75 711.659 556.318V556.227C711.659 555.106 711.352 554.235 710.739 553.614C710.133 552.992 709.212 552.682 707.977 552.682C706.697 552.682 705.693 552.962 704.966 553.523C704.239 554.083 703.727 554.682 703.432 555.318L700.886 554.409C701.341 553.348 701.947 552.523 702.705 551.932C703.47 551.333 704.303 550.917 705.205 550.682C706.114 550.439 707.008 550.318 707.886 550.318C708.447 550.318 709.091 550.386 709.818 550.523C710.553 550.652 711.261 550.92 711.943 551.33C712.633 551.739 713.205 552.356 713.659 553.182C714.114 554.008 714.341 555.114 714.341 556.5V568H711.659V565.636H711.523C711.341 566.015 711.038 566.42 710.614 566.852C710.189 567.284 709.625 567.652 708.92 567.955C708.216 568.258 707.356 568.409 706.341 568.409ZM706.75 566C707.811 566 708.705 565.792 709.432 565.375C710.167 564.958 710.72 564.42 711.091 563.761C711.47 563.102 711.659 562.409 711.659 561.682V559.227C711.545 559.364 711.295 559.489 710.909 559.602C710.53 559.708 710.091 559.803 709.591 559.886C709.098 559.962 708.617 560.03 708.148 560.091C707.686 560.144 707.311 560.189 707.023 560.227C706.326 560.318 705.674 560.466 705.068 560.67C704.47 560.867 703.985 561.167 703.614 561.568C703.25 561.962 703.068 562.5 703.068 563.182C703.068 564.114 703.413 564.818 704.102 565.295C704.799 565.765 705.682 566 706.75 566ZM721.918 544.727V568H719.236V544.727H721.918ZM733.92 568.364C732.345 568.364 730.962 567.989 729.773 567.239C728.591 566.489 727.667 565.439 727 564.091C726.341 562.742 726.011 561.167 726.011 559.364C726.011 557.545 726.341 555.958 727 554.602C727.667 553.246 728.591 552.193 729.773 551.443C730.962 550.693 732.345 550.318 733.92 550.318C735.496 550.318 736.875 550.693 738.057 551.443C739.246 552.193 740.17 553.246 740.83 554.602C741.496 555.958 741.83 557.545 741.83 559.364C741.83 561.167 741.496 562.742 740.83 564.091C740.17 565.439 739.246 566.489 738.057 567.239C736.875 567.989 735.496 568.364 733.92 568.364ZM733.92 565.955C735.117 565.955 736.102 565.648 736.875 565.034C737.648 564.42 738.22 563.614 738.591 562.614C738.962 561.614 739.148 560.53 739.148 559.364C739.148 558.197 738.962 557.11 738.591 556.102C738.22 555.095 737.648 554.28 736.875 553.659C736.102 553.038 735.117 552.727 733.92 552.727C732.723 552.727 731.739 553.038 730.966 553.659C730.193 554.28 729.621 555.095 729.25 556.102C728.879 557.11 728.693 558.197 728.693 559.364C728.693 560.53 728.879 561.614 729.25 562.614C729.621 563.614 730.193 564.42 730.966 565.034C731.739 565.648 732.723 565.955 733.92 565.955ZM752.969 574.909C751.673 574.909 750.56 574.742 749.628 574.409C748.696 574.083 747.92 573.652 747.298 573.114C746.685 572.583 746.196 572.015 745.832 571.409L747.969 569.909C748.211 570.227 748.518 570.591 748.889 571C749.26 571.417 749.768 571.777 750.412 572.08C751.063 572.39 751.916 572.545 752.969 572.545C754.378 572.545 755.541 572.205 756.457 571.523C757.374 570.841 757.832 569.773 757.832 568.318V564.773H757.605C757.408 565.091 757.128 565.485 756.764 565.955C756.408 566.417 755.893 566.83 755.219 567.193C754.552 567.549 753.651 567.727 752.514 567.727C751.105 567.727 749.84 567.394 748.719 566.727C747.605 566.061 746.723 565.091 746.071 563.818C745.427 562.545 745.105 561 745.105 559.182C745.105 557.394 745.42 555.837 746.048 554.511C746.677 553.178 747.552 552.148 748.673 551.42C749.795 550.686 751.09 550.318 752.56 550.318C753.696 550.318 754.598 550.508 755.264 550.886C755.938 551.258 756.454 551.682 756.81 552.159C757.173 552.629 757.454 553.015 757.651 553.318H757.923V550.545H760.514V568.5C760.514 570 760.173 571.22 759.491 572.159C758.817 573.106 757.908 573.799 756.764 574.239C755.628 574.686 754.363 574.909 752.969 574.909ZM752.878 565.318C753.954 565.318 754.863 565.072 755.605 564.58C756.348 564.087 756.912 563.379 757.298 562.455C757.685 561.53 757.878 560.424 757.878 559.136C757.878 557.879 757.688 556.769 757.31 555.807C756.931 554.845 756.37 554.091 755.628 553.545C754.885 553 753.969 552.727 752.878 552.727C751.741 552.727 750.795 553.015 750.037 553.591C749.287 554.167 748.723 554.939 748.344 555.909C747.973 556.879 747.787 557.955 747.787 559.136C747.787 560.348 747.976 561.42 748.355 562.352C748.741 563.277 749.31 564.004 750.06 564.534C750.817 565.057 751.757 565.318 752.878 565.318ZM776.423 560.864V550.545H779.105V568H776.423V565.045H776.241C775.832 565.932 775.196 566.686 774.332 567.307C773.469 567.92 772.378 568.227 771.06 568.227C769.969 568.227 768.999 567.989 768.151 567.511C767.302 567.027 766.635 566.299 766.151 565.33C765.666 564.352 765.423 563.121 765.423 561.636V550.545H768.105V561.455C768.105 562.727 768.461 563.742 769.173 564.5C769.893 565.258 770.81 565.636 771.923 565.636C772.59 565.636 773.268 565.466 773.957 565.125C774.654 564.784 775.238 564.261 775.707 563.557C776.185 562.852 776.423 561.955 776.423 560.864ZM791.335 568.364C789.653 568.364 788.203 567.992 786.983 567.25C785.771 566.5 784.835 565.455 784.176 564.114C783.525 562.765 783.199 561.197 783.199 559.409C783.199 557.621 783.525 556.045 784.176 554.682C784.835 553.311 785.752 552.242 786.926 551.477C788.108 550.705 789.487 550.318 791.062 550.318C791.972 550.318 792.869 550.47 793.756 550.773C794.642 551.076 795.449 551.568 796.176 552.25C796.903 552.924 797.483 553.818 797.915 554.932C798.347 556.045 798.562 557.417 798.562 559.045V560.182H785.108V557.864H795.835C795.835 556.879 795.638 556 795.244 555.227C794.858 554.455 794.305 553.845 793.585 553.398C792.873 552.951 792.032 552.727 791.062 552.727C789.994 552.727 789.07 552.992 788.29 553.523C787.517 554.045 786.922 554.727 786.506 555.568C786.089 556.409 785.881 557.311 785.881 558.273V559.818C785.881 561.136 786.108 562.254 786.562 563.17C787.025 564.08 787.665 564.773 788.483 565.25C789.301 565.72 790.252 565.955 791.335 565.955C792.04 565.955 792.676 565.856 793.244 565.659C793.82 565.455 794.316 565.152 794.733 564.75C795.15 564.341 795.472 563.833 795.699 563.227L798.29 563.955C798.017 564.833 797.559 565.606 796.915 566.273C796.271 566.932 795.475 567.447 794.528 567.818C793.581 568.182 792.517 568.364 791.335 568.364Z" fill="black"/>
<path d="M1154.83 552H1152.01C1151.84 551.189 1151.55 550.477 1151.13 549.864C1150.72 549.25 1150.22 548.735 1149.63 548.318C1149.05 547.894 1148.4 547.576 1147.69 547.364C1146.98 547.152 1146.24 547.045 1145.46 547.045C1144.05 547.045 1142.78 547.402 1141.63 548.114C1140.5 548.826 1139.59 549.875 1138.92 551.261C1138.25 552.648 1137.92 554.348 1137.92 556.364C1137.92 558.379 1138.25 560.08 1138.92 561.466C1139.59 562.852 1140.5 563.902 1141.63 564.614C1142.78 565.326 1144.05 565.682 1145.46 565.682C1146.24 565.682 1146.98 565.576 1147.69 565.364C1148.4 565.152 1149.05 564.837 1149.63 564.42C1150.22 563.996 1150.72 563.477 1151.13 562.864C1151.55 562.242 1151.84 561.53 1152.01 560.727H1154.83C1154.61 561.917 1154.23 562.981 1153.67 563.92C1153.11 564.86 1152.41 565.659 1151.58 566.318C1150.74 566.97 1149.81 567.466 1148.77 567.807C1147.74 568.148 1146.64 568.318 1145.46 568.318C1143.48 568.318 1141.71 567.833 1140.17 566.864C1138.62 565.894 1137.41 564.515 1136.52 562.727C1135.63 560.939 1135.19 558.818 1135.19 556.364C1135.19 553.909 1135.63 551.788 1136.52 550C1137.41 548.212 1138.62 546.833 1140.17 545.864C1141.71 544.894 1143.48 544.409 1145.46 544.409C1146.64 544.409 1147.74 544.58 1148.77 544.92C1149.81 545.261 1150.74 545.761 1151.58 546.42C1152.41 547.072 1153.11 547.867 1153.67 548.807C1154.23 549.739 1154.61 550.803 1154.83 552ZM1164.15 568.409C1163.05 568.409 1162.04 568.201 1161.14 567.784C1160.24 567.36 1159.52 566.75 1158.99 565.955C1158.46 565.152 1158.2 564.182 1158.2 563.045C1158.2 562.045 1158.4 561.235 1158.79 560.614C1159.18 559.985 1159.71 559.492 1160.37 559.136C1161.03 558.78 1161.76 558.515 1162.55 558.341C1163.35 558.159 1164.16 558.015 1164.97 557.909C1166.03 557.773 1166.89 557.67 1167.55 557.602C1168.22 557.527 1168.7 557.402 1169.01 557.227C1169.32 557.053 1169.47 556.75 1169.47 556.318V556.227C1169.47 555.106 1169.16 554.235 1168.55 553.614C1167.95 552.992 1167.02 552.682 1165.79 552.682C1164.51 552.682 1163.51 552.962 1162.78 553.523C1162.05 554.083 1161.54 554.682 1161.24 555.318L1158.7 554.409C1159.15 553.348 1159.76 552.523 1160.52 551.932C1161.28 551.333 1162.12 550.917 1163.02 550.682C1163.93 550.439 1164.82 550.318 1165.7 550.318C1166.26 550.318 1166.9 550.386 1167.63 550.523C1168.37 550.652 1169.07 550.92 1169.76 551.33C1170.45 551.739 1171.02 552.356 1171.47 553.182C1171.93 554.008 1172.15 555.114 1172.15 556.5V568H1169.47V565.636H1169.34C1169.15 566.015 1168.85 566.42 1168.43 566.852C1168 567.284 1167.44 567.652 1166.73 567.955C1166.03 568.258 1165.17 568.409 1164.15 568.409ZM1164.56 566C1165.62 566 1166.52 565.792 1167.24 565.375C1167.98 564.958 1168.53 564.42 1168.9 563.761C1169.28 563.102 1169.47 562.409 1169.47 561.682V559.227C1169.36 559.364 1169.11 559.489 1168.72 559.602C1168.34 559.708 1167.9 559.803 1167.4 559.886C1166.91 559.962 1166.43 560.03 1165.96 560.091C1165.5 560.144 1165.12 560.189 1164.84 560.227C1164.14 560.318 1163.49 560.466 1162.88 560.67C1162.28 560.867 1161.8 561.167 1161.43 561.568C1161.06 561.962 1160.88 562.5 1160.88 563.182C1160.88 564.114 1161.23 564.818 1161.91 565.295C1162.61 565.765 1163.49 566 1164.56 566ZM1179.73 557.5V568H1177.05V550.545H1179.64V553.273H1179.87C1180.28 552.386 1180.9 551.674 1181.73 551.136C1182.56 550.591 1183.64 550.318 1184.96 550.318C1186.14 550.318 1187.17 550.561 1188.06 551.045C1188.95 551.523 1189.64 552.25 1190.13 553.227C1190.62 554.197 1190.87 555.424 1190.87 556.909V568H1188.18V557.091C1188.18 555.72 1187.83 554.652 1187.12 553.886C1186.4 553.114 1185.43 552.727 1184.18 552.727C1183.33 552.727 1182.56 552.913 1181.89 553.284C1181.22 553.655 1180.7 554.197 1180.31 554.909C1179.92 555.621 1179.73 556.485 1179.73 557.5ZM1202.36 568.364C1200.9 568.364 1199.62 567.996 1198.51 567.261C1197.39 566.519 1196.52 565.473 1195.89 564.125C1195.26 562.769 1194.95 561.167 1194.95 559.318C1194.95 557.485 1195.26 555.894 1195.89 554.545C1196.52 553.197 1197.4 552.155 1198.52 551.42C1199.64 550.686 1200.93 550.318 1202.4 550.318C1203.54 550.318 1204.44 550.508 1205.1 550.886C1205.76 551.258 1206.27 551.682 1206.62 552.159C1206.98 552.629 1207.25 553.015 1207.45 553.318H1207.68V544.727H1210.36V568H1207.77V565.318H1207.45C1207.25 565.636 1206.97 566.038 1206.61 566.523C1206.24 567 1205.73 567.428 1205.05 567.807C1204.38 568.178 1203.48 568.364 1202.36 568.364ZM1202.72 565.955C1203.8 565.955 1204.71 565.674 1205.45 565.114C1206.19 564.545 1206.76 563.761 1207.14 562.761C1207.53 561.754 1207.72 560.591 1207.72 559.273C1207.72 557.97 1207.53 556.83 1207.15 555.852C1206.77 554.867 1206.21 554.102 1205.47 553.557C1204.73 553.004 1203.81 552.727 1202.72 552.727C1201.59 552.727 1200.64 553.019 1199.88 553.602C1199.13 554.178 1198.57 554.962 1198.19 555.955C1197.82 556.939 1197.63 558.045 1197.63 559.273C1197.63 560.515 1197.82 561.644 1198.2 562.659C1198.59 563.667 1199.15 564.47 1199.9 565.068C1200.66 565.659 1201.6 565.955 1202.72 565.955ZM1215.64 568V550.545H1218.32V568H1215.64ZM1217.01 547.636C1216.48 547.636 1216.03 547.458 1215.65 547.102C1215.28 546.746 1215.1 546.318 1215.1 545.818C1215.1 545.318 1215.28 544.89 1215.65 544.534C1216.03 544.178 1216.48 544 1217.01 544C1217.53 544 1217.98 544.178 1218.35 544.534C1218.73 544.89 1218.91 545.318 1218.91 545.818C1218.91 546.318 1218.73 546.746 1218.35 547.102C1217.98 547.458 1217.53 547.636 1217.01 547.636ZM1229.83 568.364C1228.37 568.364 1227.09 567.996 1225.97 567.261C1224.86 566.519 1223.99 565.473 1223.36 564.125C1222.73 562.769 1222.42 561.167 1222.42 559.318C1222.42 557.485 1222.73 555.894 1223.36 554.545C1223.99 553.197 1224.86 552.155 1225.99 551.42C1227.11 550.686 1228.4 550.318 1229.87 550.318C1231.01 550.318 1231.91 550.508 1232.57 550.886C1233.23 551.258 1233.74 551.682 1234.09 552.159C1234.44 552.629 1234.72 553.015 1234.92 553.318H1235.14V544.727H1237.83V568H1235.24V565.318H1234.92C1234.72 565.636 1234.44 566.038 1234.08 566.523C1233.71 567 1233.19 567.428 1232.52 567.807C1231.85 568.178 1230.95 568.364 1229.83 568.364ZM1230.19 565.955C1231.27 565.955 1232.18 565.674 1232.92 565.114C1233.66 564.545 1234.22 563.761 1234.61 562.761C1235 561.754 1235.19 560.591 1235.19 559.273C1235.19 557.97 1235 556.83 1234.62 555.852C1234.24 554.867 1233.68 554.102 1232.94 553.557C1232.2 553.004 1231.28 552.727 1230.19 552.727C1229.05 552.727 1228.11 553.019 1227.35 553.602C1226.6 554.178 1226.04 554.962 1225.66 555.955C1225.29 556.939 1225.1 558.045 1225.1 559.273C1225.1 560.515 1225.29 561.644 1225.67 562.659C1226.05 563.667 1226.62 564.47 1227.37 565.068C1228.13 565.659 1229.07 565.955 1230.19 565.955ZM1248.25 568.409C1247.14 568.409 1246.14 568.201 1245.24 567.784C1244.33 567.36 1243.62 566.75 1243.09 565.955C1242.56 565.152 1242.29 564.182 1242.29 563.045C1242.29 562.045 1242.49 561.235 1242.88 560.614C1243.28 559.985 1243.8 559.492 1244.46 559.136C1245.12 558.78 1245.85 558.515 1246.64 558.341C1247.45 558.159 1248.25 558.015 1249.07 557.909C1250.13 557.773 1250.99 557.67 1251.64 557.602C1252.31 557.527 1252.8 557.402 1253.1 557.227C1253.41 557.053 1253.57 556.75 1253.57 556.318V556.227C1253.57 555.106 1253.26 554.235 1252.64 553.614C1252.04 552.992 1251.12 552.682 1249.88 552.682C1248.6 552.682 1247.6 552.962 1246.87 553.523C1246.14 554.083 1245.63 554.682 1245.34 555.318L1242.79 554.409C1243.25 553.348 1243.85 552.523 1244.61 551.932C1245.38 551.333 1246.21 550.917 1247.11 550.682C1248.02 550.439 1248.91 550.318 1249.79 550.318C1250.35 550.318 1251 550.386 1251.72 550.523C1252.46 550.652 1253.17 550.92 1253.85 551.33C1254.54 551.739 1255.11 552.356 1255.57 553.182C1256.02 554.008 1256.25 555.114 1256.25 556.5V568H1253.57V565.636H1253.43C1253.25 566.015 1252.94 566.42 1252.52 566.852C1252.1 567.284 1251.53 567.652 1250.83 567.955C1250.12 568.258 1249.26 568.409 1248.25 568.409ZM1248.66 566C1249.72 566 1250.61 565.792 1251.34 565.375C1252.07 564.958 1252.63 564.42 1253 563.761C1253.38 563.102 1253.57 562.409 1253.57 561.682V559.227C1253.45 559.364 1253.2 559.489 1252.82 559.602C1252.44 559.708 1252 559.803 1251.5 559.886C1251 559.962 1250.52 560.03 1250.05 560.091C1249.59 560.144 1249.22 560.189 1248.93 560.227C1248.23 560.318 1247.58 560.466 1246.97 560.67C1246.38 560.867 1245.89 561.167 1245.52 561.568C1245.16 561.962 1244.97 562.5 1244.97 563.182C1244.97 564.114 1245.32 564.818 1246.01 565.295C1246.71 565.765 1247.59 566 1248.66 566ZM1268.73 550.545V552.818H1259.69V550.545H1268.73ZM1262.32 546.364H1265.01V563C1265.01 563.758 1265.12 564.326 1265.34 564.705C1265.56 565.076 1265.85 565.326 1266.2 565.455C1266.55 565.576 1266.93 565.636 1267.32 565.636C1267.62 565.636 1267.86 565.621 1268.05 565.591C1268.24 565.553 1268.39 565.523 1268.51 565.5L1269.05 567.909C1268.87 567.977 1268.62 568.045 1268.29 568.114C1267.96 568.189 1267.55 568.227 1267.05 568.227C1266.29 568.227 1265.55 568.064 1264.82 567.739C1264.1 567.413 1263.51 566.917 1263.03 566.25C1262.56 565.583 1262.32 564.742 1262.32 563.727V546.364ZM1284.82 554.455L1282.41 555.136C1282.26 554.735 1282.03 554.345 1281.74 553.966C1281.45 553.58 1281.06 553.261 1280.56 553.011C1280.06 552.761 1279.42 552.636 1278.64 552.636C1277.57 552.636 1276.68 552.883 1275.97 553.375C1275.26 553.86 1274.91 554.477 1274.91 555.227C1274.91 555.894 1275.15 556.42 1275.64 556.807C1276.12 557.193 1276.88 557.515 1277.91 557.773L1280.5 558.409C1282.06 558.788 1283.22 559.367 1283.99 560.148C1284.75 560.92 1285.14 561.917 1285.14 563.136C1285.14 564.136 1284.85 565.03 1284.27 565.818C1283.7 566.606 1282.91 567.227 1281.89 567.682C1280.86 568.136 1279.67 568.364 1278.32 568.364C1276.54 568.364 1275.06 567.977 1273.9 567.205C1272.73 566.432 1271.99 565.303 1271.68 563.818L1274.23 563.182C1274.47 564.121 1274.93 564.826 1275.6 565.295C1276.28 565.765 1277.17 566 1278.27 566C1279.52 566 1280.52 565.735 1281.25 565.205C1281.99 564.667 1282.36 564.023 1282.36 563.273C1282.36 562.667 1282.15 562.159 1281.73 561.75C1281.3 561.333 1280.65 561.023 1279.77 560.818L1276.86 560.136C1275.27 559.758 1274.09 559.17 1273.34 558.375C1272.6 557.572 1272.23 556.568 1272.23 555.364C1272.23 554.379 1272.5 553.508 1273.06 552.75C1273.62 551.992 1274.38 551.398 1275.34 550.966C1276.31 550.534 1277.41 550.318 1278.64 550.318C1280.36 550.318 1281.72 550.697 1282.7 551.455C1283.7 552.212 1284.4 553.212 1284.82 554.455Z" fill="black"/>
<path d="M1212.71 133.455L1210.3 134.136C1210.15 133.735 1209.92 133.345 1209.63 132.966C1209.34 132.58 1208.95 132.261 1208.45 132.011C1207.95 131.761 1207.31 131.636 1206.53 131.636C1205.46 131.636 1204.57 131.883 1203.86 132.375C1203.15 132.86 1202.8 133.477 1202.8 134.227C1202.8 134.894 1203.04 135.42 1203.53 135.807C1204.01 136.193 1204.77 136.515 1205.8 136.773L1208.39 137.409C1209.95 137.788 1211.11 138.367 1211.88 139.148C1212.64 139.92 1213.03 140.917 1213.03 142.136C1213.03 143.136 1212.74 144.03 1212.16 144.818C1211.6 145.606 1210.8 146.227 1209.78 146.682C1208.75 147.136 1207.56 147.364 1206.21 147.364C1204.43 147.364 1202.96 146.977 1201.79 146.205C1200.62 145.432 1199.88 144.303 1199.57 142.818L1202.12 142.182C1202.36 143.121 1202.82 143.826 1203.49 144.295C1204.17 144.765 1205.06 145 1206.16 145C1207.41 145 1208.41 144.735 1209.14 144.205C1209.88 143.667 1210.25 143.023 1210.25 142.273C1210.25 141.667 1210.04 141.159 1209.62 140.75C1209.19 140.333 1208.54 140.023 1207.66 139.818L1204.75 139.136C1203.16 138.758 1201.98 138.17 1201.23 137.375C1200.49 136.572 1200.12 135.568 1200.12 134.364C1200.12 133.379 1200.39 132.508 1200.95 131.75C1201.51 130.992 1202.27 130.398 1203.23 129.966C1204.2 129.534 1205.3 129.318 1206.53 129.318C1208.25 129.318 1209.61 129.697 1210.6 130.455C1211.59 131.212 1212.29 132.212 1212.71 133.455ZM1224.38 147.364C1222.7 147.364 1221.25 146.992 1220.03 146.25C1218.82 145.5 1217.88 144.455 1217.22 143.114C1216.57 141.765 1216.25 140.197 1216.25 138.409C1216.25 136.621 1216.57 135.045 1217.22 133.682C1217.88 132.311 1218.8 131.242 1219.97 130.477C1221.15 129.705 1222.53 129.318 1224.11 129.318C1225.02 129.318 1225.92 129.47 1226.8 129.773C1227.69 130.076 1228.5 130.568 1229.22 131.25C1229.95 131.924 1230.53 132.818 1230.96 133.932C1231.39 135.045 1231.61 136.417 1231.61 138.045V139.182H1218.15V136.864H1228.88C1228.88 135.879 1228.69 135 1228.29 134.227C1227.9 133.455 1227.35 132.845 1226.63 132.398C1225.92 131.951 1225.08 131.727 1224.11 131.727C1223.04 131.727 1222.12 131.992 1221.34 132.523C1220.56 133.045 1219.97 133.727 1219.55 134.568C1219.14 135.409 1218.93 136.311 1218.93 137.273V138.818C1218.93 140.136 1219.15 141.254 1219.61 142.17C1220.07 143.08 1220.71 143.773 1221.53 144.25C1222.35 144.72 1223.3 144.955 1224.38 144.955C1225.09 144.955 1225.72 144.856 1226.29 144.659C1226.87 144.455 1227.36 144.152 1227.78 143.75C1228.2 143.341 1228.52 142.833 1228.75 142.227L1231.34 142.955C1231.06 143.833 1230.61 144.606 1229.96 145.273C1229.32 145.932 1228.52 146.447 1227.58 146.818C1226.63 147.182 1225.56 147.364 1224.38 147.364ZM1251.78 147.364C1250.14 147.364 1248.73 146.977 1247.55 146.205C1246.37 145.432 1245.46 144.367 1244.83 143.011C1244.19 141.655 1243.87 140.106 1243.87 138.364C1243.87 136.591 1244.2 135.027 1244.85 133.67C1245.51 132.307 1246.42 131.242 1247.6 130.477C1248.78 129.705 1250.16 129.318 1251.73 129.318C1252.96 129.318 1254.07 129.545 1255.05 130C1256.04 130.455 1256.84 131.091 1257.47 131.909C1258.1 132.727 1258.49 133.682 1258.64 134.773H1255.96C1255.76 133.977 1255.3 133.273 1254.6 132.659C1253.9 132.038 1252.96 131.727 1251.78 131.727C1250.73 131.727 1249.82 132 1249.03 132.545C1248.25 133.083 1247.64 133.845 1247.2 134.83C1246.77 135.807 1246.55 136.955 1246.55 138.273C1246.55 139.621 1246.76 140.795 1247.19 141.795C1247.62 142.795 1248.23 143.572 1249.01 144.125C1249.79 144.678 1250.72 144.955 1251.78 144.955C1252.48 144.955 1253.11 144.833 1253.68 144.591C1254.25 144.348 1254.73 144 1255.12 143.545C1255.51 143.091 1255.79 142.545 1255.96 141.909H1258.64C1258.49 142.939 1258.12 143.867 1257.52 144.693C1256.93 145.511 1256.14 146.163 1255.17 146.648C1254.2 147.125 1253.07 147.364 1251.78 147.364ZM1269.65 147.364C1268.08 147.364 1266.7 146.989 1265.51 146.239C1264.33 145.489 1263.4 144.439 1262.73 143.091C1262.08 141.742 1261.75 140.167 1261.75 138.364C1261.75 136.545 1262.08 134.958 1262.73 133.602C1263.4 132.246 1264.33 131.193 1265.51 130.443C1266.7 129.693 1268.08 129.318 1269.65 129.318C1271.23 129.318 1272.61 129.693 1273.79 130.443C1274.98 131.193 1275.9 132.246 1276.56 133.602C1277.23 134.958 1277.56 136.545 1277.56 138.364C1277.56 140.167 1277.23 141.742 1276.56 143.091C1275.9 144.439 1274.98 145.489 1273.79 146.239C1272.61 146.989 1271.23 147.364 1269.65 147.364ZM1269.65 144.955C1270.85 144.955 1271.84 144.648 1272.61 144.034C1273.38 143.42 1273.95 142.614 1274.33 141.614C1274.7 140.614 1274.88 139.53 1274.88 138.364C1274.88 137.197 1274.7 136.11 1274.33 135.102C1273.95 134.095 1273.38 133.28 1272.61 132.659C1271.84 132.038 1270.85 131.727 1269.65 131.727C1268.46 131.727 1267.47 132.038 1266.7 132.659C1265.93 133.28 1265.36 134.095 1264.98 135.102C1264.61 136.11 1264.43 137.197 1264.43 138.364C1264.43 139.53 1264.61 140.614 1264.98 141.614C1265.36 142.614 1265.93 143.42 1266.7 144.034C1267.47 144.648 1268.46 144.955 1269.65 144.955ZM1284.34 136.5V147H1281.66V129.545H1284.25V132.273H1284.48C1284.88 131.386 1285.51 130.674 1286.34 130.136C1287.17 129.591 1288.25 129.318 1289.57 129.318C1290.75 129.318 1291.78 129.561 1292.67 130.045C1293.56 130.523 1294.24 131.25 1294.74 132.227C1295.23 133.197 1295.48 134.424 1295.48 135.909V147H1292.79V136.091C1292.79 134.72 1292.44 133.652 1291.73 132.886C1291.01 132.114 1290.04 131.727 1288.79 131.727C1287.94 131.727 1287.17 131.913 1286.5 132.284C1285.83 132.655 1285.31 133.197 1284.92 133.909C1284.53 134.621 1284.34 135.485 1284.34 136.5ZM1303.06 136.5V147H1300.38V129.545H1302.97V132.273H1303.19C1303.6 131.386 1304.22 130.674 1305.06 130.136C1305.89 129.591 1306.97 129.318 1308.29 129.318C1309.47 129.318 1310.5 129.561 1311.39 130.045C1312.27 130.523 1312.96 131.25 1313.46 132.227C1313.95 133.197 1314.19 134.424 1314.19 135.909V147H1311.51V136.091C1311.51 134.72 1311.16 133.652 1310.44 132.886C1309.73 132.114 1308.76 131.727 1307.51 131.727C1306.66 131.727 1305.89 131.913 1305.22 132.284C1304.55 132.655 1304.02 133.197 1303.64 133.909C1303.25 134.621 1303.06 135.485 1303.06 136.5ZM1326.41 147.364C1324.73 147.364 1323.28 146.992 1322.06 146.25C1320.85 145.5 1319.91 144.455 1319.25 143.114C1318.6 141.765 1318.28 140.197 1318.28 138.409C1318.28 136.621 1318.6 135.045 1319.25 133.682C1319.91 132.311 1320.83 131.242 1322 130.477C1323.19 129.705 1324.56 129.318 1326.14 129.318C1327.05 129.318 1327.95 129.47 1328.83 129.773C1329.72 130.076 1330.53 130.568 1331.25 131.25C1331.98 131.924 1332.56 132.818 1332.99 133.932C1333.42 135.045 1333.64 136.417 1333.64 138.045V139.182H1320.19V136.864H1330.91C1330.91 135.879 1330.72 135 1330.32 134.227C1329.94 133.455 1329.38 132.845 1328.66 132.398C1327.95 131.951 1327.11 131.727 1326.14 131.727C1325.07 131.727 1324.15 131.992 1323.37 132.523C1322.6 133.045 1322 133.727 1321.58 134.568C1321.17 135.409 1320.96 136.311 1320.96 137.273V138.818C1320.96 140.136 1321.19 141.254 1321.64 142.17C1322.1 143.08 1322.74 143.773 1323.56 144.25C1324.38 144.72 1325.33 144.955 1326.41 144.955C1327.12 144.955 1327.75 144.856 1328.32 144.659C1328.9 144.455 1329.39 144.152 1329.81 143.75C1330.23 143.341 1330.55 142.833 1330.78 142.227L1333.37 142.955C1333.1 143.833 1332.64 144.606 1331.99 145.273C1331.35 145.932 1330.55 146.447 1329.61 146.818C1328.66 147.182 1327.6 147.364 1326.41 147.364ZM1344.81 147.364C1343.17 147.364 1341.77 146.977 1340.58 146.205C1339.4 145.432 1338.49 144.367 1337.86 143.011C1337.22 141.655 1336.9 140.106 1336.9 138.364C1336.9 136.591 1337.23 135.027 1337.88 133.67C1338.54 132.307 1339.46 131.242 1340.63 130.477C1341.81 129.705 1343.19 129.318 1344.77 129.318C1345.99 129.318 1347.1 129.545 1348.08 130C1349.07 130.455 1349.88 131.091 1350.5 131.909C1351.13 132.727 1351.52 133.682 1351.67 134.773H1348.99C1348.79 133.977 1348.33 133.273 1347.63 132.659C1346.93 132.038 1345.99 131.727 1344.81 131.727C1343.77 131.727 1342.85 132 1342.06 132.545C1341.28 133.083 1340.67 133.845 1340.23 134.83C1339.8 135.807 1339.58 136.955 1339.58 138.273C1339.58 139.621 1339.8 140.795 1340.22 141.795C1340.65 142.795 1341.26 143.572 1342.04 144.125C1342.83 144.678 1343.75 144.955 1344.81 144.955C1345.51 144.955 1346.14 144.833 1346.71 144.591C1347.28 144.348 1347.76 144 1348.15 143.545C1348.55 143.091 1348.83 142.545 1348.99 141.909H1351.67C1351.52 142.939 1351.15 143.867 1350.55 144.693C1349.96 145.511 1349.17 146.163 1348.2 146.648C1347.23 147.125 1346.1 147.364 1344.81 147.364ZM1363.19 129.545V131.818H1354.14V129.545H1363.19ZM1356.78 125.364H1359.46V142C1359.46 142.758 1359.57 143.326 1359.79 143.705C1360.02 144.076 1360.3 144.326 1360.65 144.455C1361.01 144.576 1361.38 144.636 1361.78 144.636C1362.07 144.636 1362.31 144.621 1362.5 144.591C1362.69 144.553 1362.85 144.523 1362.96 144.5L1363.5 146.909C1363.32 146.977 1363.07 147.045 1362.74 147.114C1362.42 147.189 1362 147.227 1361.5 147.227C1360.75 147.227 1360 147.064 1359.28 146.739C1358.56 146.413 1357.96 145.917 1357.48 145.25C1357.01 144.583 1356.78 143.742 1356.78 142.727V125.364ZM1374.35 147.364C1372.67 147.364 1371.22 146.992 1370 146.25C1368.79 145.5 1367.85 144.455 1367.19 143.114C1366.54 141.765 1366.21 140.197 1366.21 138.409C1366.21 136.621 1366.54 135.045 1367.19 133.682C1367.85 132.311 1368.77 131.242 1369.94 130.477C1371.12 129.705 1372.5 129.318 1374.08 129.318C1374.99 129.318 1375.88 129.47 1376.77 129.773C1377.66 130.076 1378.46 130.568 1379.19 131.25C1379.92 131.924 1380.5 132.818 1380.93 133.932C1381.36 135.045 1381.58 136.417 1381.58 138.045V139.182H1368.12V136.864H1378.85C1378.85 135.879 1378.65 135 1378.26 134.227C1377.87 133.455 1377.32 132.845 1376.6 132.398C1375.89 131.951 1375.05 131.727 1374.08 131.727C1373.01 131.727 1372.09 131.992 1371.31 132.523C1370.53 133.045 1369.94 133.727 1369.52 134.568C1369.1 135.409 1368.9 136.311 1368.9 137.273V138.818C1368.9 140.136 1369.12 141.254 1369.58 142.17C1370.04 143.08 1370.68 143.773 1371.5 144.25C1372.32 144.72 1373.27 144.955 1374.35 144.955C1375.06 144.955 1375.69 144.856 1376.26 144.659C1376.84 144.455 1377.33 144.152 1377.75 143.75C1378.17 143.341 1378.49 142.833 1378.71 142.227L1381.31 142.955C1381.03 143.833 1380.57 144.606 1379.93 145.273C1379.29 145.932 1378.49 146.447 1377.54 146.818C1376.6 147.182 1375.53 147.364 1374.35 147.364ZM1385.66 147V129.545H1388.25V132.182H1388.43C1388.75 131.318 1389.32 130.617 1390.16 130.08C1390.99 129.542 1391.93 129.273 1392.98 129.273C1393.17 129.273 1393.42 129.277 1393.71 129.284C1394.01 129.292 1394.23 129.303 1394.38 129.318V132.045C1394.29 132.023 1394.09 131.989 1393.76 131.943C1393.44 131.89 1393.1 131.864 1392.75 131.864C1391.9 131.864 1391.14 132.042 1390.48 132.398C1389.82 132.746 1389.29 133.231 1388.91 133.852C1388.53 134.466 1388.34 135.167 1388.34 135.955V147H1385.66Z" fill="black"/>
</g>
<defs>
<filter id="filter0_d_1_4" x="0" y="0" width="1448" height="1032" filterUnits="userSpaceOnUse" color-interpolation-filters="sRGB">
<feFlood flood-opacity="0" result="BackgroundImageFix"/>
<feColorMatrix in="SourceAlpha" type="matrix" values="0 0 0 0 0 0 0 0 0 0 0 0 0 0 0 0 0 0 127 0" result="hardAlpha"/>
<feOffset dy="4"/>
<feGaussianBlur stdDeviation="2"/>
<feComposite in2="hardAlpha" operator="out"/>
<feColorMatrix type="matrix" values="0 0 0 0 0 0 0 0 0 0 0 0 0 0 0 0 0 0 0.25 0"/>
<feBlend mode="normal" in2="BackgroundImageFix" result="effect1_dropShadow_1_4"/>
<feBlend mode="normal" in="SourceGraphic" in2="effect1_dropShadow_1_4" result="shape"/>
</filter>
</defs>
</svg>
