<svg width="1448" height="1032" viewBox="0 0 1448 1032" fill="none" xmlns="http://www.w3.org/2000/svg">
<g filter="url(#filter0_d_5_15)">
<rect x="4" width="1440" height="1024" fill="white"/>
<rect x="4.5" y="0.5" width="1439" height="1023" stroke="black"/>
<rect x="4" y="3" width="1440" height="110" fill="#D9D9D9"/>
<path d="M552.554 157H549.599L558.145 133.727H561.054L569.599 157H566.645L559.69 137.409H559.509L552.554 157ZM553.645 147.909H565.554V150.409H553.645V147.909ZM579.952 157.364C578.315 157.364 576.906 156.977 575.724 156.205C574.543 155.432 573.634 154.367 572.997 153.011C572.361 151.655 572.043 150.106 572.043 148.364C572.043 146.591 572.368 145.027 573.02 143.67C573.679 142.307 574.596 141.242 575.77 140.477C576.952 139.705 578.33 139.318 579.906 139.318C581.134 139.318 582.24 139.545 583.224 140C584.209 140.455 585.016 141.091 585.645 141.909C586.274 142.727 586.664 143.682 586.815 144.773H584.134C583.929 143.977 583.474 143.273 582.77 142.659C582.073 142.038 581.134 141.727 579.952 141.727C578.906 141.727 577.99 142 577.202 142.545C576.421 143.083 575.812 143.845 575.372 144.83C574.94 145.807 574.724 146.955 574.724 148.273C574.724 149.621 574.937 150.795 575.361 151.795C575.793 152.795 576.399 153.572 577.179 154.125C577.967 154.678 578.891 154.955 579.952 154.955C580.649 154.955 581.281 154.833 581.849 154.591C582.418 154.348 582.899 154 583.293 153.545C583.687 153.091 583.967 152.545 584.134 151.909H586.815C586.664 152.939 586.289 153.867 585.69 154.693C585.099 155.511 584.315 156.163 583.338 156.648C582.368 157.125 581.24 157.364 579.952 157.364ZM597.827 157.364C596.19 157.364 594.781 156.977 593.599 156.205C592.418 155.432 591.509 154.367 590.872 153.011C590.236 151.655 589.918 150.106 589.918 148.364C589.918 146.591 590.243 145.027 590.895 143.67C591.554 142.307 592.471 141.242 593.645 140.477C594.827 139.705 596.205 139.318 597.781 139.318C599.009 139.318 600.115 139.545 601.099 140C602.084 140.455 602.891 141.091 603.52 141.909C604.149 142.727 604.539 143.682 604.69 144.773H602.009C601.804 143.977 601.349 143.273 600.645 142.659C599.948 142.038 599.009 141.727 597.827 141.727C596.781 141.727 595.865 142 595.077 142.545C594.296 143.083 593.687 143.845 593.247 144.83C592.815 145.807 592.599 146.955 592.599 148.273C592.599 149.621 592.812 150.795 593.236 151.795C593.668 152.795 594.274 153.572 595.054 154.125C595.842 154.678 596.766 154.955 597.827 154.955C598.524 154.955 599.156 154.833 599.724 154.591C600.293 154.348 600.774 154 601.168 153.545C601.562 153.091 601.842 152.545 602.009 151.909H604.69C604.539 152.939 604.164 153.867 603.565 154.693C602.974 155.511 602.19 156.163 601.213 156.648C600.243 157.125 599.115 157.364 597.827 157.364ZM619.611 149.864V139.545H622.293V157H619.611V154.045H619.429C619.02 154.932 618.384 155.686 617.52 156.307C616.656 156.92 615.565 157.227 614.247 157.227C613.156 157.227 612.187 156.989 611.338 156.511C610.49 156.027 609.823 155.299 609.338 154.33C608.853 153.352 608.611 152.121 608.611 150.636V139.545H611.293V150.455C611.293 151.727 611.649 152.742 612.361 153.5C613.08 154.258 613.997 154.636 615.111 154.636C615.777 154.636 616.455 154.466 617.145 154.125C617.842 153.784 618.425 153.261 618.895 152.557C619.372 151.852 619.611 150.955 619.611 149.864ZM634.523 157.364C632.841 157.364 631.39 156.992 630.17 156.25C628.958 155.5 628.023 154.455 627.364 153.114C626.712 151.765 626.386 150.197 626.386 148.409C626.386 146.621 626.712 145.045 627.364 143.682C628.023 142.311 628.939 141.242 630.114 140.477C631.295 139.705 632.674 139.318 634.25 139.318C635.159 139.318 636.057 139.47 636.943 139.773C637.83 140.076 638.636 140.568 639.364 141.25C640.091 141.924 640.67 142.818 641.102 143.932C641.534 145.045 641.75 146.417 641.75 148.045V149.182H628.295V146.864H639.023C639.023 145.879 638.826 145 638.432 144.227C638.045 143.455 637.492 142.845 636.773 142.398C636.061 141.951 635.22 141.727 634.25 141.727C633.182 141.727 632.258 141.992 631.477 142.523C630.705 143.045 630.11 143.727 629.693 144.568C629.277 145.409 629.068 146.311 629.068 147.273V148.818C629.068 150.136 629.295 151.254 629.75 152.17C630.212 153.08 630.852 153.773 631.67 154.25C632.489 154.72 633.439 154.955 634.523 154.955C635.227 154.955 635.864 154.856 636.432 154.659C637.008 154.455 637.504 154.152 637.92 153.75C638.337 153.341 638.659 152.833 638.886 152.227L641.477 152.955C641.205 153.833 640.746 154.606 640.102 155.273C639.458 155.932 638.663 156.447 637.716 156.818C636.769 157.182 635.705 157.364 634.523 157.364ZM645.83 157V139.545H648.511V157H645.83ZM647.193 136.636C646.67 136.636 646.22 136.458 645.841 136.102C645.47 135.746 645.284 135.318 645.284 134.818C645.284 134.318 645.47 133.89 645.841 133.534C646.22 133.178 646.67 133 647.193 133C647.716 133 648.163 133.178 648.534 133.534C648.913 133.89 649.102 134.318 649.102 134.818C649.102 135.318 648.913 135.746 648.534 136.102C648.163 136.458 647.716 136.636 647.193 136.636ZM656.105 133.727V157H653.423V133.727H656.105ZM682.381 143.455L679.972 144.136C679.82 143.735 679.597 143.345 679.301 142.966C679.013 142.58 678.619 142.261 678.119 142.011C677.619 141.761 676.979 141.636 676.199 141.636C675.131 141.636 674.241 141.883 673.528 142.375C672.824 142.86 672.472 143.477 672.472 144.227C672.472 144.894 672.714 145.42 673.199 145.807C673.684 146.193 674.441 146.515 675.472 146.773L678.062 147.409C679.623 147.788 680.786 148.367 681.551 149.148C682.316 149.92 682.699 150.917 682.699 152.136C682.699 153.136 682.411 154.03 681.835 154.818C681.267 155.606 680.472 156.227 679.449 156.682C678.426 157.136 677.237 157.364 675.881 157.364C674.1 157.364 672.627 156.977 671.46 156.205C670.294 155.432 669.555 154.303 669.244 152.818L671.79 152.182C672.032 153.121 672.491 153.826 673.165 154.295C673.847 154.765 674.737 155 675.835 155C677.085 155 678.078 154.735 678.812 154.205C679.555 153.667 679.926 153.023 679.926 152.273C679.926 151.667 679.714 151.159 679.29 150.75C678.866 150.333 678.214 150.023 677.335 149.818L674.426 149.136C672.828 148.758 671.653 148.17 670.903 147.375C670.161 146.572 669.79 145.568 669.79 144.364C669.79 143.379 670.066 142.508 670.619 141.75C671.18 140.992 671.941 140.398 672.903 139.966C673.873 139.534 674.972 139.318 676.199 139.318C677.926 139.318 679.282 139.697 680.267 140.455C681.259 141.212 681.964 142.212 682.381 143.455ZM686.736 157V139.545H689.418V157H686.736ZM688.099 136.636C687.577 136.636 687.126 136.458 686.747 136.102C686.376 135.746 686.19 135.318 686.19 134.818C686.19 134.318 686.376 133.89 686.747 133.534C687.126 133.178 687.577 133 688.099 133C688.622 133 689.069 133.178 689.44 133.534C689.819 133.89 690.009 134.318 690.009 134.818C690.009 135.318 689.819 135.746 689.44 136.102C689.069 136.458 688.622 136.636 688.099 136.636ZM701.92 139.545V141.818H692.875V139.545H701.92ZM695.511 135.364H698.193V152C698.193 152.758 698.303 153.326 698.523 153.705C698.75 154.076 699.038 154.326 699.386 154.455C699.742 154.576 700.117 154.636 700.511 154.636C700.807 154.636 701.049 154.621 701.239 154.591C701.428 154.553 701.58 154.523 701.693 154.5L702.239 156.909C702.057 156.977 701.803 157.045 701.477 157.114C701.152 157.189 700.739 157.227 700.239 157.227C699.481 157.227 698.739 157.064 698.011 156.739C697.292 156.413 696.693 155.917 696.216 155.25C695.746 154.583 695.511 153.742 695.511 152.727V135.364ZM713.085 157.364C711.403 157.364 709.953 156.992 708.733 156.25C707.521 155.5 706.585 154.455 705.926 153.114C705.275 151.765 704.949 150.197 704.949 148.409C704.949 146.621 705.275 145.045 705.926 143.682C706.585 142.311 707.502 141.242 708.676 140.477C709.858 139.705 711.237 139.318 712.812 139.318C713.722 139.318 714.619 139.47 715.506 139.773C716.392 140.076 717.199 140.568 717.926 141.25C718.653 141.924 719.233 142.818 719.665 143.932C720.097 145.045 720.312 146.417 720.312 148.045V149.182H706.858V146.864H717.585C717.585 145.879 717.388 145 716.994 144.227C716.608 143.455 716.055 142.845 715.335 142.398C714.623 141.951 713.782 141.727 712.812 141.727C711.744 141.727 710.82 141.992 710.04 142.523C709.267 143.045 708.672 143.727 708.256 144.568C707.839 145.409 707.631 146.311 707.631 147.273V148.818C707.631 150.136 707.858 151.254 708.312 152.17C708.775 153.08 709.415 153.773 710.233 154.25C711.051 154.72 712.002 154.955 713.085 154.955C713.79 154.955 714.426 154.856 714.994 154.659C715.57 154.455 716.066 154.152 716.483 153.75C716.9 153.341 717.222 152.833 717.449 152.227L720.04 152.955C719.767 153.833 719.309 154.606 718.665 155.273C718.021 155.932 717.225 156.447 716.278 156.818C715.331 157.182 714.267 157.364 713.085 157.364ZM734.71 157H731.756L740.301 133.727H743.21L751.756 157H748.801L741.847 137.409H741.665L734.71 157ZM735.801 147.909H747.71V150.409H735.801V147.909ZM766.017 149.864V139.545H768.699V157H766.017V154.045H765.835C765.426 154.932 764.79 155.686 763.926 156.307C763.063 156.92 761.972 157.227 760.653 157.227C759.562 157.227 758.593 156.989 757.744 156.511C756.896 156.027 756.229 155.299 755.744 154.33C755.259 153.352 755.017 152.121 755.017 150.636V139.545H757.699V150.455C757.699 151.727 758.055 152.742 758.767 153.5C759.487 154.258 760.403 154.636 761.517 154.636C762.184 154.636 762.862 154.466 763.551 154.125C764.248 153.784 764.831 153.261 765.301 152.557C765.778 151.852 766.017 150.955 766.017 149.864ZM781.202 139.545V141.818H772.156V139.545H781.202ZM774.793 135.364H777.474V152C777.474 152.758 777.584 153.326 777.804 153.705C778.031 154.076 778.319 154.326 778.668 154.455C779.024 154.576 779.399 154.636 779.793 154.636C780.088 154.636 780.33 154.621 780.52 154.591C780.709 154.553 780.861 154.523 780.974 154.5L781.52 156.909C781.338 156.977 781.084 157.045 780.759 157.114C780.433 157.189 780.02 157.227 779.52 157.227C778.762 157.227 778.02 157.064 777.293 156.739C776.573 156.413 775.974 155.917 775.497 155.25C775.027 154.583 774.793 153.742 774.793 152.727V135.364ZM792.139 157.364C790.563 157.364 789.181 156.989 787.991 156.239C786.81 155.489 785.885 154.439 785.219 153.091C784.56 151.742 784.23 150.167 784.23 148.364C784.23 146.545 784.56 144.958 785.219 143.602C785.885 142.246 786.81 141.193 787.991 140.443C789.181 139.693 790.563 139.318 792.139 139.318C793.715 139.318 795.094 139.693 796.276 140.443C797.465 141.193 798.389 142.246 799.048 143.602C799.715 144.958 800.048 146.545 800.048 148.364C800.048 150.167 799.715 151.742 799.048 153.091C798.389 154.439 797.465 155.489 796.276 156.239C795.094 156.989 793.715 157.364 792.139 157.364ZM792.139 154.955C793.336 154.955 794.321 154.648 795.094 154.034C795.866 153.42 796.438 152.614 796.81 151.614C797.181 150.614 797.366 149.53 797.366 148.364C797.366 147.197 797.181 146.11 796.81 145.102C796.438 144.095 795.866 143.28 795.094 142.659C794.321 142.038 793.336 141.727 792.139 141.727C790.942 141.727 789.957 142.038 789.185 142.659C788.412 143.28 787.84 144.095 787.469 145.102C787.098 146.11 786.912 147.197 786.912 148.364C786.912 149.53 787.098 150.614 787.469 151.614C787.84 152.614 788.412 153.42 789.185 154.034C789.957 154.648 790.942 154.955 792.139 154.955ZM814.142 145.773V148.273H803.96V145.773H814.142ZM826.179 157.364C824.497 157.364 823.046 156.992 821.827 156.25C820.615 155.5 819.679 154.455 819.02 153.114C818.368 151.765 818.043 150.197 818.043 148.409C818.043 146.621 818.368 145.045 819.02 143.682C819.679 142.311 820.596 141.242 821.77 140.477C822.952 139.705 824.33 139.318 825.906 139.318C826.815 139.318 827.713 139.47 828.599 139.773C829.486 140.076 830.293 140.568 831.02 141.25C831.747 141.924 832.327 142.818 832.759 143.932C833.19 145.045 833.406 146.417 833.406 148.045V149.182H819.952V146.864H830.679C830.679 145.879 830.482 145 830.088 144.227C829.702 143.455 829.149 142.845 828.429 142.398C827.717 141.951 826.876 141.727 825.906 141.727C824.838 141.727 823.914 141.992 823.134 142.523C822.361 143.045 821.766 143.727 821.349 144.568C820.933 145.409 820.724 146.311 820.724 147.273V148.818C820.724 150.136 820.952 151.254 821.406 152.17C821.868 153.08 822.509 153.773 823.327 154.25C824.145 154.72 825.096 154.955 826.179 154.955C826.884 154.955 827.52 154.856 828.088 154.659C828.664 154.455 829.16 154.152 829.577 153.75C829.993 153.341 830.315 152.833 830.543 152.227L833.134 152.955C832.861 153.833 832.402 154.606 831.759 155.273C831.115 155.932 830.319 156.447 829.372 156.818C828.425 157.182 827.361 157.364 826.179 157.364ZM824.543 137.182L827.315 131.909H830.452L826.906 137.182H824.543ZM844.577 157.364C842.94 157.364 841.531 156.977 840.349 156.205C839.168 155.432 838.259 154.367 837.622 153.011C836.986 151.655 836.668 150.106 836.668 148.364C836.668 146.591 836.993 145.027 837.645 143.67C838.304 142.307 839.221 141.242 840.395 140.477C841.577 139.705 842.955 139.318 844.531 139.318C845.759 139.318 846.865 139.545 847.849 140C848.834 140.455 849.641 141.091 850.27 141.909C850.899 142.727 851.289 143.682 851.44 144.773H848.759C848.554 143.977 848.099 143.273 847.395 142.659C846.698 142.038 845.759 141.727 844.577 141.727C843.531 141.727 842.615 142 841.827 142.545C841.046 143.083 840.437 143.845 839.997 144.83C839.565 145.807 839.349 146.955 839.349 148.273C839.349 149.621 839.562 150.795 839.986 151.795C840.418 152.795 841.024 153.572 841.804 154.125C842.592 154.678 843.516 154.955 844.577 154.955C845.274 154.955 845.906 154.833 846.474 154.591C847.043 154.348 847.524 154 847.918 153.545C848.312 153.091 848.592 152.545 848.759 151.909H851.44C851.289 152.939 850.914 153.867 850.315 154.693C849.724 155.511 848.94 156.163 847.963 156.648C846.993 157.125 845.865 157.364 844.577 157.364ZM862.452 157.364C860.876 157.364 859.493 156.989 858.304 156.239C857.122 155.489 856.198 154.439 855.531 153.091C854.872 151.742 854.543 150.167 854.543 148.364C854.543 146.545 854.872 144.958 855.531 143.602C856.198 142.246 857.122 141.193 858.304 140.443C859.493 139.693 860.876 139.318 862.452 139.318C864.027 139.318 865.406 139.693 866.588 140.443C867.777 141.193 868.702 142.246 869.361 143.602C870.027 144.958 870.361 146.545 870.361 148.364C870.361 150.167 870.027 151.742 869.361 153.091C868.702 154.439 867.777 155.489 866.588 156.239C865.406 156.989 864.027 157.364 862.452 157.364ZM862.452 154.955C863.649 154.955 864.634 154.648 865.406 154.034C866.179 153.42 866.751 152.614 867.122 151.614C867.493 150.614 867.679 149.53 867.679 148.364C867.679 147.197 867.493 146.11 867.122 145.102C866.751 144.095 866.179 143.28 865.406 142.659C864.634 142.038 863.649 141.727 862.452 141.727C861.255 141.727 860.27 142.038 859.497 142.659C858.724 143.28 858.152 144.095 857.781 145.102C857.41 146.11 857.224 147.197 857.224 148.364C857.224 149.53 857.41 150.614 857.781 151.614C858.152 152.614 858.724 153.42 859.497 154.034C860.27 154.648 861.255 154.955 862.452 154.955ZM877.136 133.727V157H874.455V133.727H877.136ZM889.366 157.364C887.685 157.364 886.234 156.992 885.014 156.25C883.802 155.5 882.866 154.455 882.207 153.114C881.556 151.765 881.23 150.197 881.23 148.409C881.23 146.621 881.556 145.045 882.207 143.682C882.866 142.311 883.783 141.242 884.957 140.477C886.139 139.705 887.518 139.318 889.094 139.318C890.003 139.318 890.901 139.47 891.787 139.773C892.673 140.076 893.48 140.568 894.207 141.25C894.935 141.924 895.514 142.818 895.946 143.932C896.378 145.045 896.594 146.417 896.594 148.045V149.182H883.139V146.864H893.866C893.866 145.879 893.67 145 893.276 144.227C892.889 143.455 892.336 142.845 891.616 142.398C890.904 141.951 890.063 141.727 889.094 141.727C888.026 141.727 887.101 141.992 886.321 142.523C885.548 143.045 884.954 143.727 884.537 144.568C884.12 145.409 883.912 146.311 883.912 147.273V148.818C883.912 150.136 884.139 151.254 884.594 152.17C885.056 153.08 885.696 153.773 886.514 154.25C887.332 154.72 888.283 154.955 889.366 154.955C890.071 154.955 890.707 154.856 891.276 154.659C891.851 154.455 892.348 154.152 892.764 153.75C893.181 153.341 893.503 152.833 893.73 152.227L896.321 152.955C896.048 153.833 895.59 154.606 894.946 155.273C894.302 155.932 893.507 156.447 892.56 156.818C891.613 157.182 890.548 157.364 889.366 157.364Z" fill="black"/>
<rect x="136" y="314" width="391" height="455" rx="46" fill="#D9D9D9"/>
<rect x="903" y="314" width="391" height="455" rx="46" fill="#D9D9D9"/>
<path d="M269.224 557V533.727H277.088C278.914 533.727 280.406 534.057 281.565 534.716C282.732 535.367 283.596 536.25 284.156 537.364C284.717 538.477 284.997 539.72 284.997 541.091C284.997 542.462 284.717 543.708 284.156 544.83C283.603 545.951 282.747 546.845 281.588 547.511C280.429 548.17 278.944 548.5 277.134 548.5H271.497V546H277.043C278.293 546 279.296 545.784 280.054 545.352C280.812 544.92 281.361 544.337 281.702 543.602C282.05 542.86 282.224 542.023 282.224 541.091C282.224 540.159 282.05 539.326 281.702 538.591C281.361 537.856 280.808 537.28 280.043 536.864C279.277 536.439 278.262 536.227 276.997 536.227H272.043V557H269.224ZM291.855 533.727V557H289.173V533.727H291.855ZM301.903 557.409C300.797 557.409 299.794 557.201 298.892 556.784C297.991 556.36 297.275 555.75 296.744 554.955C296.214 554.152 295.949 553.182 295.949 552.045C295.949 551.045 296.146 550.235 296.54 549.614C296.934 548.985 297.46 548.492 298.119 548.136C298.778 547.78 299.506 547.515 300.301 547.341C301.104 547.159 301.911 547.015 302.722 546.909C303.782 546.773 304.642 546.67 305.301 546.602C305.968 546.527 306.453 546.402 306.756 546.227C307.066 546.053 307.222 545.75 307.222 545.318V545.227C307.222 544.106 306.915 543.235 306.301 542.614C305.695 541.992 304.775 541.682 303.54 541.682C302.259 541.682 301.256 541.962 300.528 542.523C299.801 543.083 299.29 543.682 298.994 544.318L296.449 543.409C296.903 542.348 297.509 541.523 298.267 540.932C299.032 540.333 299.866 539.917 300.767 539.682C301.676 539.439 302.57 539.318 303.449 539.318C304.009 539.318 304.653 539.386 305.381 539.523C306.116 539.652 306.824 539.92 307.506 540.33C308.195 540.739 308.767 541.356 309.222 542.182C309.676 543.008 309.903 544.114 309.903 545.5V557H307.222V554.636H307.085C306.903 555.015 306.6 555.42 306.176 555.852C305.752 556.284 305.188 556.652 304.483 556.955C303.778 557.258 302.919 557.409 301.903 557.409ZM302.312 555C303.373 555 304.267 554.792 304.994 554.375C305.729 553.958 306.282 553.42 306.653 552.761C307.032 552.102 307.222 551.409 307.222 550.682V548.227C307.108 548.364 306.858 548.489 306.472 548.602C306.093 548.708 305.653 548.803 305.153 548.886C304.661 548.962 304.18 549.03 303.71 549.091C303.248 549.144 302.873 549.189 302.585 549.227C301.888 549.318 301.237 549.466 300.631 549.67C300.032 549.867 299.547 550.167 299.176 550.568C298.813 550.962 298.631 551.5 298.631 552.182C298.631 553.114 298.975 553.818 299.665 554.295C300.362 554.765 301.244 555 302.312 555ZM317.48 546.5V557H314.798V539.545H317.389V542.273H317.616C318.026 541.386 318.647 540.674 319.48 540.136C320.313 539.591 321.389 539.318 322.707 539.318C323.889 539.318 324.923 539.561 325.81 540.045C326.696 540.523 327.385 541.25 327.878 542.227C328.37 543.197 328.616 544.424 328.616 545.909V557H325.935V546.091C325.935 544.72 325.579 543.652 324.866 542.886C324.154 542.114 323.177 541.727 321.935 541.727C321.079 541.727 320.313 541.913 319.639 542.284C318.973 542.655 318.446 543.197 318.06 543.909C317.673 544.621 317.48 545.485 317.48 546.5ZM336.199 546.5V557H333.517V539.545H336.108V542.273H336.335C336.744 541.386 337.366 540.674 338.199 540.136C339.032 539.591 340.108 539.318 341.426 539.318C342.608 539.318 343.642 539.561 344.528 540.045C345.415 540.523 346.104 541.25 346.597 542.227C347.089 543.197 347.335 544.424 347.335 545.909V557H344.653V546.091C344.653 544.72 344.297 543.652 343.585 542.886C342.873 542.114 341.896 541.727 340.653 541.727C339.797 541.727 339.032 541.913 338.358 542.284C337.691 542.655 337.165 543.197 336.778 543.909C336.392 544.621 336.199 545.485 336.199 546.5ZM352.236 557V539.545H354.918V557H352.236ZM353.599 536.636C353.077 536.636 352.626 536.458 352.247 536.102C351.876 535.746 351.69 535.318 351.69 534.818C351.69 534.318 351.876 533.89 352.247 533.534C352.626 533.178 353.077 533 353.599 533C354.122 533 354.569 533.178 354.94 533.534C355.319 533.89 355.509 534.318 355.509 534.818C355.509 535.318 355.319 535.746 354.94 536.102C354.569 536.458 354.122 536.636 353.599 536.636ZM362.511 546.5V557H359.83V539.545H362.42V542.273H362.648C363.057 541.386 363.678 540.674 364.511 540.136C365.345 539.591 366.42 539.318 367.739 539.318C368.92 539.318 369.955 539.561 370.841 540.045C371.727 540.523 372.417 541.25 372.909 542.227C373.402 543.197 373.648 544.424 373.648 545.909V557H370.966V546.091C370.966 544.72 370.61 543.652 369.898 542.886C369.186 542.114 368.208 541.727 366.966 541.727C366.11 541.727 365.345 541.913 364.67 542.284C364.004 542.655 363.477 543.197 363.091 543.909C362.705 544.621 362.511 545.485 362.511 546.5ZM385.594 563.909C384.298 563.909 383.185 563.742 382.253 563.409C381.321 563.083 380.545 562.652 379.923 562.114C379.31 561.583 378.821 561.015 378.457 560.409L380.594 558.909C380.836 559.227 381.143 559.591 381.514 560C381.885 560.417 382.393 560.777 383.037 561.08C383.688 561.39 384.541 561.545 385.594 561.545C387.003 561.545 388.166 561.205 389.082 560.523C389.999 559.841 390.457 558.773 390.457 557.318V553.773H390.23C390.033 554.091 389.753 554.485 389.389 554.955C389.033 555.417 388.518 555.83 387.844 556.193C387.177 556.549 386.276 556.727 385.139 556.727C383.73 556.727 382.465 556.394 381.344 555.727C380.23 555.061 379.348 554.091 378.696 552.818C378.052 551.545 377.73 550 377.73 548.182C377.73 546.394 378.045 544.837 378.673 543.511C379.302 542.178 380.177 541.148 381.298 540.42C382.42 539.686 383.715 539.318 385.185 539.318C386.321 539.318 387.223 539.508 387.889 539.886C388.563 540.258 389.079 540.682 389.435 541.159C389.798 541.629 390.079 542.015 390.276 542.318H390.548V539.545H393.139V557.5C393.139 559 392.798 560.22 392.116 561.159C391.442 562.106 390.533 562.799 389.389 563.239C388.253 563.686 386.988 563.909 385.594 563.909ZM385.503 554.318C386.579 554.318 387.488 554.072 388.23 553.58C388.973 553.087 389.537 552.379 389.923 551.455C390.31 550.53 390.503 549.424 390.503 548.136C390.503 546.879 390.313 545.769 389.935 544.807C389.556 543.845 388.995 543.091 388.253 542.545C387.51 542 386.594 541.727 385.503 541.727C384.366 541.727 383.42 542.015 382.662 542.591C381.912 543.167 381.348 543.939 380.969 544.909C380.598 545.879 380.412 546.955 380.412 548.136C380.412 549.348 380.601 550.42 380.98 551.352C381.366 552.277 381.935 553.004 382.685 553.534C383.442 554.057 384.382 554.318 385.503 554.318Z" fill="black"/>
<path d="M984.07 507.727L990.979 527.318H991.251L998.161 507.727H1001.12L992.57 531H989.661L981.115 507.727H984.07ZM1009.84 531.364C1008.27 531.364 1006.88 530.989 1005.69 530.239C1004.51 529.489 1003.59 528.439 1002.92 527.091C1002.26 525.742 1001.93 524.167 1001.93 522.364C1001.93 520.545 1002.26 518.958 1002.92 517.602C1003.59 516.246 1004.51 515.193 1005.69 514.443C1006.88 513.693 1008.27 513.318 1009.84 513.318C1011.42 513.318 1012.8 513.693 1013.98 514.443C1015.17 515.193 1016.09 516.246 1016.75 517.602C1017.42 518.958 1017.75 520.545 1017.75 522.364C1017.75 524.167 1017.42 525.742 1016.75 527.091C1016.09 528.439 1015.17 529.489 1013.98 530.239C1012.8 530.989 1011.42 531.364 1009.84 531.364ZM1009.84 528.955C1011.04 528.955 1012.02 528.648 1012.8 528.034C1013.57 527.42 1014.14 526.614 1014.51 525.614C1014.88 524.614 1015.07 523.53 1015.07 522.364C1015.07 521.197 1014.88 520.11 1014.51 519.102C1014.14 518.095 1013.57 517.28 1012.8 516.659C1012.02 516.038 1011.04 515.727 1009.84 515.727C1008.65 515.727 1007.66 516.038 1006.89 516.659C1006.12 517.28 1005.54 518.095 1005.17 519.102C1004.8 520.11 1004.62 521.197 1004.62 522.364C1004.62 523.53 1004.8 524.614 1005.17 525.614C1005.54 526.614 1006.12 527.42 1006.89 528.034C1007.66 528.648 1008.65 528.955 1009.84 528.955ZM1029.44 513.545V515.818H1020.39V513.545H1029.44ZM1023.03 509.364H1025.71V526C1025.71 526.758 1025.82 527.326 1026.04 527.705C1026.27 528.076 1026.55 528.326 1026.9 528.455C1027.26 528.576 1027.63 528.636 1028.03 528.636C1028.32 528.636 1028.56 528.621 1028.75 528.591C1028.94 528.553 1029.1 528.523 1029.21 528.5L1029.75 530.909C1029.57 530.977 1029.32 531.045 1028.99 531.114C1028.67 531.189 1028.25 531.227 1027.75 531.227C1027 531.227 1026.25 531.064 1025.53 530.739C1024.81 530.413 1024.21 529.917 1023.73 529.25C1023.26 528.583 1023.03 527.742 1023.03 526.727V509.364ZM1033.47 531V513.545H1036.06V516.182H1036.24C1036.56 515.318 1037.14 514.617 1037.97 514.08C1038.8 513.542 1039.74 513.273 1040.79 513.273C1040.99 513.273 1041.23 513.277 1041.53 513.284C1041.82 513.292 1042.05 513.303 1042.2 513.318V516.045C1042.11 516.023 1041.9 515.989 1041.57 515.943C1041.25 515.89 1040.92 515.864 1040.56 515.864C1039.71 515.864 1038.96 516.042 1038.29 516.398C1037.63 516.746 1037.11 517.231 1036.72 517.852C1036.34 518.466 1036.15 519.167 1036.15 519.955V531H1033.47ZM1052.16 531.364C1050.48 531.364 1049.03 530.992 1047.81 530.25C1046.6 529.5 1045.66 528.455 1045 527.114C1044.35 525.765 1044.03 524.197 1044.03 522.409C1044.03 520.621 1044.35 519.045 1045 517.682C1045.66 516.311 1046.58 515.242 1047.75 514.477C1048.94 513.705 1050.31 513.318 1051.89 513.318C1052.8 513.318 1053.7 513.47 1054.58 513.773C1055.47 514.076 1056.28 514.568 1057 515.25C1057.73 515.924 1058.31 516.818 1058.74 517.932C1059.17 519.045 1059.39 520.417 1059.39 522.045V523.182H1045.94V520.864H1056.66C1056.66 519.879 1056.47 519 1056.07 518.227C1055.69 517.455 1055.13 516.845 1054.41 516.398C1053.7 515.951 1052.86 515.727 1051.89 515.727C1050.82 515.727 1049.9 515.992 1049.12 516.523C1048.35 517.045 1047.75 517.727 1047.33 518.568C1046.92 519.409 1046.71 520.311 1046.71 521.273V522.818C1046.71 524.136 1046.94 525.254 1047.39 526.17C1047.85 527.08 1048.49 527.773 1049.31 528.25C1050.13 528.72 1051.08 528.955 1052.16 528.955C1052.87 528.955 1053.5 528.856 1054.07 528.659C1054.65 528.455 1055.14 528.152 1055.56 527.75C1055.98 527.341 1056.3 526.833 1056.53 526.227L1059.12 526.955C1058.85 527.833 1058.39 528.606 1057.74 529.273C1057.1 529.932 1056.3 530.447 1055.36 530.818C1054.41 531.182 1053.35 531.364 1052.16 531.364ZM1079.79 531.364C1078.11 531.364 1076.66 530.992 1075.44 530.25C1074.22 529.5 1073.29 528.455 1072.63 527.114C1071.98 525.765 1071.65 524.197 1071.65 522.409C1071.65 520.621 1071.98 519.045 1072.63 517.682C1073.29 516.311 1074.21 515.242 1075.38 514.477C1076.56 513.705 1077.94 513.318 1079.52 513.318C1080.42 513.318 1081.32 513.47 1082.21 513.773C1083.1 514.076 1083.9 514.568 1084.63 515.25C1085.36 515.924 1085.94 516.818 1086.37 517.932C1086.8 519.045 1087.02 520.417 1087.02 522.045V523.182H1073.56V520.864H1084.29C1084.29 519.879 1084.09 519 1083.7 518.227C1083.31 517.455 1082.76 516.845 1082.04 516.398C1081.33 515.951 1080.49 515.727 1079.52 515.727C1078.45 515.727 1077.52 515.992 1076.74 516.523C1075.97 517.045 1075.38 517.727 1074.96 518.568C1074.54 519.409 1074.33 520.311 1074.33 521.273V522.818C1074.33 524.136 1074.56 525.254 1075.02 526.17C1075.48 527.08 1076.12 527.773 1076.94 528.25C1077.75 528.72 1078.71 528.955 1079.79 528.955C1080.49 528.955 1081.13 528.856 1081.7 528.659C1082.27 528.455 1082.77 528.152 1083.19 527.75C1083.6 527.341 1083.92 526.833 1084.15 526.227L1086.74 526.955C1086.47 527.833 1086.01 528.606 1085.37 529.273C1084.72 529.932 1083.93 530.447 1082.98 530.818C1082.03 531.182 1080.97 531.364 1079.79 531.364ZM1091.1 531V513.545H1093.69V516.273H1093.91C1094.28 515.341 1094.86 514.617 1095.67 514.102C1096.49 513.58 1097.46 513.318 1098.6 513.318C1099.75 513.318 1100.71 513.58 1101.47 514.102C1102.24 514.617 1102.85 515.341 1103.28 516.273H1103.46C1103.91 515.371 1104.58 514.655 1105.47 514.125C1106.36 513.587 1107.44 513.318 1108.69 513.318C1110.25 513.318 1111.52 513.807 1112.52 514.784C1113.51 515.754 1114 517.265 1114 519.318V531H1111.32V519.318C1111.32 518.03 1110.97 517.11 1110.27 516.557C1109.56 516.004 1108.73 515.727 1107.78 515.727C1106.55 515.727 1105.6 516.098 1104.92 516.841C1104.25 517.576 1103.91 518.508 1103.91 519.636V531H1101.19V519.045C1101.19 518.053 1100.86 517.254 1100.22 516.648C1099.58 516.034 1098.75 515.727 1097.73 515.727C1097.03 515.727 1096.38 515.913 1095.78 516.284C1095.18 516.655 1094.69 517.17 1094.32 517.83C1093.96 518.481 1093.78 519.235 1093.78 520.091V531H1091.1ZM1118.91 537.545V513.545H1121.5V516.318H1121.82C1122.01 516.015 1122.29 515.629 1122.63 515.159C1122.99 514.682 1123.5 514.258 1124.16 513.886C1124.82 513.508 1125.73 513.318 1126.86 513.318C1128.33 513.318 1129.63 513.686 1130.75 514.42C1131.87 515.155 1132.74 516.197 1133.37 517.545C1134 518.894 1134.32 520.485 1134.32 522.318C1134.32 524.167 1134 525.769 1133.37 527.125C1132.74 528.473 1131.87 529.519 1130.76 530.261C1129.65 530.996 1128.36 531.364 1126.91 531.364C1125.79 531.364 1124.89 531.178 1124.21 530.807C1123.54 530.428 1123.02 530 1122.66 529.523C1122.29 529.038 1122.01 528.636 1121.82 528.318H1121.59V537.545H1118.91ZM1121.54 522.273C1121.54 523.591 1121.74 524.754 1122.12 525.761C1122.51 526.761 1123.07 527.545 1123.82 528.114C1124.56 528.674 1125.47 528.955 1126.54 528.955C1127.67 528.955 1128.6 528.659 1129.35 528.068C1130.11 527.47 1130.68 526.667 1131.06 525.659C1131.44 524.644 1131.63 523.515 1131.63 522.273C1131.63 521.045 1131.45 519.939 1131.07 518.955C1130.7 517.962 1130.13 517.178 1129.37 516.602C1128.62 516.019 1127.68 515.727 1126.54 515.727C1125.45 515.727 1124.54 516.004 1123.79 516.557C1123.05 517.102 1122.49 517.867 1122.11 518.852C1121.73 519.83 1121.54 520.97 1121.54 522.273ZM1141.09 507.727V531H1138.41V507.727H1141.09ZM1153.09 531.364C1151.52 531.364 1150.13 530.989 1148.94 530.239C1147.76 529.489 1146.84 528.439 1146.17 527.091C1145.51 525.742 1145.18 524.167 1145.18 522.364C1145.18 520.545 1145.51 518.958 1146.17 517.602C1146.84 516.246 1147.76 515.193 1148.94 514.443C1150.13 513.693 1151.52 513.318 1153.09 513.318C1154.67 513.318 1156.05 513.693 1157.23 514.443C1158.42 515.193 1159.34 516.246 1160 517.602C1160.67 518.958 1161 520.545 1161 522.364C1161 524.167 1160.67 525.742 1160 527.091C1159.34 528.439 1158.42 529.489 1157.23 530.239C1156.05 530.989 1154.67 531.364 1153.09 531.364ZM1153.09 528.955C1154.29 528.955 1155.27 528.648 1156.05 528.034C1156.82 527.42 1157.39 526.614 1157.76 525.614C1158.13 524.614 1158.32 523.53 1158.32 522.364C1158.32 521.197 1158.13 520.11 1157.76 519.102C1157.39 518.095 1156.82 517.28 1156.05 516.659C1155.27 516.038 1154.29 515.727 1153.09 515.727C1151.9 515.727 1150.91 516.038 1150.14 516.659C1149.37 517.28 1148.79 518.095 1148.42 519.102C1148.05 520.11 1147.87 521.197 1147.87 522.364C1147.87 523.53 1148.05 524.614 1148.42 525.614C1148.79 526.614 1149.37 527.42 1150.14 528.034C1150.91 528.648 1151.9 528.955 1153.09 528.955ZM1165.1 531V513.545H1167.78V531H1165.1ZM1166.46 510.636C1165.94 510.636 1165.49 510.458 1165.11 510.102C1164.74 509.746 1164.55 509.318 1164.55 508.818C1164.55 508.318 1164.74 507.89 1165.11 507.534C1165.49 507.178 1165.94 507 1166.46 507C1166.98 507 1167.43 507.178 1167.8 507.534C1168.18 507.89 1168.37 508.318 1168.37 508.818C1168.37 509.318 1168.18 509.746 1167.8 510.102C1167.43 510.458 1166.98 510.636 1166.46 510.636ZM1188.28 531.364C1186.83 531.364 1185.54 530.996 1184.43 530.261C1183.31 529.519 1182.44 528.473 1181.81 527.125C1181.19 525.769 1180.87 524.167 1180.87 522.318C1180.87 520.485 1181.19 518.894 1181.81 517.545C1182.44 516.197 1183.32 515.155 1184.44 514.42C1185.56 513.686 1186.86 513.318 1188.33 513.318C1189.46 513.318 1190.36 513.508 1191.02 513.886C1191.69 514.258 1192.19 514.682 1192.54 515.159C1192.9 515.629 1193.17 516.015 1193.37 516.318H1193.6V507.727H1196.28V531H1193.69V528.318H1193.37C1193.17 528.636 1192.89 529.038 1192.53 529.523C1192.17 530 1191.65 530.428 1190.97 530.807C1190.3 531.178 1189.4 531.364 1188.28 531.364ZM1188.64 528.955C1189.72 528.955 1190.63 528.674 1191.37 528.114C1192.11 527.545 1192.68 526.761 1193.06 525.761C1193.45 524.754 1193.64 523.591 1193.64 522.273C1193.64 520.97 1193.45 519.83 1193.08 518.852C1192.7 517.867 1192.14 517.102 1191.39 516.557C1190.65 516.004 1189.73 515.727 1188.64 515.727C1187.51 515.727 1186.56 516.019 1185.8 516.602C1185.05 517.178 1184.49 517.962 1184.11 518.955C1183.74 519.939 1183.55 521.045 1183.55 522.273C1183.55 523.515 1183.74 524.644 1184.12 525.659C1184.51 526.667 1185.08 527.47 1185.83 528.068C1186.58 528.659 1187.52 528.955 1188.64 528.955ZM1212.56 523.864V513.545H1215.25V531H1212.56V528.045H1212.38C1211.97 528.932 1211.34 529.686 1210.47 530.307C1209.61 530.92 1208.52 531.227 1207.2 531.227C1206.11 531.227 1205.14 530.989 1204.29 530.511C1203.44 530.027 1202.78 529.299 1202.29 528.33C1201.81 527.352 1201.56 526.121 1201.56 524.636V513.545H1204.25V524.455C1204.25 525.727 1204.6 526.742 1205.31 527.5C1206.03 528.258 1206.95 528.636 1208.06 528.636C1208.73 528.636 1209.41 528.466 1210.1 528.125C1210.79 527.784 1211.38 527.261 1211.85 526.557C1212.33 525.852 1212.56 524.955 1212.56 523.864ZM1062 552.545V554.818H1052.95V552.545H1062ZM1055.59 548.364H1058.27V565C1058.27 565.758 1058.38 566.326 1058.6 566.705C1058.83 567.076 1059.12 567.326 1059.46 567.455C1059.82 567.576 1060.2 567.636 1060.59 567.636C1060.88 567.636 1061.13 567.621 1061.32 567.591C1061.51 567.553 1061.66 567.523 1061.77 567.5L1062.32 569.909C1062.13 569.977 1061.88 570.045 1061.56 570.114C1061.23 570.189 1060.82 570.227 1060.32 570.227C1059.56 570.227 1058.82 570.064 1058.09 569.739C1057.37 569.413 1056.77 568.917 1056.29 568.25C1055.82 567.583 1055.59 566.742 1055.59 565.727V548.364ZM1073.16 570.364C1071.48 570.364 1070.03 569.992 1068.81 569.25C1067.6 568.5 1066.66 567.455 1066 566.114C1065.35 564.765 1065.03 563.197 1065.03 561.409C1065.03 559.621 1065.35 558.045 1066 556.682C1066.66 555.311 1067.58 554.242 1068.75 553.477C1069.94 552.705 1071.31 552.318 1072.89 552.318C1073.8 552.318 1074.7 552.47 1075.58 552.773C1076.47 553.076 1077.28 553.568 1078 554.25C1078.73 554.924 1079.31 555.818 1079.74 556.932C1080.17 558.045 1080.39 559.417 1080.39 561.045V562.182H1066.94V559.864H1077.66C1077.66 558.879 1077.47 558 1077.07 557.227C1076.69 556.455 1076.13 555.845 1075.41 555.398C1074.7 554.951 1073.86 554.727 1072.89 554.727C1071.82 554.727 1070.9 554.992 1070.12 555.523C1069.35 556.045 1068.75 556.727 1068.33 557.568C1067.92 558.409 1067.71 559.311 1067.71 560.273V561.818C1067.71 563.136 1067.94 564.254 1068.39 565.17C1068.85 566.08 1069.49 566.773 1070.31 567.25C1071.13 567.72 1072.08 567.955 1073.16 567.955C1073.87 567.955 1074.5 567.856 1075.07 567.659C1075.65 567.455 1076.14 567.152 1076.56 566.75C1076.98 566.341 1077.3 565.833 1077.53 565.227L1080.12 565.955C1079.85 566.833 1079.39 567.606 1078.74 568.273C1078.1 568.932 1077.3 569.447 1076.36 569.818C1075.41 570.182 1074.35 570.364 1073.16 570.364ZM1084.47 570V552.545H1087.06V555.273H1087.29C1087.65 554.341 1088.24 553.617 1089.05 553.102C1089.86 552.58 1090.83 552.318 1091.97 552.318C1093.12 552.318 1094.08 552.58 1094.85 553.102C1095.62 553.617 1096.22 554.341 1096.65 555.273H1096.83C1097.28 554.371 1097.95 553.655 1098.85 553.125C1099.74 552.587 1100.81 552.318 1102.06 552.318C1103.62 552.318 1104.9 552.807 1105.89 553.784C1106.88 554.754 1107.38 556.265 1107.38 558.318V570H1104.7V558.318C1104.7 557.03 1104.35 556.11 1103.64 555.557C1102.94 555.004 1102.11 554.727 1101.15 554.727C1099.92 554.727 1098.97 555.098 1098.3 555.841C1097.63 556.576 1097.29 557.508 1097.29 558.636V570H1094.56V558.045C1094.56 557.053 1094.24 556.254 1093.6 555.648C1092.95 555.034 1092.12 554.727 1091.11 554.727C1090.41 554.727 1089.76 554.913 1089.15 555.284C1088.55 555.655 1088.07 556.17 1087.7 556.83C1087.33 557.481 1087.15 558.235 1087.15 559.091V570H1084.47ZM1112.28 576.545V552.545H1114.87V555.318H1115.19C1115.39 555.015 1115.66 554.629 1116.01 554.159C1116.37 553.682 1116.87 553.258 1117.53 552.886C1118.2 552.508 1119.1 552.318 1120.24 552.318C1121.71 552.318 1123 552.686 1124.12 553.42C1125.24 554.155 1126.12 555.197 1126.75 556.545C1127.38 557.894 1127.69 559.485 1127.69 561.318C1127.69 563.167 1127.38 564.769 1126.75 566.125C1126.12 567.473 1125.25 568.519 1124.13 569.261C1123.02 569.996 1121.74 570.364 1120.28 570.364C1119.16 570.364 1118.26 570.178 1117.59 569.807C1116.92 569.428 1116.4 569 1116.03 568.523C1115.67 568.038 1115.39 567.636 1115.19 567.318H1114.96V576.545H1112.28ZM1114.92 561.273C1114.92 562.591 1115.11 563.754 1115.5 564.761C1115.88 565.761 1116.45 566.545 1117.19 567.114C1117.93 567.674 1118.84 567.955 1119.92 567.955C1121.04 567.955 1121.98 567.659 1122.73 567.068C1123.48 566.47 1124.05 565.667 1124.43 564.659C1124.82 563.644 1125.01 562.515 1125.01 561.273C1125.01 560.045 1124.82 558.939 1124.44 557.955C1124.07 556.962 1123.51 556.178 1122.75 555.602C1122 555.019 1121.06 554.727 1119.92 554.727C1118.83 554.727 1117.91 555.004 1117.17 555.557C1116.43 556.102 1115.87 556.867 1115.49 557.852C1115.11 558.83 1114.92 559.97 1114.92 561.273ZM1144.15 556.455L1141.74 557.136C1141.59 556.735 1141.36 556.345 1141.07 555.966C1140.78 555.58 1140.38 555.261 1139.88 555.011C1139.38 554.761 1138.74 554.636 1137.96 554.636C1136.9 554.636 1136.01 554.883 1135.29 555.375C1134.59 555.86 1134.24 556.477 1134.24 557.227C1134.24 557.894 1134.48 558.42 1134.96 558.807C1135.45 559.193 1136.21 559.515 1137.24 559.773L1139.83 560.409C1141.39 560.788 1142.55 561.367 1143.32 562.148C1144.08 562.92 1144.46 563.917 1144.46 565.136C1144.46 566.136 1144.18 567.03 1143.6 567.818C1143.03 568.606 1142.24 569.227 1141.21 569.682C1140.19 570.136 1139 570.364 1137.65 570.364C1135.87 570.364 1134.39 569.977 1133.23 569.205C1132.06 568.432 1131.32 567.303 1131.01 565.818L1133.56 565.182C1133.8 566.121 1134.26 566.826 1134.93 567.295C1135.61 567.765 1136.5 568 1137.6 568C1138.85 568 1139.84 567.735 1140.58 567.205C1141.32 566.667 1141.69 566.023 1141.69 565.273C1141.69 564.667 1141.48 564.159 1141.06 563.75C1140.63 563.333 1139.98 563.023 1139.1 562.818L1136.19 562.136C1134.59 561.758 1133.42 561.17 1132.67 560.375C1131.93 559.572 1131.56 558.568 1131.56 557.364C1131.56 556.379 1131.83 555.508 1132.38 554.75C1132.95 553.992 1133.71 553.398 1134.67 552.966C1135.64 552.534 1136.74 552.318 1137.96 552.318C1139.69 552.318 1141.05 552.697 1142.03 553.455C1143.03 554.212 1143.73 555.212 1144.15 556.455Z" fill="black"/>
<path d="M1153.42 136.5V147H1150.74V129.545H1153.33V132.273H1153.55C1153.96 131.386 1154.58 130.674 1155.42 130.136C1156.25 129.591 1157.33 129.318 1158.64 129.318C1159.83 129.318 1160.86 129.561 1161.75 130.045C1162.63 130.523 1163.32 131.25 1163.82 132.227C1164.31 133.197 1164.55 134.424 1164.55 135.909V147H1161.87V136.091C1161.87 134.72 1161.52 133.652 1160.8 132.886C1160.09 132.114 1159.11 131.727 1157.87 131.727C1157.02 131.727 1156.25 131.913 1155.58 132.284C1154.91 132.655 1154.38 133.197 1154 133.909C1153.61 134.621 1153.42 135.485 1153.42 136.5ZM1176.55 147.364C1174.97 147.364 1173.59 146.989 1172.4 146.239C1171.22 145.489 1170.29 144.439 1169.62 143.091C1168.97 141.742 1168.64 140.167 1168.64 138.364C1168.64 136.545 1168.97 134.958 1169.62 133.602C1170.29 132.246 1171.22 131.193 1172.4 130.443C1173.59 129.693 1174.97 129.318 1176.55 129.318C1178.12 129.318 1179.5 129.693 1180.68 130.443C1181.87 131.193 1182.8 132.246 1183.45 133.602C1184.12 134.958 1184.45 136.545 1184.45 138.364C1184.45 140.167 1184.12 141.742 1183.45 143.091C1182.8 144.439 1181.87 145.489 1180.68 146.239C1179.5 146.989 1178.12 147.364 1176.55 147.364ZM1176.55 144.955C1177.74 144.955 1178.73 144.648 1179.5 144.034C1180.27 143.42 1180.84 142.614 1181.22 141.614C1181.59 140.614 1181.77 139.53 1181.77 138.364C1181.77 137.197 1181.59 136.11 1181.22 135.102C1180.84 134.095 1180.27 133.28 1179.5 132.659C1178.73 132.038 1177.74 131.727 1176.55 131.727C1175.35 131.727 1174.36 132.038 1173.59 132.659C1172.82 133.28 1172.25 134.095 1171.88 135.102C1171.5 136.11 1171.32 137.197 1171.32 138.364C1171.32 139.53 1171.5 140.614 1171.88 141.614C1172.25 142.614 1172.82 143.42 1173.59 144.034C1174.36 144.648 1175.35 144.955 1176.55 144.955ZM1188.55 147V129.545H1191.14V132.273H1191.37C1191.73 131.341 1192.32 130.617 1193.13 130.102C1193.94 129.58 1194.91 129.318 1196.05 129.318C1197.2 129.318 1198.16 129.58 1198.92 130.102C1199.7 130.617 1200.3 131.341 1200.73 132.273H1200.91C1201.36 131.371 1202.03 130.655 1202.92 130.125C1203.82 129.587 1204.89 129.318 1206.14 129.318C1207.7 129.318 1208.98 129.807 1209.97 130.784C1210.96 131.754 1211.46 133.265 1211.46 135.318V147H1208.78V135.318C1208.78 134.03 1208.42 133.11 1207.72 132.557C1207.01 132.004 1206.18 131.727 1205.23 131.727C1204 131.727 1203.05 132.098 1202.38 132.841C1201.7 133.576 1201.37 134.508 1201.37 135.636V147H1198.64V135.045C1198.64 134.053 1198.32 133.254 1197.67 132.648C1197.03 132.034 1196.2 131.727 1195.18 131.727C1194.49 131.727 1193.84 131.913 1193.23 132.284C1192.63 132.655 1192.15 133.17 1191.78 133.83C1191.41 134.481 1191.23 135.235 1191.23 136.091V147H1188.55ZM1231.95 147.364C1230.5 147.364 1229.21 146.996 1228.1 146.261C1226.99 145.519 1226.11 144.473 1225.49 143.125C1224.86 141.769 1224.54 140.167 1224.54 138.318C1224.54 136.485 1224.86 134.894 1225.49 133.545C1226.11 132.197 1226.99 131.155 1228.11 130.42C1229.23 129.686 1230.53 129.318 1232 129.318C1233.13 129.318 1234.03 129.508 1234.69 129.886C1235.36 130.258 1235.86 130.682 1236.21 131.159C1236.57 131.629 1236.85 132.015 1237.04 132.318H1237.27V123.727H1239.95V147H1237.36V144.318H1237.04C1236.85 144.636 1236.57 145.038 1236.2 145.523C1235.84 146 1235.32 146.428 1234.64 146.807C1233.97 147.178 1233.07 147.364 1231.95 147.364ZM1232.32 144.955C1233.39 144.955 1234.3 144.674 1235.04 144.114C1235.79 143.545 1236.35 142.761 1236.74 141.761C1237.12 140.754 1237.32 139.591 1237.32 138.273C1237.32 136.97 1237.13 135.83 1236.75 134.852C1236.37 133.867 1235.81 133.102 1235.07 132.557C1234.32 132.004 1233.41 131.727 1232.32 131.727C1231.18 131.727 1230.23 132.019 1229.47 132.602C1228.72 133.178 1228.16 133.962 1227.78 134.955C1227.41 135.939 1227.22 137.045 1227.22 138.273C1227.22 139.515 1227.41 140.644 1227.79 141.659C1228.18 142.667 1228.75 143.47 1229.5 144.068C1230.25 144.659 1231.19 144.955 1232.32 144.955ZM1247.6 123.727V125.773C1247.6 126.394 1247.49 127.057 1247.26 127.761C1247.04 128.458 1246.71 129.136 1246.28 129.795C1245.86 130.447 1245.34 131.015 1244.74 131.5L1243.28 130.318C1243.76 129.636 1244.17 128.928 1244.52 128.193C1244.88 127.451 1245.05 126.659 1245.05 125.818V123.727H1247.6ZM1260.86 139.864V129.545H1263.54V147H1260.86V144.045H1260.68C1260.27 144.932 1259.63 145.686 1258.77 146.307C1257.91 146.92 1256.82 147.227 1255.5 147.227C1254.41 147.227 1253.44 146.989 1252.59 146.511C1251.74 146.027 1251.07 145.299 1250.59 144.33C1250.1 143.352 1249.86 142.121 1249.86 140.636V129.545H1252.54V140.455C1252.54 141.727 1252.9 142.742 1253.61 143.5C1254.33 144.258 1255.25 144.636 1256.36 144.636C1257.03 144.636 1257.71 144.466 1258.39 144.125C1259.09 143.784 1259.68 143.261 1260.14 142.557C1260.62 141.852 1260.86 140.955 1260.86 139.864ZM1276.05 129.545V131.818H1267V129.545H1276.05ZM1269.64 125.364H1272.32V142C1272.32 142.758 1272.43 143.326 1272.65 143.705C1272.88 144.076 1273.16 144.326 1273.51 144.455C1273.87 144.576 1274.24 144.636 1274.64 144.636C1274.93 144.636 1275.17 144.621 1275.36 144.591C1275.55 144.553 1275.7 144.523 1275.82 144.5L1276.36 146.909C1276.18 146.977 1275.93 147.045 1275.6 147.114C1275.28 147.189 1274.86 147.227 1274.36 147.227C1273.61 147.227 1272.86 147.064 1272.14 146.739C1271.42 146.413 1270.82 145.917 1270.34 145.25C1269.87 144.583 1269.64 143.742 1269.64 142.727V125.364ZM1280.08 147V129.545H1282.76V147H1280.08ZM1281.44 126.636C1280.92 126.636 1280.47 126.458 1280.09 126.102C1279.72 125.746 1279.53 125.318 1279.53 124.818C1279.53 124.318 1279.72 123.89 1280.09 123.534C1280.47 123.178 1280.92 123 1281.44 123C1281.97 123 1282.41 123.178 1282.78 123.534C1283.16 123.89 1283.35 124.318 1283.35 124.818C1283.35 125.318 1283.16 125.746 1282.78 126.102C1282.41 126.458 1281.97 126.636 1281.44 126.636ZM1290.36 123.727V147H1287.67V123.727H1290.36ZM1295.27 147V129.545H1297.95V147H1295.27ZM1296.63 126.636C1296.11 126.636 1295.66 126.458 1295.28 126.102C1294.91 125.746 1294.72 125.318 1294.72 124.818C1294.72 124.318 1294.91 123.89 1295.28 123.534C1295.66 123.178 1296.11 123 1296.63 123C1297.15 123 1297.6 123.178 1297.97 123.534C1298.35 123.89 1298.54 124.318 1298.54 124.818C1298.54 125.318 1298.35 125.746 1297.97 126.102C1297.6 126.458 1297.15 126.636 1296.63 126.636ZM1315.22 133.455L1312.82 134.136C1312.66 133.735 1312.44 133.345 1312.14 132.966C1311.86 132.58 1311.46 132.261 1310.96 132.011C1310.46 131.761 1309.82 131.636 1309.04 131.636C1307.97 131.636 1307.08 131.883 1306.37 132.375C1305.67 132.86 1305.32 133.477 1305.32 134.227C1305.32 134.894 1305.56 135.42 1306.04 135.807C1306.53 136.193 1307.29 136.515 1308.32 136.773L1310.91 137.409C1312.47 137.788 1313.63 138.367 1314.39 139.148C1315.16 139.92 1315.54 140.917 1315.54 142.136C1315.54 143.136 1315.25 144.03 1314.68 144.818C1314.11 145.606 1313.32 146.227 1312.29 146.682C1311.27 147.136 1310.08 147.364 1308.72 147.364C1306.94 147.364 1305.47 146.977 1304.3 146.205C1303.14 145.432 1302.4 144.303 1302.09 142.818L1304.63 142.182C1304.88 143.121 1305.33 143.826 1306.01 144.295C1306.69 144.765 1307.58 145 1308.68 145C1309.93 145 1310.92 144.735 1311.66 144.205C1312.4 143.667 1312.77 143.023 1312.77 142.273C1312.77 141.667 1312.56 141.159 1312.13 140.75C1311.71 140.333 1311.06 140.023 1310.18 139.818L1307.27 139.136C1305.67 138.758 1304.5 138.17 1303.75 137.375C1303 136.572 1302.63 135.568 1302.63 134.364C1302.63 133.379 1302.91 132.508 1303.46 131.75C1304.02 130.992 1304.79 130.398 1305.75 129.966C1306.72 129.534 1307.82 129.318 1309.04 129.318C1310.77 129.318 1312.13 129.697 1313.11 130.455C1314.1 131.212 1314.81 132.212 1315.22 133.455ZM1324.72 147.409C1323.61 147.409 1322.61 147.201 1321.7 146.784C1320.8 146.36 1320.09 145.75 1319.56 144.955C1319.03 144.152 1318.76 143.182 1318.76 142.045C1318.76 141.045 1318.96 140.235 1319.35 139.614C1319.75 138.985 1320.27 138.492 1320.93 138.136C1321.59 137.78 1322.32 137.515 1323.11 137.341C1323.92 137.159 1324.72 137.015 1325.53 136.909C1326.59 136.773 1327.45 136.67 1328.11 136.602C1328.78 136.527 1329.27 136.402 1329.57 136.227C1329.88 136.053 1330.03 135.75 1330.03 135.318V135.227C1330.03 134.106 1329.73 133.235 1329.11 132.614C1328.51 131.992 1327.59 131.682 1326.35 131.682C1325.07 131.682 1324.07 131.962 1323.34 132.523C1322.61 133.083 1322.1 133.682 1321.81 134.318L1319.26 133.409C1319.72 132.348 1320.32 131.523 1321.08 130.932C1321.84 130.333 1322.68 129.917 1323.58 129.682C1324.49 129.439 1325.38 129.318 1326.26 129.318C1326.82 129.318 1327.47 129.386 1328.19 129.523C1328.93 129.652 1329.64 129.92 1330.32 130.33C1331.01 130.739 1331.58 131.356 1332.03 132.182C1332.49 133.008 1332.72 134.114 1332.72 135.5V147H1330.03V144.636H1329.9C1329.72 145.015 1329.41 145.42 1328.99 145.852C1328.56 146.284 1328 146.652 1327.3 146.955C1326.59 147.258 1325.73 147.409 1324.72 147.409ZM1325.12 145C1326.19 145 1327.08 144.792 1327.81 144.375C1328.54 143.958 1329.09 143.42 1329.47 142.761C1329.84 142.102 1330.03 141.409 1330.03 140.682V138.227C1329.92 138.364 1329.67 138.489 1329.28 138.602C1328.91 138.708 1328.47 138.803 1327.97 138.886C1327.47 138.962 1326.99 139.03 1326.52 139.091C1326.06 139.144 1325.69 139.189 1325.4 139.227C1324.7 139.318 1324.05 139.466 1323.44 139.67C1322.84 139.867 1322.36 140.167 1321.99 140.568C1321.63 140.962 1321.44 141.5 1321.44 142.182C1321.44 143.114 1321.79 143.818 1322.48 144.295C1323.17 144.765 1324.06 145 1325.12 145ZM1345.2 129.545V131.818H1336.16V129.545H1345.2ZM1338.79 125.364H1341.47V142C1341.47 142.758 1341.58 143.326 1341.8 143.705C1342.03 144.076 1342.32 144.326 1342.67 144.455C1343.02 144.576 1343.4 144.636 1343.79 144.636C1344.09 144.636 1344.33 144.621 1344.52 144.591C1344.71 144.553 1344.86 144.523 1344.97 144.5L1345.52 146.909C1345.34 146.977 1345.08 147.045 1344.76 147.114C1344.43 147.189 1344.02 147.227 1343.52 147.227C1342.76 147.227 1342.02 147.064 1341.29 146.739C1340.57 146.413 1339.97 145.917 1339.5 145.25C1339.03 144.583 1338.79 143.742 1338.79 142.727V125.364ZM1356.37 147.364C1354.68 147.364 1353.23 146.992 1352.01 146.25C1350.8 145.5 1349.87 144.455 1349.21 143.114C1348.56 141.765 1348.23 140.197 1348.23 138.409C1348.23 136.621 1348.56 135.045 1349.21 133.682C1349.87 132.311 1350.78 131.242 1351.96 130.477C1353.14 129.705 1354.52 129.318 1356.09 129.318C1357 129.318 1357.9 129.47 1358.79 129.773C1359.67 130.076 1360.48 130.568 1361.21 131.25C1361.93 131.924 1362.51 132.818 1362.95 133.932C1363.38 135.045 1363.59 136.417 1363.59 138.045V139.182H1350.14V136.864H1360.87C1360.87 135.879 1360.67 135 1360.28 134.227C1359.89 133.455 1359.34 132.845 1358.62 132.398C1357.9 131.951 1357.06 131.727 1356.09 131.727C1355.03 131.727 1354.1 131.992 1353.32 132.523C1352.55 133.045 1351.95 133.727 1351.54 134.568C1351.12 135.409 1350.91 136.311 1350.91 137.273V138.818C1350.91 140.136 1351.14 141.254 1351.59 142.17C1352.06 143.08 1352.7 143.773 1353.51 144.25C1354.33 144.72 1355.28 144.955 1356.37 144.955C1357.07 144.955 1357.71 144.856 1358.28 144.659C1358.85 144.455 1359.35 144.152 1359.76 143.75C1360.18 143.341 1360.5 142.833 1360.73 142.227L1363.32 142.955C1363.05 143.833 1362.59 144.606 1361.95 145.273C1361.3 145.932 1360.51 146.447 1359.56 146.818C1358.61 147.182 1357.55 147.364 1356.37 147.364ZM1378.67 139.864V129.545H1381.36V147H1378.67V144.045H1378.49C1378.08 144.932 1377.45 145.686 1376.58 146.307C1375.72 146.92 1374.63 147.227 1373.31 147.227C1372.22 147.227 1371.25 146.989 1370.4 146.511C1369.55 146.027 1368.89 145.299 1368.4 144.33C1367.92 143.352 1367.67 142.121 1367.67 140.636V129.545H1370.36V140.455C1370.36 141.727 1370.71 142.742 1371.42 143.5C1372.14 144.258 1373.06 144.636 1374.17 144.636C1374.84 144.636 1375.52 144.466 1376.21 144.125C1376.9 143.784 1377.49 143.261 1377.96 142.557C1378.43 141.852 1378.67 140.955 1378.67 139.864ZM1386.27 147V129.545H1388.86V132.182H1389.04C1389.36 131.318 1389.93 130.617 1390.77 130.08C1391.6 129.542 1392.54 129.273 1393.59 129.273C1393.78 129.273 1394.03 129.277 1394.32 129.284C1394.62 129.292 1394.84 129.303 1394.99 129.318V132.045C1394.9 132.023 1394.7 131.989 1394.37 131.943C1394.05 131.89 1393.71 131.864 1393.36 131.864C1392.51 131.864 1391.75 132.042 1391.09 132.398C1390.43 132.746 1389.9 133.231 1389.52 133.852C1389.14 134.466 1388.95 135.167 1388.95 135.955V147H1386.27Z" fill="black"/>
</g>
<defs>
<filter id="filter0_d_5_15" x="0" y="0" width="1448" height="1032" filterUnits="userSpaceOnUse" color-interpolation-filters="sRGB">
<feFlood flood-opacity="0" result="BackgroundImageFix"/>
<feColorMatrix in="SourceAlpha" type="matrix" values="0 0 0 0 0 0 0 0 0 0 0 0 0 0 0 0 0 0 127 0" result="hardAlpha"/>
<feOffset dy="4"/>
<feGaussianBlur stdDeviation="2"/>
<feComposite in2="hardAlpha" operator="out"/>
<feColorMatrix type="matrix" values="0 0 0 0 0 0 0 0 0 0 0 0 0 0 0 0 0 0 0.25 0"/>
<feBlend mode="normal" in2="BackgroundImageFix" result="effect1_dropShadow_5_15"/>
<feBlend mode="normal" in="SourceGraphic" in2="effect1_dropShadow_5_15" result="shape"/>
</filter>
</defs>
</svg>
