<svg width="1440" height="1024" viewBox="0 0 1440 1024" fill="none" xmlns="http://www.w3.org/2000/svg">
<g clip-path="url(#clip0_1_5)">
<rect width="1440" height="1024" fill="white"/>
<rect width="1440" height="110" fill="#D9D9D9"/>
<rect x="251" y="17" width="161" height="76" fill="#060202"/>
<path d="M269.724 67V43.7273H277.588C279.414 43.7273 280.906 44.0568 282.065 44.7159C283.232 45.3674 284.096 46.25 284.656 47.3636C285.217 48.4773 285.497 49.7197 285.497 51.0909C285.497 52.4621 285.217 53.7083 284.656 54.8295C284.103 55.9508 283.247 56.8447 282.088 57.5114C280.929 58.1705 279.444 58.5 277.634 58.5H271.997V56H277.543C278.793 56 279.796 55.7841 280.554 55.3523C281.312 54.9205 281.861 54.3371 282.202 53.6023C282.55 52.8598 282.724 52.0227 282.724 51.0909C282.724 50.1591 282.55 49.3258 282.202 48.5909C281.861 47.8561 281.308 47.2803 280.543 46.8636C279.777 46.4394 278.762 46.2273 277.497 46.2273H272.543V67H269.724ZM292.355 43.7273V67H289.673V43.7273H292.355ZM302.403 67.4091C301.297 67.4091 300.294 67.2008 299.392 66.7841C298.491 66.3598 297.775 65.75 297.244 64.9545C296.714 64.1515 296.449 63.1818 296.449 62.0455C296.449 61.0455 296.646 60.2348 297.04 59.6136C297.434 58.9848 297.96 58.4924 298.619 58.1364C299.278 57.7803 300.006 57.5152 300.801 57.3409C301.604 57.1591 302.411 57.0152 303.222 56.9091C304.282 56.7727 305.142 56.6705 305.801 56.6023C306.468 56.5265 306.953 56.4015 307.256 56.2273C307.566 56.053 307.722 55.75 307.722 55.3182V55.2273C307.722 54.1061 307.415 53.2348 306.801 52.6136C306.195 51.9924 305.275 51.6818 304.04 51.6818C302.759 51.6818 301.756 51.9621 301.028 52.5227C300.301 53.0833 299.79 53.6818 299.494 54.3182L296.949 53.4091C297.403 52.3485 298.009 51.5227 298.767 50.9318C299.532 50.3333 300.366 49.9167 301.267 49.6818C302.176 49.4394 303.07 49.3182 303.949 49.3182C304.509 49.3182 305.153 49.3864 305.881 49.5227C306.616 49.6515 307.324 49.9205 308.006 50.3295C308.695 50.7386 309.267 51.3561 309.722 52.1818C310.176 53.0076 310.403 54.1136 310.403 55.5V67H307.722V64.6364H307.585C307.403 65.0152 307.1 65.4205 306.676 65.8523C306.252 66.2841 305.688 66.6515 304.983 66.9545C304.278 67.2576 303.419 67.4091 302.403 67.4091ZM302.812 65C303.873 65 304.767 64.7917 305.494 64.375C306.229 63.9583 306.782 63.4205 307.153 62.7614C307.532 62.1023 307.722 61.4091 307.722 60.6818V58.2273C307.608 58.3636 307.358 58.4886 306.972 58.6023C306.593 58.7083 306.153 58.803 305.653 58.8864C305.161 58.9621 304.68 59.0303 304.21 59.0909C303.748 59.1439 303.373 59.1894 303.085 59.2273C302.388 59.3182 301.737 59.4659 301.131 59.6705C300.532 59.8674 300.047 60.1667 299.676 60.5682C299.313 60.9621 299.131 61.5 299.131 62.1818C299.131 63.1136 299.475 63.8182 300.165 64.2955C300.862 64.7652 301.744 65 302.812 65ZM317.98 56.5V67H315.298V49.5455H317.889V52.2727H318.116C318.526 51.3864 319.147 50.6742 319.98 50.1364C320.813 49.5909 321.889 49.3182 323.207 49.3182C324.389 49.3182 325.423 49.5606 326.31 50.0455C327.196 50.5227 327.885 51.25 328.378 52.2273C328.87 53.197 329.116 54.4242 329.116 55.9091V67H326.435V56.0909C326.435 54.7197 326.079 53.6515 325.366 52.8864C324.654 52.1136 323.677 51.7273 322.435 51.7273C321.579 51.7273 320.813 51.9129 320.139 52.2841C319.473 52.6553 318.946 53.197 318.56 53.9091C318.173 54.6212 317.98 55.4848 317.98 56.5ZM336.699 56.5V67H334.017V49.5455H336.608V52.2727H336.835C337.244 51.3864 337.866 50.6742 338.699 50.1364C339.532 49.5909 340.608 49.3182 341.926 49.3182C343.108 49.3182 344.142 49.5606 345.028 50.0455C345.915 50.5227 346.604 51.25 347.097 52.2273C347.589 53.197 347.835 54.4242 347.835 55.9091V67H345.153V56.0909C345.153 54.7197 344.797 53.6515 344.085 52.8864C343.373 52.1136 342.396 51.7273 341.153 51.7273C340.297 51.7273 339.532 51.9129 338.858 52.2841C338.191 52.6553 337.665 53.197 337.278 53.9091C336.892 54.6212 336.699 55.4848 336.699 56.5ZM352.736 67V49.5455H355.418V67H352.736ZM354.099 46.6364C353.577 46.6364 353.126 46.4583 352.747 46.1023C352.376 45.7462 352.19 45.3182 352.19 44.8182C352.19 44.3182 352.376 43.8902 352.747 43.5341C353.126 43.178 353.577 43 354.099 43C354.622 43 355.069 43.178 355.44 43.5341C355.819 43.8902 356.009 44.3182 356.009 44.8182C356.009 45.3182 355.819 45.7462 355.44 46.1023C355.069 46.4583 354.622 46.6364 354.099 46.6364ZM363.011 56.5V67H360.33V49.5455H362.92V52.2727H363.148C363.557 51.3864 364.178 50.6742 365.011 50.1364C365.845 49.5909 366.92 49.3182 368.239 49.3182C369.42 49.3182 370.455 49.5606 371.341 50.0455C372.227 50.5227 372.917 51.25 373.409 52.2273C373.902 53.197 374.148 54.4242 374.148 55.9091V67H371.466V56.0909C371.466 54.7197 371.11 53.6515 370.398 52.8864C369.686 52.1136 368.708 51.7273 367.466 51.7273C366.61 51.7273 365.845 51.9129 365.17 52.2841C364.504 52.6553 363.977 53.197 363.591 53.9091C363.205 54.6212 363.011 55.4848 363.011 56.5ZM386.094 73.9091C384.798 73.9091 383.685 73.7424 382.753 73.4091C381.821 73.0833 381.045 72.6515 380.423 72.1136C379.81 71.5833 379.321 71.0152 378.957 70.4091L381.094 68.9091C381.336 69.2273 381.643 69.5909 382.014 70C382.385 70.4167 382.893 70.7765 383.537 71.0795C384.188 71.3902 385.041 71.5455 386.094 71.5455C387.503 71.5455 388.666 71.2045 389.582 70.5227C390.499 69.8409 390.957 68.7727 390.957 67.3182V63.7727H390.73C390.533 64.0909 390.253 64.4848 389.889 64.9545C389.533 65.4167 389.018 65.8295 388.344 66.1932C387.677 66.5492 386.776 66.7273 385.639 66.7273C384.23 66.7273 382.965 66.3939 381.844 65.7273C380.73 65.0606 379.848 64.0909 379.196 62.8182C378.552 61.5455 378.23 60 378.23 58.1818C378.23 56.3939 378.545 54.8371 379.173 53.5114C379.802 52.178 380.677 51.1477 381.798 50.4205C382.92 49.6856 384.215 49.3182 385.685 49.3182C386.821 49.3182 387.723 49.5076 388.389 49.8864C389.063 50.2576 389.579 50.6818 389.935 51.1591C390.298 51.6288 390.579 52.0152 390.776 52.3182H391.048V49.5455H393.639V67.5C393.639 69 393.298 70.2197 392.616 71.1591C391.942 72.1061 391.033 72.7992 389.889 73.2386C388.753 73.6856 387.488 73.9091 386.094 73.9091ZM386.003 64.3182C387.079 64.3182 387.988 64.072 388.73 63.5795C389.473 63.0871 390.037 62.3788 390.423 61.4545C390.81 60.5303 391.003 59.4242 391.003 58.1364C391.003 56.8788 390.813 55.7689 390.435 54.8068C390.056 53.8447 389.495 53.0909 388.753 52.5455C388.01 52 387.094 51.7273 386.003 51.7273C384.866 51.7273 383.92 52.0152 383.162 52.5909C382.412 53.1667 381.848 53.9394 381.469 54.9091C381.098 55.8788 380.912 56.9545 380.912 58.1364C380.912 59.3485 381.101 60.4205 381.48 61.3523C381.866 62.2765 382.435 63.0038 383.185 63.5341C383.942 64.0568 384.882 64.3182 386.003 64.3182Z" fill="white"/>
<rect x="681" y="17" width="161" height="76" fill="#060202"/>
<path d="M706.327 51H703.509C703.342 50.1894 703.05 49.4773 702.634 48.8636C702.224 48.25 701.724 47.7348 701.134 47.3182C700.55 46.8939 699.902 46.5758 699.19 46.3636C698.478 46.1515 697.736 46.0455 696.963 46.0455C695.554 46.0455 694.277 46.4015 693.134 47.1136C691.997 47.8258 691.092 48.875 690.418 50.2614C689.751 51.6477 689.418 53.3485 689.418 55.3636C689.418 57.3788 689.751 59.0795 690.418 60.4659C691.092 61.8523 691.997 62.9015 693.134 63.6136C694.277 64.3258 695.554 64.6818 696.963 64.6818C697.736 64.6818 698.478 64.5758 699.19 64.3636C699.902 64.1515 700.55 63.8371 701.134 63.4205C701.724 62.9962 702.224 62.4773 702.634 61.8636C703.05 61.2424 703.342 60.5303 703.509 59.7273H706.327C706.115 60.9167 705.728 61.9811 705.168 62.9205C704.607 63.8598 703.91 64.6591 703.077 65.3182C702.243 65.9697 701.308 66.4659 700.27 66.8068C699.24 67.1477 698.137 67.3182 696.963 67.3182C694.978 67.3182 693.213 66.8333 691.668 65.8636C690.122 64.8939 688.906 63.5152 688.02 61.7273C687.134 59.9394 686.69 57.8182 686.69 55.3636C686.69 52.9091 687.134 50.7879 688.02 49C688.906 47.2121 690.122 45.8333 691.668 44.8636C693.213 43.8939 694.978 43.4091 696.963 43.4091C698.137 43.4091 699.24 43.5795 700.27 43.9205C701.308 44.2614 702.243 44.7614 703.077 45.4205C703.91 46.072 704.607 46.8674 705.168 47.8068C705.728 48.7386 706.115 49.803 706.327 51ZM715.653 67.4091C714.547 67.4091 713.544 67.2008 712.642 66.7841C711.741 66.3598 711.025 65.75 710.494 64.9545C709.964 64.1515 709.699 63.1818 709.699 62.0455C709.699 61.0455 709.896 60.2348 710.29 59.6136C710.684 58.9848 711.21 58.4924 711.869 58.1364C712.528 57.7803 713.256 57.5152 714.051 57.3409C714.854 57.1591 715.661 57.0152 716.472 56.9091C717.532 56.7727 718.392 56.6705 719.051 56.6023C719.718 56.5265 720.203 56.4015 720.506 56.2273C720.816 56.053 720.972 55.75 720.972 55.3182V55.2273C720.972 54.1061 720.665 53.2348 720.051 52.6136C719.445 51.9924 718.525 51.6818 717.29 51.6818C716.009 51.6818 715.006 51.9621 714.278 52.5227C713.551 53.0833 713.04 53.6818 712.744 54.3182L710.199 53.4091C710.653 52.3485 711.259 51.5227 712.017 50.9318C712.782 50.3333 713.616 49.9167 714.517 49.6818C715.426 49.4394 716.32 49.3182 717.199 49.3182C717.759 49.3182 718.403 49.3864 719.131 49.5227C719.866 49.6515 720.574 49.9205 721.256 50.3295C721.945 50.7386 722.517 51.3561 722.972 52.1818C723.426 53.0076 723.653 54.1136 723.653 55.5V67H720.972V64.6364H720.835C720.653 65.0152 720.35 65.4205 719.926 65.8523C719.502 66.2841 718.938 66.6515 718.233 66.9545C717.528 67.2576 716.669 67.4091 715.653 67.4091ZM716.062 65C717.123 65 718.017 64.7917 718.744 64.375C719.479 63.9583 720.032 63.4205 720.403 62.7614C720.782 62.1023 720.972 61.4091 720.972 60.6818V58.2273C720.858 58.3636 720.608 58.4886 720.222 58.6023C719.843 58.7083 719.403 58.803 718.903 58.8864C718.411 58.9621 717.93 59.0303 717.46 59.0909C716.998 59.1439 716.623 59.1894 716.335 59.2273C715.638 59.3182 714.987 59.4659 714.381 59.6705C713.782 59.8674 713.297 60.1667 712.926 60.5682C712.563 60.9621 712.381 61.5 712.381 62.1818C712.381 63.1136 712.725 63.8182 713.415 64.2955C714.112 64.7652 714.994 65 716.062 65ZM731.23 56.5V67H728.548V49.5455H731.139V52.2727H731.366C731.776 51.3864 732.397 50.6742 733.23 50.1364C734.063 49.5909 735.139 49.3182 736.457 49.3182C737.639 49.3182 738.673 49.5606 739.56 50.0455C740.446 50.5227 741.135 51.25 741.628 52.2273C742.12 53.197 742.366 54.4242 742.366 55.9091V67H739.685V56.0909C739.685 54.7197 739.329 53.6515 738.616 52.8864C737.904 52.1136 736.927 51.7273 735.685 51.7273C734.829 51.7273 734.063 51.9129 733.389 52.2841C732.723 52.6553 732.196 53.197 731.81 53.9091C731.423 54.6212 731.23 55.4848 731.23 56.5ZM753.858 67.3636C752.403 67.3636 751.119 66.9962 750.006 66.2614C748.892 65.5189 748.021 64.4735 747.392 63.125C746.763 61.7689 746.449 60.1667 746.449 58.3182C746.449 56.4848 746.763 54.8939 747.392 53.5455C748.021 52.197 748.896 51.1553 750.017 50.4205C751.138 49.6856 752.434 49.3182 753.903 49.3182C755.04 49.3182 755.938 49.5076 756.597 49.8864C757.263 50.2576 757.771 50.6818 758.119 51.1591C758.475 51.6288 758.752 52.0152 758.949 52.3182H759.176V43.7273H761.858V67H759.267V64.3182H758.949C758.752 64.6364 758.472 65.0379 758.108 65.5227C757.744 66 757.225 66.428 756.551 66.8068C755.877 67.178 754.979 67.3636 753.858 67.3636ZM754.222 64.9545C755.297 64.9545 756.206 64.6742 756.949 64.1136C757.691 63.5455 758.256 62.7614 758.642 61.7614C759.028 60.7538 759.222 59.5909 759.222 58.2727C759.222 56.9697 759.032 55.8295 758.653 54.8523C758.275 53.8674 757.714 53.1023 756.972 52.5568C756.229 52.0038 755.313 51.7273 754.222 51.7273C753.085 51.7273 752.138 52.0189 751.381 52.6023C750.631 53.178 750.066 53.9621 749.688 54.9545C749.316 55.9394 749.131 57.0455 749.131 58.2727C749.131 59.5152 749.32 60.6439 749.699 61.6591C750.085 62.6667 750.653 63.4697 751.403 64.0682C752.161 64.6591 753.1 64.9545 754.222 64.9545ZM767.142 67V49.5455H769.824V67H767.142ZM768.506 46.6364C767.983 46.6364 767.532 46.4583 767.153 46.1023C766.782 45.7462 766.597 45.3182 766.597 44.8182C766.597 44.3182 766.782 43.8902 767.153 43.5341C767.532 43.178 767.983 43 768.506 43C769.028 43 769.475 43.178 769.847 43.5341C770.225 43.8902 770.415 44.3182 770.415 44.8182C770.415 45.3182 770.225 45.7462 769.847 46.1023C769.475 46.4583 769.028 46.6364 768.506 46.6364ZM781.327 67.3636C779.872 67.3636 778.588 66.9962 777.474 66.2614C776.361 65.5189 775.49 64.4735 774.861 63.125C774.232 61.7689 773.918 60.1667 773.918 58.3182C773.918 56.4848 774.232 54.8939 774.861 53.5455C775.49 52.197 776.365 51.1553 777.486 50.4205C778.607 49.6856 779.902 49.3182 781.372 49.3182C782.509 49.3182 783.406 49.5076 784.065 49.8864C784.732 50.2576 785.24 50.6818 785.588 51.1591C785.944 51.6288 786.221 52.0152 786.418 52.3182H786.645V43.7273H789.327V67H786.736V64.3182H786.418C786.221 64.6364 785.94 65.0379 785.577 65.5227C785.213 66 784.694 66.428 784.02 66.8068C783.346 67.178 782.448 67.3636 781.327 67.3636ZM781.69 64.9545C782.766 64.9545 783.675 64.6742 784.418 64.1136C785.16 63.5455 785.724 62.7614 786.111 61.7614C786.497 60.7538 786.69 59.5909 786.69 58.2727C786.69 56.9697 786.501 55.8295 786.122 54.8523C785.743 53.8674 785.183 53.1023 784.44 52.5568C783.698 52.0038 782.781 51.7273 781.69 51.7273C780.554 51.7273 779.607 52.0189 778.849 52.6023C778.099 53.178 777.535 53.9621 777.156 54.9545C776.785 55.9394 776.599 57.0455 776.599 58.2727C776.599 59.5152 776.789 60.6439 777.168 61.6591C777.554 62.6667 778.122 63.4697 778.872 64.0682C779.63 64.6591 780.569 64.9545 781.69 64.9545ZM799.747 67.4091C798.641 67.4091 797.637 67.2008 796.736 66.7841C795.834 66.3598 795.118 65.75 794.588 64.9545C794.058 64.1515 793.793 63.1818 793.793 62.0455C793.793 61.0455 793.99 60.2348 794.384 59.6136C794.777 58.9848 795.304 58.4924 795.963 58.1364C796.622 57.7803 797.349 57.5152 798.145 57.3409C798.948 57.1591 799.755 57.0152 800.565 56.9091C801.626 56.7727 802.486 56.6705 803.145 56.6023C803.812 56.5265 804.296 56.4015 804.599 56.2273C804.91 56.053 805.065 55.75 805.065 55.3182V55.2273C805.065 54.1061 804.759 53.2348 804.145 52.6136C803.539 51.9924 802.618 51.6818 801.384 51.6818C800.103 51.6818 799.099 51.9621 798.372 52.5227C797.645 53.0833 797.134 53.6818 796.838 54.3182L794.293 53.4091C794.747 52.3485 795.353 51.5227 796.111 50.9318C796.876 50.3333 797.709 49.9167 798.611 49.6818C799.52 49.4394 800.414 49.3182 801.293 49.3182C801.853 49.3182 802.497 49.3864 803.224 49.5227C803.959 49.6515 804.668 49.9205 805.349 50.3295C806.039 50.7386 806.611 51.3561 807.065 52.1818C807.52 53.0076 807.747 54.1136 807.747 55.5V67H805.065V64.6364H804.929C804.747 65.0152 804.444 65.4205 804.02 65.8523C803.596 66.2841 803.031 66.6515 802.327 66.9545C801.622 67.2576 800.762 67.4091 799.747 67.4091ZM800.156 65C801.217 65 802.111 64.7917 802.838 64.375C803.573 63.9583 804.126 63.4205 804.497 62.7614C804.876 62.1023 805.065 61.4091 805.065 60.6818V58.2273C804.952 58.3636 804.702 58.4886 804.315 58.6023C803.937 58.7083 803.497 58.803 802.997 58.8864C802.505 58.9621 802.024 59.0303 801.554 59.0909C801.092 59.1439 800.717 59.1894 800.429 59.2273C799.732 59.3182 799.08 59.4659 798.474 59.6705C797.876 59.8674 797.391 60.1667 797.02 60.5682C796.656 60.9621 796.474 61.5 796.474 62.1818C796.474 63.1136 796.819 63.8182 797.509 64.2955C798.205 64.7652 799.088 65 800.156 65ZM820.233 49.5455V51.8182H811.188V49.5455H820.233ZM813.824 45.3636H816.506V62C816.506 62.7576 816.616 63.3258 816.835 63.7045C817.063 64.0758 817.35 64.3258 817.699 64.4545C818.055 64.5758 818.43 64.6364 818.824 64.6364C819.119 64.6364 819.362 64.6212 819.551 64.5909C819.741 64.553 819.892 64.5227 820.006 64.5L820.551 66.9091C820.369 66.9773 820.116 67.0455 819.79 67.1136C819.464 67.1894 819.051 67.2273 818.551 67.2273C817.794 67.2273 817.051 67.0644 816.324 66.7386C815.604 66.4129 815.006 65.9167 814.528 65.25C814.059 64.5833 813.824 63.7424 813.824 62.7273V45.3636ZM836.318 53.4545L833.909 54.1364C833.758 53.7348 833.534 53.3447 833.239 52.9659C832.951 52.5795 832.557 52.2614 832.057 52.0114C831.557 51.7614 830.917 51.6364 830.136 51.6364C829.068 51.6364 828.178 51.8826 827.466 52.375C826.761 52.8598 826.409 53.4773 826.409 54.2273C826.409 54.8939 826.652 55.4205 827.136 55.8068C827.621 56.1932 828.379 56.5152 829.409 56.7727L832 57.4091C833.561 57.7879 834.723 58.3674 835.489 59.1477C836.254 59.9205 836.636 60.9167 836.636 62.1364C836.636 63.1364 836.348 64.0303 835.773 64.8182C835.205 65.6061 834.409 66.2273 833.386 66.6818C832.364 67.1364 831.174 67.3636 829.818 67.3636C828.038 67.3636 826.564 66.9773 825.398 66.2045C824.231 65.4318 823.492 64.303 823.182 62.8182L825.727 62.1818C825.97 63.1212 826.428 63.8258 827.102 64.2955C827.784 64.7652 828.674 65 829.773 65C831.023 65 832.015 64.7348 832.75 64.2045C833.492 63.6667 833.864 63.0227 833.864 62.2727C833.864 61.6667 833.652 61.1591 833.227 60.75C832.803 60.3333 832.152 60.0227 831.273 59.8182L828.364 59.1364C826.765 58.7576 825.591 58.1705 824.841 57.375C824.098 56.572 823.727 55.5682 823.727 54.3636C823.727 53.3788 824.004 52.5076 824.557 51.75C825.117 50.9924 825.879 50.3977 826.841 49.9659C827.811 49.5341 828.909 49.3182 830.136 49.3182C831.864 49.3182 833.22 49.697 834.205 50.4545C835.197 51.2121 835.902 52.2121 836.318 53.4545Z" fill="white"/>
<rect x="466" y="17" width="161" height="76" fill="#060202"/>
<path d="M490.858 51H488.04C487.873 50.1894 487.581 49.4773 487.165 48.8636C486.756 48.25 486.256 47.7348 485.665 47.3182C485.081 46.8939 484.434 46.5758 483.722 46.3636C483.009 46.1515 482.267 46.0455 481.494 46.0455C480.085 46.0455 478.809 46.4015 477.665 47.1136C476.528 47.8258 475.623 48.875 474.949 50.2614C474.282 51.6477 473.949 53.3485 473.949 55.3636C473.949 57.3788 474.282 59.0795 474.949 60.4659C475.623 61.8523 476.528 62.9015 477.665 63.6136C478.809 64.3258 480.085 64.6818 481.494 64.6818C482.267 64.6818 483.009 64.5758 483.722 64.3636C484.434 64.1515 485.081 63.8371 485.665 63.4205C486.256 62.9962 486.756 62.4773 487.165 61.8636C487.581 61.2424 487.873 60.5303 488.04 59.7273H490.858C490.646 60.9167 490.259 61.9811 489.699 62.9205C489.138 63.8598 488.441 64.6591 487.608 65.3182C486.775 65.9697 485.839 66.4659 484.801 66.8068C483.771 67.1477 482.669 67.3182 481.494 67.3182C479.509 67.3182 477.744 66.8333 476.199 65.8636C474.653 64.8939 473.438 63.5152 472.551 61.7273C471.665 59.9394 471.222 57.8182 471.222 55.3636C471.222 52.9091 471.665 50.7879 472.551 49C473.438 47.2121 474.653 45.8333 476.199 44.8636C477.744 43.8939 479.509 43.4091 481.494 43.4091C482.669 43.4091 483.771 43.5795 484.801 43.9205C485.839 44.2614 486.775 44.7614 487.608 45.4205C488.441 46.072 489.138 46.8674 489.699 47.8068C490.259 48.7386 490.646 49.803 490.858 51ZM500.185 67.4091C499.079 67.4091 498.075 67.2008 497.173 66.7841C496.272 66.3598 495.556 65.75 495.026 64.9545C494.495 64.1515 494.23 63.1818 494.23 62.0455C494.23 61.0455 494.427 60.2348 494.821 59.6136C495.215 58.9848 495.741 58.4924 496.401 58.1364C497.06 57.7803 497.787 57.5152 498.582 57.3409C499.385 57.1591 500.192 57.0152 501.003 56.9091C502.063 56.7727 502.923 56.6705 503.582 56.6023C504.249 56.5265 504.734 56.4015 505.037 56.2273C505.348 56.053 505.503 55.75 505.503 55.3182V55.2273C505.503 54.1061 505.196 53.2348 504.582 52.6136C503.976 51.9924 503.056 51.6818 501.821 51.6818C500.541 51.6818 499.537 51.9621 498.81 52.5227C498.082 53.0833 497.571 53.6818 497.276 54.3182L494.73 53.4091C495.185 52.3485 495.791 51.5227 496.548 50.9318C497.313 50.3333 498.147 49.9167 499.048 49.6818C499.957 49.4394 500.851 49.3182 501.73 49.3182C502.291 49.3182 502.935 49.3864 503.662 49.5227C504.397 49.6515 505.105 49.9205 505.787 50.3295C506.476 50.7386 507.048 51.3561 507.503 52.1818C507.957 53.0076 508.185 54.1136 508.185 55.5V67H505.503V64.6364H505.366C505.185 65.0152 504.882 65.4205 504.457 65.8523C504.033 66.2841 503.469 66.6515 502.764 66.9545C502.06 67.2576 501.2 67.4091 500.185 67.4091ZM500.594 65C501.654 65 502.548 64.7917 503.276 64.375C504.01 63.9583 504.563 63.4205 504.935 62.7614C505.313 62.1023 505.503 61.4091 505.503 60.6818V58.2273C505.389 58.3636 505.139 58.4886 504.753 58.6023C504.374 58.7083 503.935 58.803 503.435 58.8864C502.942 58.9621 502.461 59.0303 501.991 59.0909C501.529 59.1439 501.154 59.1894 500.866 59.2273C500.17 59.3182 499.518 59.4659 498.912 59.6705C498.313 59.8674 497.829 60.1667 497.457 60.5682C497.094 60.9621 496.912 61.5 496.912 62.1818C496.912 63.1136 497.257 63.8182 497.946 64.2955C498.643 64.7652 499.526 65 500.594 65ZM520.67 49.5455V51.8182H511.625V49.5455H520.67ZM514.261 45.3636H516.943V62C516.943 62.7576 517.053 63.3258 517.273 63.7045C517.5 64.0758 517.788 64.3258 518.136 64.4545C518.492 64.5758 518.867 64.6364 519.261 64.6364C519.557 64.6364 519.799 64.6212 519.989 64.5909C520.178 64.553 520.33 64.5227 520.443 64.5L520.989 66.9091C520.807 66.9773 520.553 67.0455 520.227 67.1136C519.902 67.1894 519.489 67.2273 518.989 67.2273C518.231 67.2273 517.489 67.0644 516.761 66.7386C516.042 66.4129 515.443 65.9167 514.966 65.25C514.496 64.5833 514.261 63.7424 514.261 62.7273V45.3636ZM529.841 67.4091C528.735 67.4091 527.731 67.2008 526.83 66.7841C525.928 66.3598 525.212 65.75 524.682 64.9545C524.152 64.1515 523.886 63.1818 523.886 62.0455C523.886 61.0455 524.083 60.2348 524.477 59.6136C524.871 58.9848 525.398 58.4924 526.057 58.1364C526.716 57.7803 527.443 57.5152 528.239 57.3409C529.042 57.1591 529.848 57.0152 530.659 56.9091C531.72 56.7727 532.58 56.6705 533.239 56.6023C533.905 56.5265 534.39 56.4015 534.693 56.2273C535.004 56.053 535.159 55.75 535.159 55.3182V55.2273C535.159 54.1061 534.852 53.2348 534.239 52.6136C533.633 51.9924 532.712 51.6818 531.477 51.6818C530.197 51.6818 529.193 51.9621 528.466 52.5227C527.739 53.0833 527.227 53.6818 526.932 54.3182L524.386 53.4091C524.841 52.3485 525.447 51.5227 526.205 50.9318C526.97 50.3333 527.803 49.9167 528.705 49.6818C529.614 49.4394 530.508 49.3182 531.386 49.3182C531.947 49.3182 532.591 49.3864 533.318 49.5227C534.053 49.6515 534.761 49.9205 535.443 50.3295C536.133 50.7386 536.705 51.3561 537.159 52.1818C537.614 53.0076 537.841 54.1136 537.841 55.5V67H535.159V64.6364H535.023C534.841 65.0152 534.538 65.4205 534.114 65.8523C533.689 66.2841 533.125 66.6515 532.42 66.9545C531.716 67.2576 530.856 67.4091 529.841 67.4091ZM530.25 65C531.311 65 532.205 64.7917 532.932 64.375C533.667 63.9583 534.22 63.4205 534.591 62.7614C534.97 62.1023 535.159 61.4091 535.159 60.6818V58.2273C535.045 58.3636 534.795 58.4886 534.409 58.6023C534.03 58.7083 533.591 58.803 533.091 58.8864C532.598 58.9621 532.117 59.0303 531.648 59.0909C531.186 59.1439 530.811 59.1894 530.523 59.2273C529.826 59.3182 529.174 59.4659 528.568 59.6705C527.97 59.8674 527.485 60.1667 527.114 60.5682C526.75 60.9621 526.568 61.5 526.568 62.1818C526.568 63.1136 526.913 63.8182 527.602 64.2955C528.299 64.7652 529.182 65 530.25 65ZM545.418 43.7273V67H542.736V43.7273H545.418ZM557.42 67.3636C555.845 67.3636 554.462 66.9886 553.273 66.2386C552.091 65.4886 551.167 64.4394 550.5 63.0909C549.841 61.7424 549.511 60.1667 549.511 58.3636C549.511 56.5455 549.841 54.9583 550.5 53.6023C551.167 52.2462 552.091 51.1932 553.273 50.4432C554.462 49.6932 555.845 49.3182 557.42 49.3182C558.996 49.3182 560.375 49.6932 561.557 50.4432C562.746 51.1932 563.67 52.2462 564.33 53.6023C564.996 54.9583 565.33 56.5455 565.33 58.3636C565.33 60.1667 564.996 61.7424 564.33 63.0909C563.67 64.4394 562.746 65.4886 561.557 66.2386C560.375 66.9886 558.996 67.3636 557.42 67.3636ZM557.42 64.9545C558.617 64.9545 559.602 64.6477 560.375 64.0341C561.148 63.4205 561.72 62.6136 562.091 61.6136C562.462 60.6136 562.648 59.5303 562.648 58.3636C562.648 57.197 562.462 56.1098 562.091 55.1023C561.72 54.0947 561.148 53.2803 560.375 52.6591C559.602 52.0379 558.617 51.7273 557.42 51.7273C556.223 51.7273 555.239 52.0379 554.466 52.6591C553.693 53.2803 553.121 54.0947 552.75 55.1023C552.379 56.1098 552.193 57.197 552.193 58.3636C552.193 59.5303 552.379 60.6136 552.75 61.6136C553.121 62.6136 553.693 63.4205 554.466 64.0341C555.239 64.6477 556.223 64.9545 557.42 64.9545ZM576.469 73.9091C575.173 73.9091 574.06 73.7424 573.128 73.4091C572.196 73.0833 571.42 72.6515 570.798 72.1136C570.185 71.5833 569.696 71.0152 569.332 70.4091L571.469 68.9091C571.711 69.2273 572.018 69.5909 572.389 70C572.76 70.4167 573.268 70.7765 573.912 71.0795C574.563 71.3902 575.416 71.5455 576.469 71.5455C577.878 71.5455 579.041 71.2045 579.957 70.5227C580.874 69.8409 581.332 68.7727 581.332 67.3182V63.7727H581.105C580.908 64.0909 580.628 64.4848 580.264 64.9545C579.908 65.4167 579.393 65.8295 578.719 66.1932C578.052 66.5492 577.151 66.7273 576.014 66.7273C574.605 66.7273 573.34 66.3939 572.219 65.7273C571.105 65.0606 570.223 64.0909 569.571 62.8182C568.927 61.5455 568.605 60 568.605 58.1818C568.605 56.3939 568.92 54.8371 569.548 53.5114C570.177 52.178 571.052 51.1477 572.173 50.4205C573.295 49.6856 574.59 49.3182 576.06 49.3182C577.196 49.3182 578.098 49.5076 578.764 49.8864C579.438 50.2576 579.954 50.6818 580.31 51.1591C580.673 51.6288 580.954 52.0152 581.151 52.3182H581.423V49.5455H584.014V67.5C584.014 69 583.673 70.2197 582.991 71.1591C582.317 72.1061 581.408 72.7992 580.264 73.2386C579.128 73.6856 577.863 73.9091 576.469 73.9091ZM576.378 64.3182C577.454 64.3182 578.363 64.072 579.105 63.5795C579.848 63.0871 580.412 62.3788 580.798 61.4545C581.185 60.5303 581.378 59.4242 581.378 58.1364C581.378 56.8788 581.188 55.7689 580.81 54.8068C580.431 53.8447 579.87 53.0909 579.128 52.5455C578.385 52 577.469 51.7273 576.378 51.7273C575.241 51.7273 574.295 52.0152 573.537 52.5909C572.787 53.1667 572.223 53.9394 571.844 54.9091C571.473 55.8788 571.287 56.9545 571.287 58.1364C571.287 59.3485 571.476 60.4205 571.855 61.3523C572.241 62.2765 572.81 63.0038 573.56 63.5341C574.317 64.0568 575.257 64.3182 576.378 64.3182ZM599.923 59.8636V49.5455H602.605V67H599.923V64.0455H599.741C599.332 64.9318 598.696 65.6856 597.832 66.3068C596.969 66.9205 595.878 67.2273 594.56 67.2273C593.469 67.2273 592.499 66.9886 591.651 66.5114C590.802 66.0265 590.135 65.2992 589.651 64.3295C589.166 63.3523 588.923 62.1212 588.923 60.6364V49.5455H591.605V60.4545C591.605 61.7273 591.961 62.7424 592.673 63.5C593.393 64.2576 594.31 64.6364 595.423 64.6364C596.09 64.6364 596.768 64.4659 597.457 64.125C598.154 63.7841 598.738 63.2614 599.207 62.5568C599.685 61.8523 599.923 60.9545 599.923 59.8636ZM614.835 67.3636C613.153 67.3636 611.703 66.9924 610.483 66.25C609.271 65.5 608.335 64.4545 607.676 63.1136C607.025 61.7652 606.699 60.197 606.699 58.4091C606.699 56.6212 607.025 55.0455 607.676 53.6818C608.335 52.3106 609.252 51.2424 610.426 50.4773C611.608 49.7045 612.987 49.3182 614.562 49.3182C615.472 49.3182 616.369 49.4697 617.256 49.7727C618.142 50.0758 618.949 50.5682 619.676 51.25C620.403 51.9242 620.983 52.8182 621.415 53.9318C621.847 55.0455 622.062 56.4167 622.062 58.0455V59.1818H608.608V56.8636H619.335C619.335 55.8788 619.138 55 618.744 54.2273C618.358 53.4545 617.805 52.8447 617.085 52.3977C616.373 51.9508 615.532 51.7273 614.562 51.7273C613.494 51.7273 612.57 51.9924 611.79 52.5227C611.017 53.0455 610.422 53.7273 610.006 54.5682C609.589 55.4091 609.381 56.3106 609.381 57.2727V58.8182C609.381 60.1364 609.608 61.2538 610.062 62.1705C610.525 63.0795 611.165 63.7727 611.983 64.25C612.801 64.7197 613.752 64.9545 614.835 64.9545C615.54 64.9545 616.176 64.8561 616.744 64.6591C617.32 64.4545 617.816 64.1515 618.233 63.75C618.65 63.3409 618.972 62.8333 619.199 62.2273L621.79 62.9545C621.517 63.8333 621.059 64.6061 620.415 65.2727C619.771 65.9318 618.975 66.447 618.028 66.8182C617.081 67.1818 616.017 67.3636 614.835 67.3636Z" fill="white"/>
<rect x="36" y="228" width="319" height="723" fill="#8B8787"/>
<rect x="65" y="284" width="262" height="53" fill="#D9D9D9"/>
<rect x="65" y="679" width="262" height="227" fill="#D9D9D9"/>
<rect x="65" y="415" width="262" height="227" fill="#D9D9D9"/>
<path d="M152.662 322V298.727H166.616V301.227H155.48V309.091H165.571V311.591H155.48V322H152.662ZM171.08 322V304.545H173.761V322H171.08ZM172.443 301.636C171.92 301.636 171.47 301.458 171.091 301.102C170.72 300.746 170.534 300.318 170.534 299.818C170.534 299.318 170.72 298.89 171.091 298.534C171.47 298.178 171.92 298 172.443 298C172.966 298 173.413 298.178 173.784 298.534C174.163 298.89 174.352 299.318 174.352 299.818C174.352 300.318 174.163 300.746 173.784 301.102C173.413 301.458 172.966 301.636 172.443 301.636ZM181.355 298.727V322H178.673V298.727H181.355ZM193.858 304.545V306.818H184.812V304.545H193.858ZM187.449 300.364H190.131V317C190.131 317.758 190.241 318.326 190.46 318.705C190.688 319.076 190.975 319.326 191.324 319.455C191.68 319.576 192.055 319.636 192.449 319.636C192.744 319.636 192.987 319.621 193.176 319.591C193.366 319.553 193.517 319.523 193.631 319.5L194.176 321.909C193.994 321.977 193.741 322.045 193.415 322.114C193.089 322.189 192.676 322.227 192.176 322.227C191.419 322.227 190.676 322.064 189.949 321.739C189.229 321.413 188.631 320.917 188.153 320.25C187.684 319.583 187.449 318.742 187.449 317.727V300.364ZM197.892 322V304.545H200.483V307.182H200.665C200.983 306.318 201.559 305.617 202.392 305.08C203.225 304.542 204.165 304.273 205.21 304.273C205.407 304.273 205.653 304.277 205.949 304.284C206.244 304.292 206.468 304.303 206.619 304.318V307.045C206.528 307.023 206.32 306.989 205.994 306.943C205.676 306.89 205.339 306.864 204.983 306.864C204.134 306.864 203.377 307.042 202.71 307.398C202.051 307.746 201.528 308.231 201.142 308.852C200.763 309.466 200.574 310.167 200.574 310.955V322H197.892ZM216.585 322.364C214.903 322.364 213.453 321.992 212.233 321.25C211.021 320.5 210.085 319.455 209.426 318.114C208.775 316.765 208.449 315.197 208.449 313.409C208.449 311.621 208.775 310.045 209.426 308.682C210.085 307.311 211.002 306.242 212.176 305.477C213.358 304.705 214.737 304.318 216.312 304.318C217.222 304.318 218.119 304.47 219.006 304.773C219.892 305.076 220.699 305.568 221.426 306.25C222.153 306.924 222.733 307.818 223.165 308.932C223.597 310.045 223.812 311.417 223.812 313.045V314.182H210.358V311.864H221.085C221.085 310.879 220.888 310 220.494 309.227C220.108 308.455 219.555 307.845 218.835 307.398C218.123 306.951 217.282 306.727 216.312 306.727C215.244 306.727 214.32 306.992 213.54 307.523C212.767 308.045 212.172 308.727 211.756 309.568C211.339 310.409 211.131 311.311 211.131 312.273V313.818C211.131 315.136 211.358 316.254 211.812 317.17C212.275 318.08 212.915 318.773 213.733 319.25C214.551 319.72 215.502 319.955 216.585 319.955C217.29 319.955 217.926 319.856 218.494 319.659C219.07 319.455 219.566 319.152 219.983 318.75C220.4 318.341 220.722 317.833 220.949 317.227L223.54 317.955C223.267 318.833 222.809 319.606 222.165 320.273C221.521 320.932 220.725 321.447 219.778 321.818C218.831 322.182 217.767 322.364 216.585 322.364ZM240.256 308.455L237.847 309.136C237.695 308.735 237.472 308.345 237.176 307.966C236.888 307.58 236.494 307.261 235.994 307.011C235.494 306.761 234.854 306.636 234.074 306.636C233.006 306.636 232.116 306.883 231.403 307.375C230.699 307.86 230.347 308.477 230.347 309.227C230.347 309.894 230.589 310.42 231.074 310.807C231.559 311.193 232.316 311.515 233.347 311.773L235.938 312.409C237.498 312.788 238.661 313.367 239.426 314.148C240.191 314.92 240.574 315.917 240.574 317.136C240.574 318.136 240.286 319.03 239.71 319.818C239.142 320.606 238.347 321.227 237.324 321.682C236.301 322.136 235.112 322.364 233.756 322.364C231.975 322.364 230.502 321.977 229.335 321.205C228.169 320.432 227.43 319.303 227.119 317.818L229.665 317.182C229.907 318.121 230.366 318.826 231.04 319.295C231.722 319.765 232.612 320 233.71 320C234.96 320 235.953 319.735 236.688 319.205C237.43 318.667 237.801 318.023 237.801 317.273C237.801 316.667 237.589 316.159 237.165 315.75C236.741 315.333 236.089 315.023 235.21 314.818L232.301 314.136C230.703 313.758 229.528 313.17 228.778 312.375C228.036 311.572 227.665 310.568 227.665 309.364C227.665 308.379 227.941 307.508 228.494 306.75C229.055 305.992 229.816 305.398 230.778 304.966C231.748 304.534 232.847 304.318 234.074 304.318C235.801 304.318 237.157 304.697 238.142 305.455C239.134 306.212 239.839 307.212 240.256 308.455Z" fill="black"/>
<rect x="433" y="224" width="391" height="455" rx="46" fill="#D9D9D9"/>
<rect x="902" y="224" width="391" height="455" rx="46" fill="#D9D9D9"/>
<rect x="433" y="796" width="391" height="455" rx="46" fill="#D9D9D9"/>
<rect x="902" y="796" width="391" height="455" rx="46" fill="#D9D9D9"/>
<path d="M559.318 472V448.727H573.273V451.227H562.136V459.091H572.227V461.591H562.136V472H559.318ZM583.545 472.364C581.97 472.364 580.587 471.989 579.398 471.239C578.216 470.489 577.292 469.439 576.625 468.091C575.966 466.742 575.636 465.167 575.636 463.364C575.636 461.545 575.966 459.958 576.625 458.602C577.292 457.246 578.216 456.193 579.398 455.443C580.587 454.693 581.97 454.318 583.545 454.318C585.121 454.318 586.5 454.693 587.682 455.443C588.871 456.193 589.795 457.246 590.455 458.602C591.121 459.958 591.455 461.545 591.455 463.364C591.455 465.167 591.121 466.742 590.455 468.091C589.795 469.439 588.871 470.489 587.682 471.239C586.5 471.989 585.121 472.364 583.545 472.364ZM583.545 469.955C584.742 469.955 585.727 469.648 586.5 469.034C587.273 468.42 587.845 467.614 588.216 466.614C588.587 465.614 588.773 464.53 588.773 463.364C588.773 462.197 588.587 461.11 588.216 460.102C587.845 459.095 587.273 458.28 586.5 457.659C585.727 457.038 584.742 456.727 583.545 456.727C582.348 456.727 581.364 457.038 580.591 457.659C579.818 458.28 579.246 459.095 578.875 460.102C578.504 461.11 578.318 462.197 578.318 463.364C578.318 464.53 578.504 465.614 578.875 466.614C579.246 467.614 579.818 468.42 580.591 469.034C581.364 469.648 582.348 469.955 583.545 469.955ZM595.548 472V454.545H598.139V457.182H598.321C598.639 456.318 599.215 455.617 600.048 455.08C600.882 454.542 601.821 454.273 602.866 454.273C603.063 454.273 603.31 454.277 603.605 454.284C603.901 454.292 604.124 454.303 604.276 454.318V457.045C604.185 457.023 603.976 456.989 603.651 456.943C603.332 456.89 602.995 456.864 602.639 456.864C601.791 456.864 601.033 457.042 600.366 457.398C599.707 457.746 599.185 458.231 598.798 458.852C598.42 459.466 598.23 460.167 598.23 460.955V472H595.548ZM607.455 472V454.545H610.045V457.273H610.273C610.636 456.341 611.223 455.617 612.034 455.102C612.845 454.58 613.818 454.318 614.955 454.318C616.106 454.318 617.064 454.58 617.83 455.102C618.602 455.617 619.205 456.341 619.636 457.273H619.818C620.265 456.371 620.936 455.655 621.83 455.125C622.723 454.587 623.795 454.318 625.045 454.318C626.606 454.318 627.883 454.807 628.875 455.784C629.867 456.754 630.364 458.265 630.364 460.318V472H627.682V460.318C627.682 459.03 627.33 458.11 626.625 457.557C625.92 457.004 625.091 456.727 624.136 456.727C622.909 456.727 621.958 457.098 621.284 457.841C620.61 458.576 620.273 459.508 620.273 460.636V472H617.545V460.045C617.545 459.053 617.223 458.254 616.58 457.648C615.936 457.034 615.106 456.727 614.091 456.727C613.394 456.727 612.742 456.913 612.136 457.284C611.538 457.655 611.053 458.17 610.682 458.83C610.318 459.481 610.136 460.235 610.136 461.091V472H607.455ZM646.267 464.864V454.545H648.949V472H646.267V469.045H646.085C645.676 469.932 645.04 470.686 644.176 471.307C643.313 471.92 642.222 472.227 640.903 472.227C639.812 472.227 638.843 471.989 637.994 471.511C637.146 471.027 636.479 470.299 635.994 469.33C635.509 468.352 635.267 467.121 635.267 465.636V454.545H637.949V465.455C637.949 466.727 638.305 467.742 639.017 468.5C639.737 469.258 640.653 469.636 641.767 469.636C642.434 469.636 643.112 469.466 643.801 469.125C644.498 468.784 645.081 468.261 645.551 467.557C646.028 466.852 646.267 465.955 646.267 464.864ZM656.543 448.727V472H653.861V448.727H656.543ZM668.773 472.364C667.091 472.364 665.64 471.992 664.42 471.25C663.208 470.5 662.273 469.455 661.614 468.114C660.962 466.765 660.636 465.197 660.636 463.409C660.636 461.621 660.962 460.045 661.614 458.682C662.273 457.311 663.189 456.242 664.364 455.477C665.545 454.705 666.924 454.318 668.5 454.318C669.409 454.318 670.307 454.47 671.193 454.773C672.08 455.076 672.886 455.568 673.614 456.25C674.341 456.924 674.92 457.818 675.352 458.932C675.784 460.045 676 461.417 676 463.045V464.182H662.545V461.864H673.273C673.273 460.879 673.076 460 672.682 459.227C672.295 458.455 671.742 457.845 671.023 457.398C670.311 456.951 669.47 456.727 668.5 456.727C667.432 456.727 666.508 456.992 665.727 457.523C664.955 458.045 664.36 458.727 663.943 459.568C663.527 460.409 663.318 461.311 663.318 462.273V463.818C663.318 465.136 663.545 466.254 664 467.17C664.462 468.08 665.102 468.773 665.92 469.25C666.739 469.72 667.689 469.955 668.773 469.955C669.477 469.955 670.114 469.856 670.682 469.659C671.258 469.455 671.754 469.152 672.17 468.75C672.587 468.341 672.909 467.833 673.136 467.227L675.727 467.955C675.455 468.833 674.996 469.606 674.352 470.273C673.708 470.932 672.913 471.447 671.966 471.818C671.019 472.182 669.955 472.364 668.773 472.364ZM697.216 448.727V472H694.398V451.682H694.261L688.58 455.455V452.591L694.398 448.727H697.216Z" fill="black"/>
<path d="M561.568 1027V1003.73H575.523V1006.23H564.386V1014.09H574.477V1016.59H564.386V1027H561.568ZM585.795 1027.36C584.22 1027.36 582.837 1026.99 581.648 1026.24C580.466 1025.49 579.542 1024.44 578.875 1023.09C578.216 1021.74 577.886 1020.17 577.886 1018.36C577.886 1016.55 578.216 1014.96 578.875 1013.6C579.542 1012.25 580.466 1011.19 581.648 1010.44C582.837 1009.69 584.22 1009.32 585.795 1009.32C587.371 1009.32 588.75 1009.69 589.932 1010.44C591.121 1011.19 592.045 1012.25 592.705 1013.6C593.371 1014.96 593.705 1016.55 593.705 1018.36C593.705 1020.17 593.371 1021.74 592.705 1023.09C592.045 1024.44 591.121 1025.49 589.932 1026.24C588.75 1026.99 587.371 1027.36 585.795 1027.36ZM585.795 1024.95C586.992 1024.95 587.977 1024.65 588.75 1024.03C589.523 1023.42 590.095 1022.61 590.466 1021.61C590.837 1020.61 591.023 1019.53 591.023 1018.36C591.023 1017.2 590.837 1016.11 590.466 1015.1C590.095 1014.09 589.523 1013.28 588.75 1012.66C587.977 1012.04 586.992 1011.73 585.795 1011.73C584.598 1011.73 583.614 1012.04 582.841 1012.66C582.068 1013.28 581.496 1014.09 581.125 1015.1C580.754 1016.11 580.568 1017.2 580.568 1018.36C580.568 1019.53 580.754 1020.61 581.125 1021.61C581.496 1022.61 582.068 1023.42 582.841 1024.03C583.614 1024.65 584.598 1024.95 585.795 1024.95ZM597.798 1027V1009.55H600.389V1012.18H600.571C600.889 1011.32 601.465 1010.62 602.298 1010.08C603.132 1009.54 604.071 1009.27 605.116 1009.27C605.313 1009.27 605.56 1009.28 605.855 1009.28C606.151 1009.29 606.374 1009.3 606.526 1009.32V1012.05C606.435 1012.02 606.226 1011.99 605.901 1011.94C605.582 1011.89 605.245 1011.86 604.889 1011.86C604.041 1011.86 603.283 1012.04 602.616 1012.4C601.957 1012.75 601.435 1013.23 601.048 1013.85C600.67 1014.47 600.48 1015.17 600.48 1015.95V1027H597.798ZM609.705 1027V1009.55H612.295V1012.27H612.523C612.886 1011.34 613.473 1010.62 614.284 1010.1C615.095 1009.58 616.068 1009.32 617.205 1009.32C618.356 1009.32 619.314 1009.58 620.08 1010.1C620.852 1010.62 621.455 1011.34 621.886 1012.27H622.068C622.515 1011.37 623.186 1010.66 624.08 1010.12C624.973 1009.59 626.045 1009.32 627.295 1009.32C628.856 1009.32 630.133 1009.81 631.125 1010.78C632.117 1011.75 632.614 1013.27 632.614 1015.32V1027H629.932V1015.32C629.932 1014.03 629.58 1013.11 628.875 1012.56C628.17 1012 627.341 1011.73 626.386 1011.73C625.159 1011.73 624.208 1012.1 623.534 1012.84C622.86 1013.58 622.523 1014.51 622.523 1015.64V1027H619.795V1015.05C619.795 1014.05 619.473 1013.25 618.83 1012.65C618.186 1012.03 617.356 1011.73 616.341 1011.73C615.644 1011.73 614.992 1011.91 614.386 1012.28C613.788 1012.66 613.303 1013.17 612.932 1013.83C612.568 1014.48 612.386 1015.23 612.386 1016.09V1027H609.705ZM648.517 1019.86V1009.55H651.199V1027H648.517V1024.05H648.335C647.926 1024.93 647.29 1025.69 646.426 1026.31C645.563 1026.92 644.472 1027.23 643.153 1027.23C642.062 1027.23 641.093 1026.99 640.244 1026.51C639.396 1026.03 638.729 1025.3 638.244 1024.33C637.759 1023.35 637.517 1022.12 637.517 1020.64V1009.55H640.199V1020.45C640.199 1021.73 640.555 1022.74 641.267 1023.5C641.987 1024.26 642.903 1024.64 644.017 1024.64C644.684 1024.64 645.362 1024.47 646.051 1024.12C646.748 1023.78 647.331 1023.26 647.801 1022.56C648.278 1021.85 648.517 1020.95 648.517 1019.86ZM658.793 1003.73V1027H656.111V1003.73H658.793ZM671.023 1027.36C669.341 1027.36 667.89 1026.99 666.67 1026.25C665.458 1025.5 664.523 1024.45 663.864 1023.11C663.212 1021.77 662.886 1020.2 662.886 1018.41C662.886 1016.62 663.212 1015.05 663.864 1013.68C664.523 1012.31 665.439 1011.24 666.614 1010.48C667.795 1009.7 669.174 1009.32 670.75 1009.32C671.659 1009.32 672.557 1009.47 673.443 1009.77C674.33 1010.08 675.136 1010.57 675.864 1011.25C676.591 1011.92 677.17 1012.82 677.602 1013.93C678.034 1015.05 678.25 1016.42 678.25 1018.05V1019.18H664.795V1016.86H675.523C675.523 1015.88 675.326 1015 674.932 1014.23C674.545 1013.45 673.992 1012.84 673.273 1012.4C672.561 1011.95 671.72 1011.73 670.75 1011.73C669.682 1011.73 668.758 1011.99 667.977 1012.52C667.205 1013.05 666.61 1013.73 666.193 1014.57C665.777 1015.41 665.568 1016.31 665.568 1017.27V1018.82C665.568 1020.14 665.795 1021.25 666.25 1022.17C666.712 1023.08 667.352 1023.77 668.17 1024.25C668.989 1024.72 669.939 1024.95 671.023 1024.95C671.727 1024.95 672.364 1024.86 672.932 1024.66C673.508 1024.45 674.004 1024.15 674.42 1023.75C674.837 1023.34 675.159 1022.83 675.386 1022.23L677.977 1022.95C677.705 1023.83 677.246 1024.61 676.602 1025.27C675.958 1025.93 675.163 1026.45 674.216 1026.82C673.269 1027.18 672.205 1027.36 671.023 1027.36ZM699.148 1027.32C697.648 1027.32 696.311 1027.06 695.136 1026.55C693.97 1026.03 693.042 1025.31 692.352 1024.4C691.67 1023.47 691.299 1022.4 691.239 1021.18H694.102C694.163 1021.93 694.42 1022.58 694.875 1023.12C695.33 1023.66 695.924 1024.08 696.659 1024.38C697.394 1024.67 698.208 1024.82 699.102 1024.82C700.102 1024.82 700.989 1024.64 701.761 1024.3C702.534 1023.95 703.14 1023.46 703.58 1022.84C704.019 1022.22 704.239 1021.5 704.239 1020.68C704.239 1019.83 704.027 1019.07 703.602 1018.42C703.178 1017.76 702.557 1017.25 701.739 1016.88C700.92 1016.5 699.92 1016.32 698.739 1016.32H696.875V1013.82H698.739C699.663 1013.82 700.473 1013.65 701.17 1013.32C701.875 1012.98 702.424 1012.52 702.818 1011.91C703.22 1011.3 703.42 1010.59 703.42 1009.77C703.42 1008.98 703.246 1008.3 702.898 1007.72C702.549 1007.13 702.057 1006.68 701.42 1006.35C700.792 1006.03 700.049 1005.86 699.193 1005.86C698.39 1005.86 697.633 1006.01 696.92 1006.31C696.216 1006.59 695.64 1007.02 695.193 1007.57C694.746 1008.11 694.504 1008.77 694.466 1009.55H691.739C691.784 1008.33 692.152 1007.26 692.841 1006.34C693.53 1005.42 694.432 1004.7 695.545 1004.18C696.667 1003.67 697.898 1003.41 699.239 1003.41C700.678 1003.41 701.913 1003.7 702.943 1004.28C703.973 1004.86 704.765 1005.62 705.318 1006.57C705.871 1007.52 706.148 1008.54 706.148 1009.64C706.148 1010.95 705.803 1012.06 705.114 1012.99C704.432 1013.91 703.504 1014.55 702.33 1014.91V1015.09C703.799 1015.33 704.947 1015.96 705.773 1016.97C706.598 1017.97 707.011 1019.2 707.011 1020.68C707.011 1021.95 706.667 1023.08 705.977 1024.09C705.295 1025.09 704.364 1025.88 703.182 1026.45C702 1027.03 700.655 1027.32 699.148 1027.32Z" fill="black"/>
<path d="M978.959 1027V1003.73H981.777V1014.09H994.186V1003.73H997.004V1027H994.186V1016.59H981.777V1027H978.959ZM1009.6 1027.36C1007.92 1027.36 1006.47 1026.99 1005.25 1026.25C1004.04 1025.5 1003.1 1024.45 1002.44 1023.11C1001.79 1021.77 1001.46 1020.2 1001.46 1018.41C1001.46 1016.62 1001.79 1015.05 1002.44 1013.68C1003.1 1012.31 1004.02 1011.24 1005.19 1010.48C1006.37 1009.7 1007.75 1009.32 1009.33 1009.32C1010.24 1009.32 1011.13 1009.47 1012.02 1009.77C1012.91 1010.08 1013.71 1010.57 1014.44 1011.25C1015.17 1011.92 1015.75 1012.82 1016.18 1013.93C1016.61 1015.05 1016.83 1016.42 1016.83 1018.05V1019.18H1003.37V1016.86H1014.1C1014.1 1015.88 1013.9 1015 1013.51 1014.23C1013.12 1013.45 1012.57 1012.84 1011.85 1012.4C1011.14 1011.95 1010.3 1011.73 1009.33 1011.73C1008.26 1011.73 1007.34 1011.99 1006.56 1012.52C1005.78 1013.05 1005.19 1013.73 1004.77 1014.57C1004.35 1015.41 1004.15 1016.31 1004.15 1017.27V1018.82C1004.15 1020.14 1004.37 1021.25 1004.83 1022.17C1005.29 1023.08 1005.93 1023.77 1006.75 1024.25C1007.57 1024.72 1008.52 1024.95 1009.6 1024.95C1010.31 1024.95 1010.94 1024.86 1011.51 1024.66C1012.09 1024.45 1012.58 1024.15 1013 1023.75C1013.42 1023.34 1013.74 1022.83 1013.96 1022.23L1016.56 1022.95C1016.28 1023.83 1015.82 1024.61 1015.18 1025.27C1014.54 1025.93 1013.74 1026.45 1012.79 1026.82C1011.85 1027.18 1010.78 1027.36 1009.6 1027.36ZM1031.91 1019.86V1009.55H1034.59V1027H1031.91V1024.05H1031.73C1031.32 1024.93 1030.68 1025.69 1029.82 1026.31C1028.95 1026.92 1027.86 1027.23 1026.54 1027.23C1025.45 1027.23 1024.48 1026.99 1023.63 1026.51C1022.79 1026.03 1022.12 1025.3 1021.63 1024.33C1021.15 1023.35 1020.91 1022.12 1020.91 1020.64V1009.55H1023.59V1020.45C1023.59 1021.73 1023.95 1022.74 1024.66 1023.5C1025.38 1024.26 1026.29 1024.64 1027.41 1024.64C1028.07 1024.64 1028.75 1024.47 1029.44 1024.12C1030.14 1023.78 1030.72 1023.26 1031.19 1022.56C1031.67 1021.85 1031.91 1020.95 1031.91 1019.86ZM1039.5 1027V1009.55H1042.09V1012.18H1042.27C1042.59 1011.32 1043.17 1010.62 1044 1010.08C1044.83 1009.54 1045.77 1009.27 1046.82 1009.27C1047.02 1009.27 1047.26 1009.28 1047.56 1009.28C1047.85 1009.29 1048.08 1009.3 1048.23 1009.32V1012.05C1048.14 1012.02 1047.93 1011.99 1047.6 1011.94C1047.29 1011.89 1046.95 1011.86 1046.59 1011.86C1045.74 1011.86 1044.99 1012.04 1044.32 1012.4C1043.66 1012.75 1043.14 1013.23 1042.75 1013.85C1042.37 1014.47 1042.18 1015.17 1042.18 1015.95V1027H1039.5ZM1058.19 1027.36C1056.51 1027.36 1055.06 1026.99 1053.84 1026.25C1052.63 1025.5 1051.69 1024.45 1051.04 1023.11C1050.38 1021.77 1050.06 1020.2 1050.06 1018.41C1050.06 1016.62 1050.38 1015.05 1051.04 1013.68C1051.69 1012.31 1052.61 1011.24 1053.79 1010.48C1054.97 1009.7 1056.35 1009.32 1057.92 1009.32C1058.83 1009.32 1059.73 1009.47 1060.62 1009.77C1061.5 1010.08 1062.31 1010.57 1063.04 1011.25C1063.76 1011.92 1064.34 1012.82 1064.77 1013.93C1065.21 1015.05 1065.42 1016.42 1065.42 1018.05V1019.18H1051.97V1016.86H1062.69C1062.69 1015.88 1062.5 1015 1062.1 1014.23C1061.72 1013.45 1061.16 1012.84 1060.44 1012.4C1059.73 1011.95 1058.89 1011.73 1057.92 1011.73C1056.85 1011.73 1055.93 1011.99 1055.15 1012.52C1054.38 1013.05 1053.78 1013.73 1053.37 1014.57C1052.95 1015.41 1052.74 1016.31 1052.74 1017.27V1018.82C1052.74 1020.14 1052.97 1021.25 1053.42 1022.17C1053.88 1023.08 1054.52 1023.77 1055.34 1024.25C1056.16 1024.72 1057.11 1024.95 1058.19 1024.95C1058.9 1024.95 1059.54 1024.86 1060.1 1024.66C1060.68 1024.45 1061.18 1024.15 1061.59 1023.75C1062.01 1023.34 1062.33 1022.83 1062.56 1022.23L1065.15 1022.95C1064.88 1023.83 1064.42 1024.61 1063.77 1025.27C1063.13 1025.93 1062.33 1026.45 1061.39 1026.82C1060.44 1027.18 1059.38 1027.36 1058.19 1027.36ZM1085.59 1027.36C1083.96 1027.36 1082.55 1026.98 1081.37 1026.2C1080.18 1025.43 1079.27 1024.37 1078.64 1023.01C1078 1021.66 1077.68 1020.11 1077.68 1018.36C1077.68 1016.59 1078.01 1015.03 1078.66 1013.67C1079.32 1012.31 1080.24 1011.24 1081.41 1010.48C1082.59 1009.7 1083.97 1009.32 1085.55 1009.32C1086.77 1009.32 1087.88 1009.55 1088.87 1010C1089.85 1010.45 1090.66 1011.09 1091.29 1011.91C1091.91 1012.73 1092.3 1013.68 1092.46 1014.77H1089.77C1089.57 1013.98 1089.12 1013.27 1088.41 1012.66C1087.71 1012.04 1086.77 1011.73 1085.59 1011.73C1084.55 1011.73 1083.63 1012 1082.84 1012.55C1082.06 1013.08 1081.45 1013.84 1081.01 1014.83C1080.58 1015.81 1080.37 1016.95 1080.37 1018.27C1080.37 1019.62 1080.58 1020.8 1081 1021.8C1081.43 1022.8 1082.04 1023.57 1082.82 1024.12C1083.61 1024.68 1084.53 1024.95 1085.59 1024.95C1086.29 1024.95 1086.92 1024.83 1087.49 1024.59C1088.06 1024.35 1088.54 1024 1088.93 1023.55C1089.33 1023.09 1089.61 1022.55 1089.77 1021.91H1092.46C1092.3 1022.94 1091.93 1023.87 1091.33 1024.69C1090.74 1025.51 1089.96 1026.16 1088.98 1026.65C1088.01 1027.12 1086.88 1027.36 1085.59 1027.36ZM1103.47 1027.36C1101.89 1027.36 1100.51 1026.99 1099.32 1026.24C1098.14 1025.49 1097.21 1024.44 1096.55 1023.09C1095.89 1021.74 1095.56 1020.17 1095.56 1018.36C1095.56 1016.55 1095.89 1014.96 1096.55 1013.6C1097.21 1012.25 1098.14 1011.19 1099.32 1010.44C1100.51 1009.69 1101.89 1009.32 1103.47 1009.32C1105.04 1009.32 1106.42 1009.69 1107.6 1010.44C1108.79 1011.19 1109.72 1012.25 1110.38 1013.6C1111.04 1014.96 1111.38 1016.55 1111.38 1018.36C1111.38 1020.17 1111.04 1021.74 1110.38 1023.09C1109.72 1024.44 1108.79 1025.49 1107.6 1026.24C1106.42 1026.99 1105.04 1027.36 1103.47 1027.36ZM1103.47 1024.95C1104.66 1024.95 1105.65 1024.65 1106.42 1024.03C1107.19 1023.42 1107.77 1022.61 1108.14 1021.61C1108.51 1020.61 1108.69 1019.53 1108.69 1018.36C1108.69 1017.2 1108.51 1016.11 1108.14 1015.1C1107.77 1014.09 1107.19 1013.28 1106.42 1012.66C1105.65 1012.04 1104.66 1011.73 1103.47 1011.73C1102.27 1011.73 1101.29 1012.04 1100.51 1012.66C1099.74 1013.28 1099.17 1014.09 1098.8 1015.1C1098.43 1016.11 1098.24 1017.2 1098.24 1018.36C1098.24 1019.53 1098.43 1020.61 1098.8 1021.61C1099.17 1022.61 1099.74 1023.42 1100.51 1024.03C1101.29 1024.65 1102.27 1024.95 1103.47 1024.95ZM1118.15 1016.5V1027H1115.47V1009.55H1118.06V1012.27H1118.29C1118.7 1011.39 1119.32 1010.67 1120.15 1010.14C1120.99 1009.59 1122.06 1009.32 1123.38 1009.32C1124.56 1009.32 1125.6 1009.56 1126.48 1010.05C1127.37 1010.52 1128.06 1011.25 1128.55 1012.23C1129.04 1013.2 1129.29 1014.42 1129.29 1015.91V1027H1126.61V1016.09C1126.61 1014.72 1126.25 1013.65 1125.54 1012.89C1124.83 1012.11 1123.85 1011.73 1122.61 1011.73C1121.75 1011.73 1120.99 1011.91 1120.31 1012.28C1119.64 1012.66 1119.12 1013.2 1118.73 1013.91C1118.35 1014.62 1118.15 1015.48 1118.15 1016.5ZM1140.78 1027.36C1139.33 1027.36 1138.04 1027 1136.93 1026.26C1135.81 1025.52 1134.94 1024.47 1134.31 1023.12C1133.69 1021.77 1133.37 1020.17 1133.37 1018.32C1133.37 1016.48 1133.69 1014.89 1134.31 1013.55C1134.94 1012.2 1135.82 1011.16 1136.94 1010.42C1138.06 1009.69 1139.36 1009.32 1140.83 1009.32C1141.96 1009.32 1142.86 1009.51 1143.52 1009.89C1144.19 1010.26 1144.69 1010.68 1145.04 1011.16C1145.4 1011.63 1145.67 1012.02 1145.87 1012.32H1146.1V1003.73H1148.78V1027H1146.19V1024.32H1145.87C1145.67 1024.64 1145.39 1025.04 1145.03 1025.52C1144.67 1026 1144.15 1026.43 1143.47 1026.81C1142.8 1027.18 1141.9 1027.36 1140.78 1027.36ZM1141.14 1024.95C1142.22 1024.95 1143.13 1024.67 1143.87 1024.11C1144.61 1023.55 1145.18 1022.76 1145.56 1021.76C1145.95 1020.75 1146.14 1019.59 1146.14 1018.27C1146.14 1016.97 1145.95 1015.83 1145.58 1014.85C1145.2 1013.87 1144.64 1013.1 1143.89 1012.56C1143.15 1012 1142.23 1011.73 1141.14 1011.73C1140.01 1011.73 1139.06 1012.02 1138.3 1012.6C1137.55 1013.18 1136.99 1013.96 1136.61 1014.95C1136.24 1015.94 1136.05 1017.05 1136.05 1018.27C1136.05 1019.52 1136.24 1020.64 1136.62 1021.66C1137.01 1022.67 1137.58 1023.47 1138.33 1024.07C1139.08 1024.66 1140.02 1024.95 1141.14 1024.95ZM1165.06 1019.86V1009.55H1167.75V1027H1165.06V1024.05H1164.88C1164.47 1024.93 1163.84 1025.69 1162.97 1026.31C1162.11 1026.92 1161.02 1027.23 1159.7 1027.23C1158.61 1027.23 1157.64 1026.99 1156.79 1026.51C1155.94 1026.03 1155.28 1025.3 1154.79 1024.33C1154.31 1023.35 1154.06 1022.12 1154.06 1020.64V1009.55H1156.75V1020.45C1156.75 1021.73 1157.1 1022.74 1157.81 1023.5C1158.53 1024.26 1159.45 1024.64 1160.56 1024.64C1161.23 1024.64 1161.91 1024.47 1162.6 1024.12C1163.29 1023.78 1163.88 1023.26 1164.35 1022.56C1164.83 1021.85 1165.06 1020.95 1165.06 1019.86ZM1172.66 1027V1009.55H1175.34V1027H1172.66ZM1174.02 1006.64C1173.5 1006.64 1173.05 1006.46 1172.67 1006.1C1172.3 1005.75 1172.11 1005.32 1172.11 1004.82C1172.11 1004.32 1172.3 1003.89 1172.67 1003.53C1173.05 1003.18 1173.5 1003 1174.02 1003C1174.54 1003 1174.99 1003.18 1175.36 1003.53C1175.74 1003.89 1175.93 1004.32 1175.93 1004.82C1175.93 1005.32 1175.74 1005.75 1175.36 1006.1C1174.99 1006.46 1174.54 1006.64 1174.02 1006.64ZM1187.84 1009.55V1011.82H1178.8V1009.55H1187.84ZM1181.43 1005.36H1184.12V1022C1184.12 1022.76 1184.22 1023.33 1184.44 1023.7C1184.67 1024.08 1184.96 1024.33 1185.31 1024.45C1185.66 1024.58 1186.04 1024.64 1186.43 1024.64C1186.73 1024.64 1186.97 1024.62 1187.16 1024.59C1187.35 1024.55 1187.5 1024.52 1187.62 1024.5L1188.16 1026.91C1187.98 1026.98 1187.72 1027.05 1187.4 1027.11C1187.07 1027.19 1186.66 1027.23 1186.16 1027.23C1185.4 1027.23 1184.66 1027.06 1183.93 1026.74C1183.21 1026.41 1182.62 1025.92 1182.14 1025.25C1181.67 1024.58 1181.43 1023.74 1181.43 1022.73V1005.36ZM1199.01 1027.36C1197.33 1027.36 1195.87 1026.99 1194.65 1026.25C1193.44 1025.5 1192.51 1024.45 1191.85 1023.11C1191.2 1021.77 1190.87 1020.2 1190.87 1018.41C1190.87 1016.62 1191.2 1015.05 1191.85 1013.68C1192.51 1012.31 1193.42 1011.24 1194.6 1010.48C1195.78 1009.7 1197.16 1009.32 1198.73 1009.32C1199.64 1009.32 1200.54 1009.47 1201.43 1009.77C1202.31 1010.08 1203.12 1010.57 1203.85 1011.25C1204.58 1011.92 1205.15 1012.82 1205.59 1013.93C1206.02 1015.05 1206.23 1016.42 1206.23 1018.05V1019.18H1192.78V1016.86H1203.51C1203.51 1015.88 1203.31 1015 1202.92 1014.23C1202.53 1013.45 1201.98 1012.84 1201.26 1012.4C1200.54 1011.95 1199.7 1011.73 1198.73 1011.73C1197.67 1011.73 1196.74 1011.99 1195.96 1012.52C1195.19 1013.05 1194.59 1013.73 1194.18 1014.57C1193.76 1015.41 1193.55 1016.31 1193.55 1017.27V1018.82C1193.55 1020.14 1193.78 1021.25 1194.23 1022.17C1194.7 1023.08 1195.34 1023.77 1196.15 1024.25C1196.97 1024.72 1197.92 1024.95 1199.01 1024.95C1199.71 1024.95 1200.35 1024.86 1200.92 1024.66C1201.49 1024.45 1201.99 1024.15 1202.4 1023.75C1202.82 1023.34 1203.14 1022.83 1203.37 1022.23L1205.96 1022.95C1205.69 1023.83 1205.23 1024.61 1204.59 1025.27C1203.94 1025.93 1203.15 1026.45 1202.2 1026.82C1201.25 1027.18 1200.19 1027.36 1199.01 1027.36Z" fill="black"/>
<path d="M1026.07 465V441.727H1040.02V444.227H1028.89V452.091H1038.98V454.591H1028.89V465H1026.07ZM1050.3 465.364C1048.72 465.364 1047.34 464.989 1046.15 464.239C1044.97 463.489 1044.04 462.439 1043.38 461.091C1042.72 459.742 1042.39 458.167 1042.39 456.364C1042.39 454.545 1042.72 452.958 1043.38 451.602C1044.04 450.246 1044.97 449.193 1046.15 448.443C1047.34 447.693 1048.72 447.318 1050.3 447.318C1051.87 447.318 1053.25 447.693 1054.43 448.443C1055.62 449.193 1056.55 450.246 1057.2 451.602C1057.87 452.958 1058.2 454.545 1058.2 456.364C1058.2 458.167 1057.87 459.742 1057.2 461.091C1056.55 462.439 1055.62 463.489 1054.43 464.239C1053.25 464.989 1051.87 465.364 1050.3 465.364ZM1050.3 462.955C1051.49 462.955 1052.48 462.648 1053.25 462.034C1054.02 461.42 1054.59 460.614 1054.97 459.614C1055.34 458.614 1055.52 457.53 1055.52 456.364C1055.52 455.197 1055.34 454.11 1054.97 453.102C1054.59 452.095 1054.02 451.28 1053.25 450.659C1052.48 450.038 1051.49 449.727 1050.3 449.727C1049.1 449.727 1048.11 450.038 1047.34 450.659C1046.57 451.28 1046 452.095 1045.62 453.102C1045.25 454.11 1045.07 455.197 1045.07 456.364C1045.07 457.53 1045.25 458.614 1045.62 459.614C1046 460.614 1046.57 461.42 1047.34 462.034C1048.11 462.648 1049.1 462.955 1050.3 462.955ZM1062.3 465V447.545H1064.89V450.182H1065.07C1065.39 449.318 1065.96 448.617 1066.8 448.08C1067.63 447.542 1068.57 447.273 1069.62 447.273C1069.81 447.273 1070.06 447.277 1070.36 447.284C1070.65 447.292 1070.87 447.303 1071.03 447.318V450.045C1070.93 450.023 1070.73 449.989 1070.4 449.943C1070.08 449.89 1069.75 449.864 1069.39 449.864C1068.54 449.864 1067.78 450.042 1067.12 450.398C1066.46 450.746 1065.93 451.231 1065.55 451.852C1065.17 452.466 1064.98 453.167 1064.98 453.955V465H1062.3ZM1074.2 465V447.545H1076.8V450.273H1077.02C1077.39 449.341 1077.97 448.617 1078.78 448.102C1079.59 447.58 1080.57 447.318 1081.7 447.318C1082.86 447.318 1083.81 447.58 1084.58 448.102C1085.35 448.617 1085.95 449.341 1086.39 450.273H1086.57C1087.02 449.371 1087.69 448.655 1088.58 448.125C1089.47 447.587 1090.55 447.318 1091.8 447.318C1093.36 447.318 1094.63 447.807 1095.62 448.784C1096.62 449.754 1097.11 451.265 1097.11 453.318V465H1094.43V453.318C1094.43 452.03 1094.08 451.11 1093.38 450.557C1092.67 450.004 1091.84 449.727 1090.89 449.727C1089.66 449.727 1088.71 450.098 1088.03 450.841C1087.36 451.576 1087.02 452.508 1087.02 453.636V465H1084.3V453.045C1084.3 452.053 1083.97 451.254 1083.33 450.648C1082.69 450.034 1081.86 449.727 1080.84 449.727C1080.14 449.727 1079.49 449.913 1078.89 450.284C1078.29 450.655 1077.8 451.17 1077.43 451.83C1077.07 452.481 1076.89 453.235 1076.89 454.091V465H1074.2ZM1113.02 457.864V447.545H1115.7V465H1113.02V462.045H1112.84C1112.43 462.932 1111.79 463.686 1110.93 464.307C1110.06 464.92 1108.97 465.227 1107.65 465.227C1106.56 465.227 1105.59 464.989 1104.74 464.511C1103.9 464.027 1103.23 463.299 1102.74 462.33C1102.26 461.352 1102.02 460.121 1102.02 458.636V447.545H1104.7V458.455C1104.7 459.727 1105.05 460.742 1105.77 461.5C1106.49 462.258 1107.4 462.636 1108.52 462.636C1109.18 462.636 1109.86 462.466 1110.55 462.125C1111.25 461.784 1111.83 461.261 1112.3 460.557C1112.78 459.852 1113.02 458.955 1113.02 457.864ZM1123.29 441.727V465H1120.61V441.727H1123.29ZM1135.52 465.364C1133.84 465.364 1132.39 464.992 1131.17 464.25C1129.96 463.5 1129.02 462.455 1128.36 461.114C1127.71 459.765 1127.39 458.197 1127.39 456.409C1127.39 454.621 1127.71 453.045 1128.36 451.682C1129.02 450.311 1129.94 449.242 1131.11 448.477C1132.3 447.705 1133.67 447.318 1135.25 447.318C1136.16 447.318 1137.06 447.47 1137.94 447.773C1138.83 448.076 1139.64 448.568 1140.36 449.25C1141.09 449.924 1141.67 450.818 1142.1 451.932C1142.53 453.045 1142.75 454.417 1142.75 456.045V457.182H1129.3V454.864H1140.02C1140.02 453.879 1139.83 453 1139.43 452.227C1139.05 451.455 1138.49 450.845 1137.77 450.398C1137.06 449.951 1136.22 449.727 1135.25 449.727C1134.18 449.727 1133.26 449.992 1132.48 450.523C1131.7 451.045 1131.11 451.727 1130.69 452.568C1130.28 453.409 1130.07 454.311 1130.07 455.273V456.818C1130.07 458.136 1130.3 459.254 1130.75 460.17C1131.21 461.08 1131.85 461.773 1132.67 462.25C1133.49 462.72 1134.44 462.955 1135.52 462.955C1136.23 462.955 1136.86 462.856 1137.43 462.659C1138.01 462.455 1138.5 462.152 1138.92 461.75C1139.34 461.341 1139.66 460.833 1139.89 460.227L1142.48 460.955C1142.2 461.833 1141.75 462.606 1141.1 463.273C1140.46 463.932 1139.66 464.447 1138.72 464.818C1137.77 465.182 1136.7 465.364 1135.52 465.364ZM1155.78 465V462.955L1163.47 454.545C1164.37 453.561 1165.11 452.705 1165.69 451.977C1166.28 451.242 1166.71 450.553 1166.99 449.909C1167.28 449.258 1167.42 448.576 1167.42 447.864C1167.42 447.045 1167.22 446.337 1166.83 445.739C1166.44 445.14 1165.91 444.678 1165.24 444.352C1164.56 444.027 1163.81 443.864 1162.97 443.864C1162.07 443.864 1161.29 444.049 1160.62 444.42C1159.97 444.784 1159.45 445.295 1159.09 445.955C1158.73 446.614 1158.56 447.386 1158.56 448.273H1155.88C1155.88 446.909 1156.19 445.712 1156.82 444.682C1157.45 443.652 1158.3 442.848 1159.39 442.273C1160.48 441.697 1161.7 441.409 1163.06 441.409C1164.42 441.409 1165.63 441.697 1166.68 442.273C1167.73 442.848 1168.56 443.625 1169.16 444.602C1169.76 445.58 1170.06 446.667 1170.06 447.864C1170.06 448.72 1169.9 449.557 1169.59 450.375C1169.29 451.186 1168.76 452.091 1168 453.091C1167.25 454.083 1166.21 455.295 1164.88 456.727L1159.65 462.318V462.5H1170.47V465H1155.78Z" fill="black"/>
<rect x="36" y="17" width="161" height="76" fill="#060202"/>
<path d="M77.0962 68V41.8182H80.2667V65.1875H92.4371V68H77.0962ZM104.914 68.4091C103.142 68.4091 101.586 67.9872 100.248 67.1435C98.9187 66.2997 97.8789 65.1193 97.1289 63.6023C96.3874 62.0852 96.0167 60.3125 96.0167 58.2841C96.0167 56.2386 96.3874 54.4531 97.1289 52.9276C97.8789 51.402 98.9187 50.2173 100.248 49.3736C101.586 48.5298 103.142 48.108 104.914 48.108C106.687 48.108 108.238 48.5298 109.568 49.3736C110.906 50.2173 111.946 51.402 112.687 52.9276C113.437 54.4531 113.812 56.2386 113.812 58.2841C113.812 60.3125 113.437 62.0852 112.687 63.6023C111.946 65.1193 110.906 66.2997 109.568 67.1435C108.238 67.9872 106.687 68.4091 104.914 68.4091ZM104.914 65.6989C106.261 65.6989 107.369 65.3537 108.238 64.6634C109.108 63.973 109.751 63.0653 110.169 61.9403C110.586 60.8153 110.795 59.5966 110.795 58.2841C110.795 56.9716 110.586 55.7486 110.169 54.6151C109.751 53.4815 109.108 52.5653 108.238 51.8665C107.369 51.1676 106.261 50.8182 104.914 50.8182C103.568 50.8182 102.46 51.1676 101.591 51.8665C100.721 52.5653 100.078 53.4815 99.6602 54.6151C99.2425 55.7486 99.0337 56.9716 99.0337 58.2841C99.0337 59.5966 99.2425 60.8153 99.6602 61.9403C100.078 63.0653 100.721 63.973 101.591 64.6634C102.46 65.3537 103.568 65.6989 104.914 65.6989ZM126.344 75.7727C124.886 75.7727 123.634 75.5852 122.585 75.2102C121.537 74.8438 120.663 74.358 119.964 73.7528C119.274 73.1563 118.724 72.517 118.315 71.8352L120.719 70.1477C120.991 70.5057 121.337 70.9148 121.754 71.375C122.172 71.8438 122.743 72.2486 123.467 72.5895C124.2 72.9389 125.159 73.1136 126.344 73.1136C127.929 73.1136 129.237 72.7301 130.268 71.9631C131.3 71.196 131.815 69.9943 131.815 68.358V64.3693H131.56C131.338 64.7273 131.023 65.1705 130.614 65.6989C130.213 66.2188 129.634 66.6832 128.875 67.0923C128.125 67.4929 127.111 67.6932 125.832 67.6932C124.247 67.6932 122.824 67.3182 121.562 66.5682C120.31 65.8182 119.317 64.7273 118.584 63.2955C117.859 61.8636 117.497 60.125 117.497 58.0795C117.497 56.0682 117.851 54.3168 118.558 52.8253C119.266 51.3253 120.25 50.1662 121.511 49.348C122.773 48.5213 124.23 48.108 125.884 48.108C127.162 48.108 128.176 48.321 128.926 48.7472C129.685 49.1648 130.264 49.642 130.665 50.179C131.074 50.7074 131.389 51.142 131.611 51.483H131.918V48.3636H134.832V68.5625C134.832 70.25 134.449 71.6222 133.682 72.679C132.923 73.7443 131.901 74.5241 130.614 75.0185C129.335 75.5213 127.912 75.7727 126.344 75.7727ZM126.241 64.983C127.452 64.983 128.474 64.706 129.31 64.152C130.145 63.598 130.78 62.8011 131.214 61.7614C131.649 60.7216 131.866 59.4773 131.866 58.0284C131.866 56.6136 131.653 55.3651 131.227 54.2827C130.801 53.2003 130.17 52.3523 129.335 51.7386C128.5 51.125 127.469 50.8182 126.241 50.8182C124.963 50.8182 123.898 51.142 123.045 51.7898C122.202 52.4375 121.567 53.3068 121.141 54.3977C120.723 55.4886 120.514 56.6989 120.514 58.0284C120.514 59.392 120.727 60.598 121.153 61.6463C121.588 62.6861 122.227 63.5043 123.071 64.1009C123.923 64.6889 124.98 64.983 126.241 64.983ZM148.332 68.4091C146.56 68.4091 145.004 67.9872 143.666 67.1435C142.337 66.2997 141.297 65.1193 140.547 63.6023C139.805 62.0852 139.435 60.3125 139.435 58.2841C139.435 56.2386 139.805 54.4531 140.547 52.9276C141.297 51.402 142.337 50.2173 143.666 49.3736C145.004 48.5298 146.56 48.108 148.332 48.108C150.105 48.108 151.656 48.5298 152.986 49.3736C154.324 50.2173 155.364 51.402 156.105 52.9276C156.855 54.4531 157.23 56.2386 157.23 58.2841C157.23 60.3125 156.855 62.0852 156.105 63.6023C155.364 65.1193 154.324 66.2997 152.986 67.1435C151.656 67.9872 150.105 68.4091 148.332 68.4091ZM148.332 65.6989C149.679 65.6989 150.787 65.3537 151.656 64.6634C152.526 63.973 153.169 63.0653 153.587 61.9403C154.004 60.8153 154.213 59.5966 154.213 58.2841C154.213 56.9716 154.004 55.7486 153.587 54.6151C153.169 53.4815 152.526 52.5653 151.656 51.8665C150.787 51.1676 149.679 50.8182 148.332 50.8182C146.986 50.8182 145.878 51.1676 145.009 51.8665C144.139 52.5653 143.496 53.4815 143.078 54.6151C142.661 55.7486 142.452 56.9716 142.452 58.2841C142.452 59.5966 142.661 60.8153 143.078 61.9403C143.496 63.0653 144.139 63.973 145.009 64.6634C145.878 65.3537 146.986 65.6989 148.332 65.6989Z" fill="white"/>
</g>
<defs>
<clipPath id="clip0_1_5">
<rect width="1440" height="1024" fill="white"/>
</clipPath>
</defs>
</svg>
