<svg width="1440" height="1024" viewBox="0 0 1440 1024" fill="none" xmlns="http://www.w3.org/2000/svg">
<g clip-path="url(#clip0_6_110)">
<rect width="1440" height="1024" fill="white"/>
<rect width="1440" height="110" fill="#D9D9D9"/>
<rect x="251" y="17" width="161" height="76" fill="#060202"/>
<path d="M269.724 67V43.7273H277.588C279.414 43.7273 280.906 44.0568 282.065 44.7159C283.232 45.3674 284.096 46.25 284.656 47.3636C285.217 48.4773 285.497 49.7197 285.497 51.0909C285.497 52.4621 285.217 53.7083 284.656 54.8295C284.103 55.9508 283.247 56.8447 282.088 57.5114C280.929 58.1705 279.444 58.5 277.634 58.5H271.997V56H277.543C278.793 56 279.796 55.7841 280.554 55.3523C281.312 54.9205 281.861 54.3371 282.202 53.6023C282.55 52.8598 282.724 52.0227 282.724 51.0909C282.724 50.1591 282.55 49.3258 282.202 48.5909C281.861 47.8561 281.308 47.2803 280.543 46.8636C279.777 46.4394 278.762 46.2273 277.497 46.2273H272.543V67H269.724ZM292.355 43.7273V67H289.673V43.7273H292.355ZM302.403 67.4091C301.297 67.4091 300.294 67.2008 299.392 66.7841C298.491 66.3598 297.775 65.75 297.244 64.9545C296.714 64.1515 296.449 63.1818 296.449 62.0455C296.449 61.0455 296.646 60.2348 297.04 59.6136C297.434 58.9848 297.96 58.4924 298.619 58.1364C299.278 57.7803 300.006 57.5152 300.801 57.3409C301.604 57.1591 302.411 57.0152 303.222 56.9091C304.282 56.7727 305.142 56.6705 305.801 56.6023C306.468 56.5265 306.953 56.4015 307.256 56.2273C307.566 56.053 307.722 55.75 307.722 55.3182V55.2273C307.722 54.1061 307.415 53.2348 306.801 52.6136C306.195 51.9924 305.275 51.6818 304.04 51.6818C302.759 51.6818 301.756 51.9621 301.028 52.5227C300.301 53.0833 299.79 53.6818 299.494 54.3182L296.949 53.4091C297.403 52.3485 298.009 51.5227 298.767 50.9318C299.532 50.3333 300.366 49.9167 301.267 49.6818C302.176 49.4394 303.07 49.3182 303.949 49.3182C304.509 49.3182 305.153 49.3864 305.881 49.5227C306.616 49.6515 307.324 49.9205 308.006 50.3295C308.695 50.7386 309.267 51.3561 309.722 52.1818C310.176 53.0076 310.403 54.1136 310.403 55.5V67H307.722V64.6364H307.585C307.403 65.0152 307.1 65.4205 306.676 65.8523C306.252 66.2841 305.688 66.6515 304.983 66.9545C304.278 67.2576 303.419 67.4091 302.403 67.4091ZM302.812 65C303.873 65 304.767 64.7917 305.494 64.375C306.229 63.9583 306.782 63.4205 307.153 62.7614C307.532 62.1023 307.722 61.4091 307.722 60.6818V58.2273C307.608 58.3636 307.358 58.4886 306.972 58.6023C306.593 58.7083 306.153 58.803 305.653 58.8864C305.161 58.9621 304.68 59.0303 304.21 59.0909C303.748 59.1439 303.373 59.1894 303.085 59.2273C302.388 59.3182 301.737 59.4659 301.131 59.6705C300.532 59.8674 300.047 60.1667 299.676 60.5682C299.313 60.9621 299.131 61.5 299.131 62.1818C299.131 63.1136 299.475 63.8182 300.165 64.2955C300.862 64.7652 301.744 65 302.812 65ZM317.98 56.5V67H315.298V49.5455H317.889V52.2727H318.116C318.526 51.3864 319.147 50.6742 319.98 50.1364C320.813 49.5909 321.889 49.3182 323.207 49.3182C324.389 49.3182 325.423 49.5606 326.31 50.0455C327.196 50.5227 327.885 51.25 328.378 52.2273C328.87 53.197 329.116 54.4242 329.116 55.9091V67H326.435V56.0909C326.435 54.7197 326.079 53.6515 325.366 52.8864C324.654 52.1136 323.677 51.7273 322.435 51.7273C321.579 51.7273 320.813 51.9129 320.139 52.2841C319.473 52.6553 318.946 53.197 318.56 53.9091C318.173 54.6212 317.98 55.4848 317.98 56.5ZM336.699 56.5V67H334.017V49.5455H336.608V52.2727H336.835C337.244 51.3864 337.866 50.6742 338.699 50.1364C339.532 49.5909 340.608 49.3182 341.926 49.3182C343.108 49.3182 344.142 49.5606 345.028 50.0455C345.915 50.5227 346.604 51.25 347.097 52.2273C347.589 53.197 347.835 54.4242 347.835 55.9091V67H345.153V56.0909C345.153 54.7197 344.797 53.6515 344.085 52.8864C343.373 52.1136 342.396 51.7273 341.153 51.7273C340.297 51.7273 339.532 51.9129 338.858 52.2841C338.191 52.6553 337.665 53.197 337.278 53.9091C336.892 54.6212 336.699 55.4848 336.699 56.5ZM352.736 67V49.5455H355.418V67H352.736ZM354.099 46.6364C353.577 46.6364 353.126 46.4583 352.747 46.1023C352.376 45.7462 352.19 45.3182 352.19 44.8182C352.19 44.3182 352.376 43.8902 352.747 43.5341C353.126 43.178 353.577 43 354.099 43C354.622 43 355.069 43.178 355.44 43.5341C355.819 43.8902 356.009 44.3182 356.009 44.8182C356.009 45.3182 355.819 45.7462 355.44 46.1023C355.069 46.4583 354.622 46.6364 354.099 46.6364ZM363.011 56.5V67H360.33V49.5455H362.92V52.2727H363.148C363.557 51.3864 364.178 50.6742 365.011 50.1364C365.845 49.5909 366.92 49.3182 368.239 49.3182C369.42 49.3182 370.455 49.5606 371.341 50.0455C372.227 50.5227 372.917 51.25 373.409 52.2273C373.902 53.197 374.148 54.4242 374.148 55.9091V67H371.466V56.0909C371.466 54.7197 371.11 53.6515 370.398 52.8864C369.686 52.1136 368.708 51.7273 367.466 51.7273C366.61 51.7273 365.845 51.9129 365.17 52.2841C364.504 52.6553 363.977 53.197 363.591 53.9091C363.205 54.6212 363.011 55.4848 363.011 56.5ZM386.094 73.9091C384.798 73.9091 383.685 73.7424 382.753 73.4091C381.821 73.0833 381.045 72.6515 380.423 72.1136C379.81 71.5833 379.321 71.0152 378.957 70.4091L381.094 68.9091C381.336 69.2273 381.643 69.5909 382.014 70C382.385 70.4167 382.893 70.7765 383.537 71.0795C384.188 71.3902 385.041 71.5455 386.094 71.5455C387.503 71.5455 388.666 71.2045 389.582 70.5227C390.499 69.8409 390.957 68.7727 390.957 67.3182V63.7727H390.73C390.533 64.0909 390.253 64.4848 389.889 64.9545C389.533 65.4167 389.018 65.8295 388.344 66.1932C387.677 66.5492 386.776 66.7273 385.639 66.7273C384.23 66.7273 382.965 66.3939 381.844 65.7273C380.73 65.0606 379.848 64.0909 379.196 62.8182C378.552 61.5455 378.23 60 378.23 58.1818C378.23 56.3939 378.545 54.8371 379.173 53.5114C379.802 52.178 380.677 51.1477 381.798 50.4205C382.92 49.6856 384.215 49.3182 385.685 49.3182C386.821 49.3182 387.723 49.5076 388.389 49.8864C389.063 50.2576 389.579 50.6818 389.935 51.1591C390.298 51.6288 390.579 52.0152 390.776 52.3182H391.048V49.5455H393.639V67.5C393.639 69 393.298 70.2197 392.616 71.1591C391.942 72.1061 391.033 72.7992 389.889 73.2386C388.753 73.6856 387.488 73.9091 386.094 73.9091ZM386.003 64.3182C387.079 64.3182 387.988 64.072 388.73 63.5795C389.473 63.0871 390.037 62.3788 390.423 61.4545C390.81 60.5303 391.003 59.4242 391.003 58.1364C391.003 56.8788 390.813 55.7689 390.435 54.8068C390.056 53.8447 389.495 53.0909 388.753 52.5455C388.01 52 387.094 51.7273 386.003 51.7273C384.866 51.7273 383.92 52.0152 383.162 52.5909C382.412 53.1667 381.848 53.9394 381.469 54.9091C381.098 55.8788 380.912 56.9545 380.912 58.1364C380.912 59.3485 381.101 60.4205 381.48 61.3523C381.866 62.2765 382.435 63.0038 383.185 63.5341C383.942 64.0568 384.882 64.3182 386.003 64.3182Z" fill="white"/>
<rect x="681" y="17" width="161" height="76" fill="#060202"/>
<path d="M706.327 51H703.509C703.342 50.1894 703.05 49.4773 702.634 48.8636C702.224 48.25 701.724 47.7348 701.134 47.3182C700.55 46.8939 699.902 46.5758 699.19 46.3636C698.478 46.1515 697.736 46.0455 696.963 46.0455C695.554 46.0455 694.277 46.4015 693.134 47.1136C691.997 47.8258 691.092 48.875 690.418 50.2614C689.751 51.6477 689.418 53.3485 689.418 55.3636C689.418 57.3788 689.751 59.0795 690.418 60.4659C691.092 61.8523 691.997 62.9015 693.134 63.6136C694.277 64.3258 695.554 64.6818 696.963 64.6818C697.736 64.6818 698.478 64.5758 699.19 64.3636C699.902 64.1515 700.55 63.8371 701.134 63.4205C701.724 62.9962 702.224 62.4773 702.634 61.8636C703.05 61.2424 703.342 60.5303 703.509 59.7273H706.327C706.115 60.9167 705.728 61.9811 705.168 62.9205C704.607 63.8598 703.91 64.6591 703.077 65.3182C702.243 65.9697 701.308 66.4659 700.27 66.8068C699.24 67.1477 698.137 67.3182 696.963 67.3182C694.978 67.3182 693.213 66.8333 691.668 65.8636C690.122 64.8939 688.906 63.5152 688.02 61.7273C687.134 59.9394 686.69 57.8182 686.69 55.3636C686.69 52.9091 687.134 50.7879 688.02 49C688.906 47.2121 690.122 45.8333 691.668 44.8636C693.213 43.8939 694.978 43.4091 696.963 43.4091C698.137 43.4091 699.24 43.5795 700.27 43.9205C701.308 44.2614 702.243 44.7614 703.077 45.4205C703.91 46.072 704.607 46.8674 705.168 47.8068C705.728 48.7386 706.115 49.803 706.327 51ZM715.653 67.4091C714.547 67.4091 713.544 67.2008 712.642 66.7841C711.741 66.3598 711.025 65.75 710.494 64.9545C709.964 64.1515 709.699 63.1818 709.699 62.0455C709.699 61.0455 709.896 60.2348 710.29 59.6136C710.684 58.9848 711.21 58.4924 711.869 58.1364C712.528 57.7803 713.256 57.5152 714.051 57.3409C714.854 57.1591 715.661 57.0152 716.472 56.9091C717.532 56.7727 718.392 56.6705 719.051 56.6023C719.718 56.5265 720.203 56.4015 720.506 56.2273C720.816 56.053 720.972 55.75 720.972 55.3182V55.2273C720.972 54.1061 720.665 53.2348 720.051 52.6136C719.445 51.9924 718.525 51.6818 717.29 51.6818C716.009 51.6818 715.006 51.9621 714.278 52.5227C713.551 53.0833 713.04 53.6818 712.744 54.3182L710.199 53.4091C710.653 52.3485 711.259 51.5227 712.017 50.9318C712.782 50.3333 713.616 49.9167 714.517 49.6818C715.426 49.4394 716.32 49.3182 717.199 49.3182C717.759 49.3182 718.403 49.3864 719.131 49.5227C719.866 49.6515 720.574 49.9205 721.256 50.3295C721.945 50.7386 722.517 51.3561 722.972 52.1818C723.426 53.0076 723.653 54.1136 723.653 55.5V67H720.972V64.6364H720.835C720.653 65.0152 720.35 65.4205 719.926 65.8523C719.502 66.2841 718.938 66.6515 718.233 66.9545C717.528 67.2576 716.669 67.4091 715.653 67.4091ZM716.062 65C717.123 65 718.017 64.7917 718.744 64.375C719.479 63.9583 720.032 63.4205 720.403 62.7614C720.782 62.1023 720.972 61.4091 720.972 60.6818V58.2273C720.858 58.3636 720.608 58.4886 720.222 58.6023C719.843 58.7083 719.403 58.803 718.903 58.8864C718.411 58.9621 717.93 59.0303 717.46 59.0909C716.998 59.1439 716.623 59.1894 716.335 59.2273C715.638 59.3182 714.987 59.4659 714.381 59.6705C713.782 59.8674 713.297 60.1667 712.926 60.5682C712.563 60.9621 712.381 61.5 712.381 62.1818C712.381 63.1136 712.725 63.8182 713.415 64.2955C714.112 64.7652 714.994 65 716.062 65ZM731.23 56.5V67H728.548V49.5455H731.139V52.2727H731.366C731.776 51.3864 732.397 50.6742 733.23 50.1364C734.063 49.5909 735.139 49.3182 736.457 49.3182C737.639 49.3182 738.673 49.5606 739.56 50.0455C740.446 50.5227 741.135 51.25 741.628 52.2273C742.12 53.197 742.366 54.4242 742.366 55.9091V67H739.685V56.0909C739.685 54.7197 739.329 53.6515 738.616 52.8864C737.904 52.1136 736.927 51.7273 735.685 51.7273C734.829 51.7273 734.063 51.9129 733.389 52.2841C732.723 52.6553 732.196 53.197 731.81 53.9091C731.423 54.6212 731.23 55.4848 731.23 56.5ZM753.858 67.3636C752.403 67.3636 751.119 66.9962 750.006 66.2614C748.892 65.5189 748.021 64.4735 747.392 63.125C746.763 61.7689 746.449 60.1667 746.449 58.3182C746.449 56.4848 746.763 54.8939 747.392 53.5455C748.021 52.197 748.896 51.1553 750.017 50.4205C751.138 49.6856 752.434 49.3182 753.903 49.3182C755.04 49.3182 755.938 49.5076 756.597 49.8864C757.263 50.2576 757.771 50.6818 758.119 51.1591C758.475 51.6288 758.752 52.0152 758.949 52.3182H759.176V43.7273H761.858V67H759.267V64.3182H758.949C758.752 64.6364 758.472 65.0379 758.108 65.5227C757.744 66 757.225 66.428 756.551 66.8068C755.877 67.178 754.979 67.3636 753.858 67.3636ZM754.222 64.9545C755.297 64.9545 756.206 64.6742 756.949 64.1136C757.691 63.5455 758.256 62.7614 758.642 61.7614C759.028 60.7538 759.222 59.5909 759.222 58.2727C759.222 56.9697 759.032 55.8295 758.653 54.8523C758.275 53.8674 757.714 53.1023 756.972 52.5568C756.229 52.0038 755.313 51.7273 754.222 51.7273C753.085 51.7273 752.138 52.0189 751.381 52.6023C750.631 53.178 750.066 53.9621 749.688 54.9545C749.316 55.9394 749.131 57.0455 749.131 58.2727C749.131 59.5152 749.32 60.6439 749.699 61.6591C750.085 62.6667 750.653 63.4697 751.403 64.0682C752.161 64.6591 753.1 64.9545 754.222 64.9545ZM767.142 67V49.5455H769.824V67H767.142ZM768.506 46.6364C767.983 46.6364 767.532 46.4583 767.153 46.1023C766.782 45.7462 766.597 45.3182 766.597 44.8182C766.597 44.3182 766.782 43.8902 767.153 43.5341C767.532 43.178 767.983 43 768.506 43C769.028 43 769.475 43.178 769.847 43.5341C770.225 43.8902 770.415 44.3182 770.415 44.8182C770.415 45.3182 770.225 45.7462 769.847 46.1023C769.475 46.4583 769.028 46.6364 768.506 46.6364ZM781.327 67.3636C779.872 67.3636 778.588 66.9962 777.474 66.2614C776.361 65.5189 775.49 64.4735 774.861 63.125C774.232 61.7689 773.918 60.1667 773.918 58.3182C773.918 56.4848 774.232 54.8939 774.861 53.5455C775.49 52.197 776.365 51.1553 777.486 50.4205C778.607 49.6856 779.902 49.3182 781.372 49.3182C782.509 49.3182 783.406 49.5076 784.065 49.8864C784.732 50.2576 785.24 50.6818 785.588 51.1591C785.944 51.6288 786.221 52.0152 786.418 52.3182H786.645V43.7273H789.327V67H786.736V64.3182H786.418C786.221 64.6364 785.94 65.0379 785.577 65.5227C785.213 66 784.694 66.428 784.02 66.8068C783.346 67.178 782.448 67.3636 781.327 67.3636ZM781.69 64.9545C782.766 64.9545 783.675 64.6742 784.418 64.1136C785.16 63.5455 785.724 62.7614 786.111 61.7614C786.497 60.7538 786.69 59.5909 786.69 58.2727C786.69 56.9697 786.501 55.8295 786.122 54.8523C785.743 53.8674 785.183 53.1023 784.44 52.5568C783.698 52.0038 782.781 51.7273 781.69 51.7273C780.554 51.7273 779.607 52.0189 778.849 52.6023C778.099 53.178 777.535 53.9621 777.156 54.9545C776.785 55.9394 776.599 57.0455 776.599 58.2727C776.599 59.5152 776.789 60.6439 777.168 61.6591C777.554 62.6667 778.122 63.4697 778.872 64.0682C779.63 64.6591 780.569 64.9545 781.69 64.9545ZM799.747 67.4091C798.641 67.4091 797.637 67.2008 796.736 66.7841C795.834 66.3598 795.118 65.75 794.588 64.9545C794.058 64.1515 793.793 63.1818 793.793 62.0455C793.793 61.0455 793.99 60.2348 794.384 59.6136C794.777 58.9848 795.304 58.4924 795.963 58.1364C796.622 57.7803 797.349 57.5152 798.145 57.3409C798.948 57.1591 799.755 57.0152 800.565 56.9091C801.626 56.7727 802.486 56.6705 803.145 56.6023C803.812 56.5265 804.296 56.4015 804.599 56.2273C804.91 56.053 805.065 55.75 805.065 55.3182V55.2273C805.065 54.1061 804.759 53.2348 804.145 52.6136C803.539 51.9924 802.618 51.6818 801.384 51.6818C800.103 51.6818 799.099 51.9621 798.372 52.5227C797.645 53.0833 797.134 53.6818 796.838 54.3182L794.293 53.4091C794.747 52.3485 795.353 51.5227 796.111 50.9318C796.876 50.3333 797.709 49.9167 798.611 49.6818C799.52 49.4394 800.414 49.3182 801.293 49.3182C801.853 49.3182 802.497 49.3864 803.224 49.5227C803.959 49.6515 804.668 49.9205 805.349 50.3295C806.039 50.7386 806.611 51.3561 807.065 52.1818C807.52 53.0076 807.747 54.1136 807.747 55.5V67H805.065V64.6364H804.929C804.747 65.0152 804.444 65.4205 804.02 65.8523C803.596 66.2841 803.031 66.6515 802.327 66.9545C801.622 67.2576 800.762 67.4091 799.747 67.4091ZM800.156 65C801.217 65 802.111 64.7917 802.838 64.375C803.573 63.9583 804.126 63.4205 804.497 62.7614C804.876 62.1023 805.065 61.4091 805.065 60.6818V58.2273C804.952 58.3636 804.702 58.4886 804.315 58.6023C803.937 58.7083 803.497 58.803 802.997 58.8864C802.505 58.9621 802.024 59.0303 801.554 59.0909C801.092 59.1439 800.717 59.1894 800.429 59.2273C799.732 59.3182 799.08 59.4659 798.474 59.6705C797.876 59.8674 797.391 60.1667 797.02 60.5682C796.656 60.9621 796.474 61.5 796.474 62.1818C796.474 63.1136 796.819 63.8182 797.509 64.2955C798.205 64.7652 799.088 65 800.156 65ZM820.233 49.5455V51.8182H811.188V49.5455H820.233ZM813.824 45.3636H816.506V62C816.506 62.7576 816.616 63.3258 816.835 63.7045C817.063 64.0758 817.35 64.3258 817.699 64.4545C818.055 64.5758 818.43 64.6364 818.824 64.6364C819.119 64.6364 819.362 64.6212 819.551 64.5909C819.741 64.553 819.892 64.5227 820.006 64.5L820.551 66.9091C820.369 66.9773 820.116 67.0455 819.79 67.1136C819.464 67.1894 819.051 67.2273 818.551 67.2273C817.794 67.2273 817.051 67.0644 816.324 66.7386C815.604 66.4129 815.006 65.9167 814.528 65.25C814.059 64.5833 813.824 63.7424 813.824 62.7273V45.3636ZM836.318 53.4545L833.909 54.1364C833.758 53.7348 833.534 53.3447 833.239 52.9659C832.951 52.5795 832.557 52.2614 832.057 52.0114C831.557 51.7614 830.917 51.6364 830.136 51.6364C829.068 51.6364 828.178 51.8826 827.466 52.375C826.761 52.8598 826.409 53.4773 826.409 54.2273C826.409 54.8939 826.652 55.4205 827.136 55.8068C827.621 56.1932 828.379 56.5152 829.409 56.7727L832 57.4091C833.561 57.7879 834.723 58.3674 835.489 59.1477C836.254 59.9205 836.636 60.9167 836.636 62.1364C836.636 63.1364 836.348 64.0303 835.773 64.8182C835.205 65.6061 834.409 66.2273 833.386 66.6818C832.364 67.1364 831.174 67.3636 829.818 67.3636C828.038 67.3636 826.564 66.9773 825.398 66.2045C824.231 65.4318 823.492 64.303 823.182 62.8182L825.727 62.1818C825.97 63.1212 826.428 63.8258 827.102 64.2955C827.784 64.7652 828.674 65 829.773 65C831.023 65 832.015 64.7348 832.75 64.2045C833.492 63.6667 833.864 63.0227 833.864 62.2727C833.864 61.6667 833.652 61.1591 833.227 60.75C832.803 60.3333 832.152 60.0227 831.273 59.8182L828.364 59.1364C826.765 58.7576 825.591 58.1705 824.841 57.375C824.098 56.572 823.727 55.5682 823.727 54.3636C823.727 53.3788 824.004 52.5076 824.557 51.75C825.117 50.9924 825.879 50.3977 826.841 49.9659C827.811 49.5341 828.909 49.3182 830.136 49.3182C831.864 49.3182 833.22 49.697 834.205 50.4545C835.197 51.2121 835.902 52.2121 836.318 53.4545Z" fill="white"/>
<rect x="466" y="17" width="161" height="76" fill="#060202"/>
<path d="M490.858 51H488.04C487.873 50.1894 487.581 49.4773 487.165 48.8636C486.756 48.25 486.256 47.7348 485.665 47.3182C485.081 46.8939 484.434 46.5758 483.722 46.3636C483.009 46.1515 482.267 46.0455 481.494 46.0455C480.085 46.0455 478.809 46.4015 477.665 47.1136C476.528 47.8258 475.623 48.875 474.949 50.2614C474.282 51.6477 473.949 53.3485 473.949 55.3636C473.949 57.3788 474.282 59.0795 474.949 60.4659C475.623 61.8523 476.528 62.9015 477.665 63.6136C478.809 64.3258 480.085 64.6818 481.494 64.6818C482.267 64.6818 483.009 64.5758 483.722 64.3636C484.434 64.1515 485.081 63.8371 485.665 63.4205C486.256 62.9962 486.756 62.4773 487.165 61.8636C487.581 61.2424 487.873 60.5303 488.04 59.7273H490.858C490.646 60.9167 490.259 61.9811 489.699 62.9205C489.138 63.8598 488.441 64.6591 487.608 65.3182C486.775 65.9697 485.839 66.4659 484.801 66.8068C483.771 67.1477 482.669 67.3182 481.494 67.3182C479.509 67.3182 477.744 66.8333 476.199 65.8636C474.653 64.8939 473.438 63.5152 472.551 61.7273C471.665 59.9394 471.222 57.8182 471.222 55.3636C471.222 52.9091 471.665 50.7879 472.551 49C473.438 47.2121 474.653 45.8333 476.199 44.8636C477.744 43.8939 479.509 43.4091 481.494 43.4091C482.669 43.4091 483.771 43.5795 484.801 43.9205C485.839 44.2614 486.775 44.7614 487.608 45.4205C488.441 46.072 489.138 46.8674 489.699 47.8068C490.259 48.7386 490.646 49.803 490.858 51ZM500.185 67.4091C499.079 67.4091 498.075 67.2008 497.173 66.7841C496.272 66.3598 495.556 65.75 495.026 64.9545C494.495 64.1515 494.23 63.1818 494.23 62.0455C494.23 61.0455 494.427 60.2348 494.821 59.6136C495.215 58.9848 495.741 58.4924 496.401 58.1364C497.06 57.7803 497.787 57.5152 498.582 57.3409C499.385 57.1591 500.192 57.0152 501.003 56.9091C502.063 56.7727 502.923 56.6705 503.582 56.6023C504.249 56.5265 504.734 56.4015 505.037 56.2273C505.348 56.053 505.503 55.75 505.503 55.3182V55.2273C505.503 54.1061 505.196 53.2348 504.582 52.6136C503.976 51.9924 503.056 51.6818 501.821 51.6818C500.541 51.6818 499.537 51.9621 498.81 52.5227C498.082 53.0833 497.571 53.6818 497.276 54.3182L494.73 53.4091C495.185 52.3485 495.791 51.5227 496.548 50.9318C497.313 50.3333 498.147 49.9167 499.048 49.6818C499.957 49.4394 500.851 49.3182 501.73 49.3182C502.291 49.3182 502.935 49.3864 503.662 49.5227C504.397 49.6515 505.105 49.9205 505.787 50.3295C506.476 50.7386 507.048 51.3561 507.503 52.1818C507.957 53.0076 508.185 54.1136 508.185 55.5V67H505.503V64.6364H505.366C505.185 65.0152 504.882 65.4205 504.457 65.8523C504.033 66.2841 503.469 66.6515 502.764 66.9545C502.06 67.2576 501.2 67.4091 500.185 67.4091ZM500.594 65C501.654 65 502.548 64.7917 503.276 64.375C504.01 63.9583 504.563 63.4205 504.935 62.7614C505.313 62.1023 505.503 61.4091 505.503 60.6818V58.2273C505.389 58.3636 505.139 58.4886 504.753 58.6023C504.374 58.7083 503.935 58.803 503.435 58.8864C502.942 58.9621 502.461 59.0303 501.991 59.0909C501.529 59.1439 501.154 59.1894 500.866 59.2273C500.17 59.3182 499.518 59.4659 498.912 59.6705C498.313 59.8674 497.829 60.1667 497.457 60.5682C497.094 60.9621 496.912 61.5 496.912 62.1818C496.912 63.1136 497.257 63.8182 497.946 64.2955C498.643 64.7652 499.526 65 500.594 65ZM520.67 49.5455V51.8182H511.625V49.5455H520.67ZM514.261 45.3636H516.943V62C516.943 62.7576 517.053 63.3258 517.273 63.7045C517.5 64.0758 517.788 64.3258 518.136 64.4545C518.492 64.5758 518.867 64.6364 519.261 64.6364C519.557 64.6364 519.799 64.6212 519.989 64.5909C520.178 64.553 520.33 64.5227 520.443 64.5L520.989 66.9091C520.807 66.9773 520.553 67.0455 520.227 67.1136C519.902 67.1894 519.489 67.2273 518.989 67.2273C518.231 67.2273 517.489 67.0644 516.761 66.7386C516.042 66.4129 515.443 65.9167 514.966 65.25C514.496 64.5833 514.261 63.7424 514.261 62.7273V45.3636ZM529.841 67.4091C528.735 67.4091 527.731 67.2008 526.83 66.7841C525.928 66.3598 525.212 65.75 524.682 64.9545C524.152 64.1515 523.886 63.1818 523.886 62.0455C523.886 61.0455 524.083 60.2348 524.477 59.6136C524.871 58.9848 525.398 58.4924 526.057 58.1364C526.716 57.7803 527.443 57.5152 528.239 57.3409C529.042 57.1591 529.848 57.0152 530.659 56.9091C531.72 56.7727 532.58 56.6705 533.239 56.6023C533.905 56.5265 534.39 56.4015 534.693 56.2273C535.004 56.053 535.159 55.75 535.159 55.3182V55.2273C535.159 54.1061 534.852 53.2348 534.239 52.6136C533.633 51.9924 532.712 51.6818 531.477 51.6818C530.197 51.6818 529.193 51.9621 528.466 52.5227C527.739 53.0833 527.227 53.6818 526.932 54.3182L524.386 53.4091C524.841 52.3485 525.447 51.5227 526.205 50.9318C526.97 50.3333 527.803 49.9167 528.705 49.6818C529.614 49.4394 530.508 49.3182 531.386 49.3182C531.947 49.3182 532.591 49.3864 533.318 49.5227C534.053 49.6515 534.761 49.9205 535.443 50.3295C536.133 50.7386 536.705 51.3561 537.159 52.1818C537.614 53.0076 537.841 54.1136 537.841 55.5V67H535.159V64.6364H535.023C534.841 65.0152 534.538 65.4205 534.114 65.8523C533.689 66.2841 533.125 66.6515 532.42 66.9545C531.716 67.2576 530.856 67.4091 529.841 67.4091ZM530.25 65C531.311 65 532.205 64.7917 532.932 64.375C533.667 63.9583 534.22 63.4205 534.591 62.7614C534.97 62.1023 535.159 61.4091 535.159 60.6818V58.2273C535.045 58.3636 534.795 58.4886 534.409 58.6023C534.03 58.7083 533.591 58.803 533.091 58.8864C532.598 58.9621 532.117 59.0303 531.648 59.0909C531.186 59.1439 530.811 59.1894 530.523 59.2273C529.826 59.3182 529.174 59.4659 528.568 59.6705C527.97 59.8674 527.485 60.1667 527.114 60.5682C526.75 60.9621 526.568 61.5 526.568 62.1818C526.568 63.1136 526.913 63.8182 527.602 64.2955C528.299 64.7652 529.182 65 530.25 65ZM545.418 43.7273V67H542.736V43.7273H545.418ZM557.42 67.3636C555.845 67.3636 554.462 66.9886 553.273 66.2386C552.091 65.4886 551.167 64.4394 550.5 63.0909C549.841 61.7424 549.511 60.1667 549.511 58.3636C549.511 56.5455 549.841 54.9583 550.5 53.6023C551.167 52.2462 552.091 51.1932 553.273 50.4432C554.462 49.6932 555.845 49.3182 557.42 49.3182C558.996 49.3182 560.375 49.6932 561.557 50.4432C562.746 51.1932 563.67 52.2462 564.33 53.6023C564.996 54.9583 565.33 56.5455 565.33 58.3636C565.33 60.1667 564.996 61.7424 564.33 63.0909C563.67 64.4394 562.746 65.4886 561.557 66.2386C560.375 66.9886 558.996 67.3636 557.42 67.3636ZM557.42 64.9545C558.617 64.9545 559.602 64.6477 560.375 64.0341C561.148 63.4205 561.72 62.6136 562.091 61.6136C562.462 60.6136 562.648 59.5303 562.648 58.3636C562.648 57.197 562.462 56.1098 562.091 55.1023C561.72 54.0947 561.148 53.2803 560.375 52.6591C559.602 52.0379 558.617 51.7273 557.42 51.7273C556.223 51.7273 555.239 52.0379 554.466 52.6591C553.693 53.2803 553.121 54.0947 552.75 55.1023C552.379 56.1098 552.193 57.197 552.193 58.3636C552.193 59.5303 552.379 60.6136 552.75 61.6136C553.121 62.6136 553.693 63.4205 554.466 64.0341C555.239 64.6477 556.223 64.9545 557.42 64.9545ZM576.469 73.9091C575.173 73.9091 574.06 73.7424 573.128 73.4091C572.196 73.0833 571.42 72.6515 570.798 72.1136C570.185 71.5833 569.696 71.0152 569.332 70.4091L571.469 68.9091C571.711 69.2273 572.018 69.5909 572.389 70C572.76 70.4167 573.268 70.7765 573.912 71.0795C574.563 71.3902 575.416 71.5455 576.469 71.5455C577.878 71.5455 579.041 71.2045 579.957 70.5227C580.874 69.8409 581.332 68.7727 581.332 67.3182V63.7727H581.105C580.908 64.0909 580.628 64.4848 580.264 64.9545C579.908 65.4167 579.393 65.8295 578.719 66.1932C578.052 66.5492 577.151 66.7273 576.014 66.7273C574.605 66.7273 573.34 66.3939 572.219 65.7273C571.105 65.0606 570.223 64.0909 569.571 62.8182C568.927 61.5455 568.605 60 568.605 58.1818C568.605 56.3939 568.92 54.8371 569.548 53.5114C570.177 52.178 571.052 51.1477 572.173 50.4205C573.295 49.6856 574.59 49.3182 576.06 49.3182C577.196 49.3182 578.098 49.5076 578.764 49.8864C579.438 50.2576 579.954 50.6818 580.31 51.1591C580.673 51.6288 580.954 52.0152 581.151 52.3182H581.423V49.5455H584.014V67.5C584.014 69 583.673 70.2197 582.991 71.1591C582.317 72.1061 581.408 72.7992 580.264 73.2386C579.128 73.6856 577.863 73.9091 576.469 73.9091ZM576.378 64.3182C577.454 64.3182 578.363 64.072 579.105 63.5795C579.848 63.0871 580.412 62.3788 580.798 61.4545C581.185 60.5303 581.378 59.4242 581.378 58.1364C581.378 56.8788 581.188 55.7689 580.81 54.8068C580.431 53.8447 579.87 53.0909 579.128 52.5455C578.385 52 577.469 51.7273 576.378 51.7273C575.241 51.7273 574.295 52.0152 573.537 52.5909C572.787 53.1667 572.223 53.9394 571.844 54.9091C571.473 55.8788 571.287 56.9545 571.287 58.1364C571.287 59.3485 571.476 60.4205 571.855 61.3523C572.241 62.2765 572.81 63.0038 573.56 63.5341C574.317 64.0568 575.257 64.3182 576.378 64.3182ZM599.923 59.8636V49.5455H602.605V67H599.923V64.0455H599.741C599.332 64.9318 598.696 65.6856 597.832 66.3068C596.969 66.9205 595.878 67.2273 594.56 67.2273C593.469 67.2273 592.499 66.9886 591.651 66.5114C590.802 66.0265 590.135 65.2992 589.651 64.3295C589.166 63.3523 588.923 62.1212 588.923 60.6364V49.5455H591.605V60.4545C591.605 61.7273 591.961 62.7424 592.673 63.5C593.393 64.2576 594.31 64.6364 595.423 64.6364C596.09 64.6364 596.768 64.4659 597.457 64.125C598.154 63.7841 598.738 63.2614 599.207 62.5568C599.685 61.8523 599.923 60.9545 599.923 59.8636ZM614.835 67.3636C613.153 67.3636 611.703 66.9924 610.483 66.25C609.271 65.5 608.335 64.4545 607.676 63.1136C607.025 61.7652 606.699 60.197 606.699 58.4091C606.699 56.6212 607.025 55.0455 607.676 53.6818C608.335 52.3106 609.252 51.2424 610.426 50.4773C611.608 49.7045 612.987 49.3182 614.562 49.3182C615.472 49.3182 616.369 49.4697 617.256 49.7727C618.142 50.0758 618.949 50.5682 619.676 51.25C620.403 51.9242 620.983 52.8182 621.415 53.9318C621.847 55.0455 622.062 56.4167 622.062 58.0455V59.1818H608.608V56.8636H619.335C619.335 55.8788 619.138 55 618.744 54.2273C618.358 53.4545 617.805 52.8447 617.085 52.3977C616.373 51.9508 615.532 51.7273 614.562 51.7273C613.494 51.7273 612.57 51.9924 611.79 52.5227C611.017 53.0455 610.422 53.7273 610.006 54.5682C609.589 55.4091 609.381 56.3106 609.381 57.2727V58.8182C609.381 60.1364 609.608 61.2538 610.062 62.1705C610.525 63.0795 611.165 63.7727 611.983 64.25C612.801 64.7197 613.752 64.9545 614.835 64.9545C615.54 64.9545 616.176 64.8561 616.744 64.6591C617.32 64.4545 617.816 64.1515 618.233 63.75C618.65 63.3409 618.972 62.8333 619.199 62.2273L621.79 62.9545C621.517 63.8333 621.059 64.6061 620.415 65.2727C619.771 65.9318 618.975 66.447 618.028 66.8182C617.081 67.1818 616.017 67.3636 614.835 67.3636Z" fill="white"/>
<rect x="36" y="17" width="161" height="76" fill="#060202"/>
<path d="M77.0962 68V41.8182H80.2667V65.1875H92.4371V68H77.0962ZM104.914 68.4091C103.142 68.4091 101.586 67.9872 100.248 67.1435C98.9187 66.2997 97.8789 65.1193 97.1289 63.6023C96.3874 62.0852 96.0167 60.3125 96.0167 58.2841C96.0167 56.2386 96.3874 54.4531 97.1289 52.9276C97.8789 51.402 98.9187 50.2173 100.248 49.3736C101.586 48.5298 103.142 48.108 104.914 48.108C106.687 48.108 108.238 48.5298 109.568 49.3736C110.906 50.2173 111.946 51.402 112.687 52.9276C113.437 54.4531 113.812 56.2386 113.812 58.2841C113.812 60.3125 113.437 62.0852 112.687 63.6023C111.946 65.1193 110.906 66.2997 109.568 67.1435C108.238 67.9872 106.687 68.4091 104.914 68.4091ZM104.914 65.6989C106.261 65.6989 107.369 65.3537 108.238 64.6634C109.108 63.973 109.751 63.0653 110.169 61.9403C110.586 60.8153 110.795 59.5966 110.795 58.2841C110.795 56.9716 110.586 55.7486 110.169 54.6151C109.751 53.4815 109.108 52.5653 108.238 51.8665C107.369 51.1676 106.261 50.8182 104.914 50.8182C103.568 50.8182 102.46 51.1676 101.591 51.8665C100.721 52.5653 100.078 53.4815 99.6602 54.6151C99.2425 55.7486 99.0337 56.9716 99.0337 58.2841C99.0337 59.5966 99.2425 60.8153 99.6602 61.9403C100.078 63.0653 100.721 63.973 101.591 64.6634C102.46 65.3537 103.568 65.6989 104.914 65.6989ZM126.344 75.7727C124.886 75.7727 123.634 75.5852 122.585 75.2102C121.537 74.8438 120.663 74.358 119.964 73.7528C119.274 73.1563 118.724 72.517 118.315 71.8352L120.719 70.1477C120.991 70.5057 121.337 70.9148 121.754 71.375C122.172 71.8438 122.743 72.2486 123.467 72.5895C124.2 72.9389 125.159 73.1136 126.344 73.1136C127.929 73.1136 129.237 72.7301 130.268 71.9631C131.3 71.196 131.815 69.9943 131.815 68.358V64.3693H131.56C131.338 64.7273 131.023 65.1705 130.614 65.6989C130.213 66.2188 129.634 66.6832 128.875 67.0923C128.125 67.4929 127.111 67.6932 125.832 67.6932C124.247 67.6932 122.824 67.3182 121.562 66.5682C120.31 65.8182 119.317 64.7273 118.584 63.2955C117.859 61.8636 117.497 60.125 117.497 58.0795C117.497 56.0682 117.851 54.3168 118.558 52.8253C119.266 51.3253 120.25 50.1662 121.511 49.348C122.773 48.5213 124.23 48.108 125.884 48.108C127.162 48.108 128.176 48.321 128.926 48.7472C129.685 49.1648 130.264 49.642 130.665 50.179C131.074 50.7074 131.389 51.142 131.611 51.483H131.918V48.3636H134.832V68.5625C134.832 70.25 134.449 71.6222 133.682 72.679C132.923 73.7443 131.901 74.5241 130.614 75.0185C129.335 75.5213 127.912 75.7727 126.344 75.7727ZM126.241 64.983C127.452 64.983 128.474 64.706 129.31 64.152C130.145 63.598 130.78 62.8011 131.214 61.7614C131.649 60.7216 131.866 59.4773 131.866 58.0284C131.866 56.6136 131.653 55.3651 131.227 54.2827C130.801 53.2003 130.17 52.3523 129.335 51.7386C128.5 51.125 127.469 50.8182 126.241 50.8182C124.963 50.8182 123.898 51.142 123.045 51.7898C122.202 52.4375 121.567 53.3068 121.141 54.3977C120.723 55.4886 120.514 56.6989 120.514 58.0284C120.514 59.392 120.727 60.598 121.153 61.6463C121.588 62.6861 122.227 63.5043 123.071 64.1009C123.923 64.6889 124.98 64.983 126.241 64.983ZM148.332 68.4091C146.56 68.4091 145.004 67.9872 143.666 67.1435C142.337 66.2997 141.297 65.1193 140.547 63.6023C139.805 62.0852 139.435 60.3125 139.435 58.2841C139.435 56.2386 139.805 54.4531 140.547 52.9276C141.297 51.402 142.337 50.2173 143.666 49.3736C145.004 48.5298 146.56 48.108 148.332 48.108C150.105 48.108 151.656 48.5298 152.986 49.3736C154.324 50.2173 155.364 51.402 156.105 52.9276C156.855 54.4531 157.23 56.2386 157.23 58.2841C157.23 60.3125 156.855 62.0852 156.105 63.6023C155.364 65.1193 154.324 66.2997 152.986 67.1435C151.656 67.9872 150.105 68.4091 148.332 68.4091ZM148.332 65.6989C149.679 65.6989 150.787 65.3537 151.656 64.6634C152.526 63.973 153.169 63.0653 153.587 61.9403C154.004 60.8153 154.213 59.5966 154.213 58.2841C154.213 56.9716 154.004 55.7486 153.587 54.6151C153.169 53.4815 152.526 52.5653 151.656 51.8665C150.787 51.1676 149.679 50.8182 148.332 50.8182C146.986 50.8182 145.878 51.1676 145.009 51.8665C144.139 52.5653 143.496 53.4815 143.078 54.6151C142.661 55.7486 142.452 56.9716 142.452 58.2841C142.452 59.5966 142.661 60.8153 143.078 61.9403C143.496 63.0653 144.139 63.973 145.009 64.6634C145.878 65.3537 146.986 65.6989 148.332 65.6989Z" fill="white"/>
<rect x="57" y="271" width="1296" height="753" fill="#D9D9D9"/>
<rect x="117" y="347" width="1176" height="158" fill="white"/>
<rect x="117" y="555" width="1176" height="158" fill="white"/>
<rect x="117" y="763" width="1176" height="158" fill="white"/>
<path d="M138.545 420H135.727C135.561 419.189 135.269 418.477 134.852 417.864C134.443 417.25 133.943 416.735 133.352 416.318C132.769 415.894 132.121 415.576 131.409 415.364C130.697 415.152 129.955 415.045 129.182 415.045C127.773 415.045 126.496 415.402 125.352 416.114C124.216 416.826 123.311 417.875 122.636 419.261C121.97 420.648 121.636 422.348 121.636 424.364C121.636 426.379 121.97 428.08 122.636 429.466C123.311 430.852 124.216 431.902 125.352 432.614C126.496 433.326 127.773 433.682 129.182 433.682C129.955 433.682 130.697 433.576 131.409 433.364C132.121 433.152 132.769 432.837 133.352 432.42C133.943 431.996 134.443 431.477 134.852 430.864C135.269 430.242 135.561 429.53 135.727 428.727H138.545C138.333 429.917 137.947 430.981 137.386 431.92C136.826 432.86 136.129 433.659 135.295 434.318C134.462 434.97 133.527 435.466 132.489 435.807C131.458 436.148 130.356 436.318 129.182 436.318C127.197 436.318 125.432 435.833 123.886 434.864C122.341 433.894 121.125 432.515 120.239 430.727C119.352 428.939 118.909 426.818 118.909 424.364C118.909 421.909 119.352 419.788 120.239 418C121.125 416.212 122.341 414.833 123.886 413.864C125.432 412.894 127.197 412.409 129.182 412.409C130.356 412.409 131.458 412.58 132.489 412.92C133.527 413.261 134.462 413.761 135.295 414.42C136.129 415.072 136.826 415.867 137.386 416.807C137.947 417.739 138.333 418.803 138.545 420ZM147.872 436.409C146.766 436.409 145.762 436.201 144.861 435.784C143.959 435.36 143.243 434.75 142.713 433.955C142.183 433.152 141.918 432.182 141.918 431.045C141.918 430.045 142.115 429.235 142.509 428.614C142.902 427.985 143.429 427.492 144.088 427.136C144.747 426.78 145.474 426.515 146.27 426.341C147.073 426.159 147.88 426.015 148.69 425.909C149.751 425.773 150.611 425.67 151.27 425.602C151.937 425.527 152.421 425.402 152.724 425.227C153.035 425.053 153.19 424.75 153.19 424.318V424.227C153.19 423.106 152.884 422.235 152.27 421.614C151.664 420.992 150.743 420.682 149.509 420.682C148.228 420.682 147.224 420.962 146.497 421.523C145.77 422.083 145.259 422.682 144.963 423.318L142.418 422.409C142.872 421.348 143.478 420.523 144.236 419.932C145.001 419.333 145.834 418.917 146.736 418.682C147.645 418.439 148.539 418.318 149.418 418.318C149.978 418.318 150.622 418.386 151.349 418.523C152.084 418.652 152.793 418.92 153.474 419.33C154.164 419.739 154.736 420.356 155.19 421.182C155.645 422.008 155.872 423.114 155.872 424.5V436H153.19V433.636H153.054C152.872 434.015 152.569 434.42 152.145 434.852C151.721 435.284 151.156 435.652 150.452 435.955C149.747 436.258 148.887 436.409 147.872 436.409ZM148.281 434C149.342 434 150.236 433.792 150.963 433.375C151.698 432.958 152.251 432.42 152.622 431.761C153.001 431.102 153.19 430.409 153.19 429.682V427.227C153.077 427.364 152.827 427.489 152.44 427.602C152.062 427.708 151.622 427.803 151.122 427.886C150.63 427.962 150.149 428.03 149.679 428.091C149.217 428.144 148.842 428.189 148.554 428.227C147.857 428.318 147.205 428.466 146.599 428.67C146.001 428.867 145.516 429.167 145.145 429.568C144.781 429.962 144.599 430.5 144.599 431.182C144.599 432.114 144.944 432.818 145.634 433.295C146.33 433.765 147.213 434 148.281 434ZM163.449 425.5V436H160.767V418.545H163.358V421.273H163.585C163.994 420.386 164.616 419.674 165.449 419.136C166.282 418.591 167.358 418.318 168.676 418.318C169.858 418.318 170.892 418.561 171.778 419.045C172.665 419.523 173.354 420.25 173.847 421.227C174.339 422.197 174.585 423.424 174.585 424.909V436H171.903V425.091C171.903 423.72 171.547 422.652 170.835 421.886C170.123 421.114 169.146 420.727 167.903 420.727C167.047 420.727 166.282 420.913 165.608 421.284C164.941 421.655 164.415 422.197 164.028 422.909C163.642 423.621 163.449 424.485 163.449 425.5ZM186.077 436.364C184.622 436.364 183.338 435.996 182.224 435.261C181.111 434.519 180.24 433.473 179.611 432.125C178.982 430.769 178.668 429.167 178.668 427.318C178.668 425.485 178.982 423.894 179.611 422.545C180.24 421.197 181.115 420.155 182.236 419.42C183.357 418.686 184.652 418.318 186.122 418.318C187.259 418.318 188.156 418.508 188.815 418.886C189.482 419.258 189.99 419.682 190.338 420.159C190.694 420.629 190.971 421.015 191.168 421.318H191.395V412.727H194.077V436H191.486V433.318H191.168C190.971 433.636 190.69 434.038 190.327 434.523C189.963 435 189.444 435.428 188.77 435.807C188.096 436.178 187.198 436.364 186.077 436.364ZM186.44 433.955C187.516 433.955 188.425 433.674 189.168 433.114C189.91 432.545 190.474 431.761 190.861 430.761C191.247 429.754 191.44 428.591 191.44 427.273C191.44 425.97 191.251 424.83 190.872 423.852C190.493 422.867 189.933 422.102 189.19 421.557C188.448 421.004 187.531 420.727 186.44 420.727C185.304 420.727 184.357 421.019 183.599 421.602C182.849 422.178 182.285 422.962 181.906 423.955C181.535 424.939 181.349 426.045 181.349 427.273C181.349 428.515 181.539 429.644 181.918 430.659C182.304 431.667 182.872 432.47 183.622 433.068C184.38 433.659 185.319 433.955 186.44 433.955ZM199.361 436V418.545H202.043V436H199.361ZM200.724 415.636C200.202 415.636 199.751 415.458 199.372 415.102C199.001 414.746 198.815 414.318 198.815 413.818C198.815 413.318 199.001 412.89 199.372 412.534C199.751 412.178 200.202 412 200.724 412C201.247 412 201.694 412.178 202.065 412.534C202.444 412.89 202.634 413.318 202.634 413.818C202.634 414.318 202.444 414.746 202.065 415.102C201.694 415.458 201.247 415.636 200.724 415.636ZM213.545 436.364C212.091 436.364 210.807 435.996 209.693 435.261C208.58 434.519 207.708 433.473 207.08 432.125C206.451 430.769 206.136 429.167 206.136 427.318C206.136 425.485 206.451 423.894 207.08 422.545C207.708 421.197 208.583 420.155 209.705 419.42C210.826 418.686 212.121 418.318 213.591 418.318C214.727 418.318 215.625 418.508 216.284 418.886C216.951 419.258 217.458 419.682 217.807 420.159C218.163 420.629 218.439 421.015 218.636 421.318H218.864V412.727H221.545V436H218.955V433.318H218.636C218.439 433.636 218.159 434.038 217.795 434.523C217.432 435 216.913 435.428 216.239 435.807C215.564 436.178 214.667 436.364 213.545 436.364ZM213.909 433.955C214.985 433.955 215.894 433.674 216.636 433.114C217.379 432.545 217.943 431.761 218.33 430.761C218.716 429.754 218.909 428.591 218.909 427.273C218.909 425.97 218.72 424.83 218.341 423.852C217.962 422.867 217.402 422.102 216.659 421.557C215.917 421.004 215 420.727 213.909 420.727C212.773 420.727 211.826 421.019 211.068 421.602C210.318 422.178 209.754 422.962 209.375 423.955C209.004 424.939 208.818 426.045 208.818 427.273C208.818 428.515 209.008 429.644 209.386 430.659C209.773 431.667 210.341 432.47 211.091 433.068C211.848 433.659 212.788 433.955 213.909 433.955ZM231.966 436.409C230.86 436.409 229.856 436.201 228.955 435.784C228.053 435.36 227.337 434.75 226.807 433.955C226.277 433.152 226.011 432.182 226.011 431.045C226.011 430.045 226.208 429.235 226.602 428.614C226.996 427.985 227.523 427.492 228.182 427.136C228.841 426.78 229.568 426.515 230.364 426.341C231.167 426.159 231.973 426.015 232.784 425.909C233.845 425.773 234.705 425.67 235.364 425.602C236.03 425.527 236.515 425.402 236.818 425.227C237.129 425.053 237.284 424.75 237.284 424.318V424.227C237.284 423.106 236.977 422.235 236.364 421.614C235.758 420.992 234.837 420.682 233.602 420.682C232.322 420.682 231.318 420.962 230.591 421.523C229.864 422.083 229.352 422.682 229.057 423.318L226.511 422.409C226.966 421.348 227.572 420.523 228.33 419.932C229.095 419.333 229.928 418.917 230.83 418.682C231.739 418.439 232.633 418.318 233.511 418.318C234.072 418.318 234.716 418.386 235.443 418.523C236.178 418.652 236.886 418.92 237.568 419.33C238.258 419.739 238.83 420.356 239.284 421.182C239.739 422.008 239.966 423.114 239.966 424.5V436H237.284V433.636H237.148C236.966 434.015 236.663 434.42 236.239 434.852C235.814 435.284 235.25 435.652 234.545 435.955C233.841 436.258 232.981 436.409 231.966 436.409ZM232.375 434C233.436 434 234.33 433.792 235.057 433.375C235.792 432.958 236.345 432.42 236.716 431.761C237.095 431.102 237.284 430.409 237.284 429.682V427.227C237.17 427.364 236.92 427.489 236.534 427.602C236.155 427.708 235.716 427.803 235.216 427.886C234.723 427.962 234.242 428.03 233.773 428.091C233.311 428.144 232.936 428.189 232.648 428.227C231.951 428.318 231.299 428.466 230.693 428.67C230.095 428.867 229.61 429.167 229.239 429.568C228.875 429.962 228.693 430.5 228.693 431.182C228.693 432.114 229.038 432.818 229.727 433.295C230.424 433.765 231.307 434 232.375 434ZM252.452 418.545V420.818H243.406V418.545H252.452ZM246.043 414.364H248.724V431C248.724 431.758 248.834 432.326 249.054 432.705C249.281 433.076 249.569 433.326 249.918 433.455C250.274 433.576 250.649 433.636 251.043 433.636C251.338 433.636 251.58 433.621 251.77 433.591C251.959 433.553 252.111 433.523 252.224 433.5L252.77 435.909C252.588 435.977 252.334 436.045 252.009 436.114C251.683 436.189 251.27 436.227 250.77 436.227C250.012 436.227 249.27 436.064 248.543 435.739C247.823 435.413 247.224 434.917 246.747 434.25C246.277 433.583 246.043 432.742 246.043 431.727V414.364ZM273.622 412.727V436H270.804V415.682H270.668L264.986 419.455V416.591L270.804 412.727H273.622Z" fill="black"/>
<path d="M138.545 630H135.727C135.561 629.189 135.269 628.477 134.852 627.864C134.443 627.25 133.943 626.735 133.352 626.318C132.769 625.894 132.121 625.576 131.409 625.364C130.697 625.152 129.955 625.045 129.182 625.045C127.773 625.045 126.496 625.402 125.352 626.114C124.216 626.826 123.311 627.875 122.636 629.261C121.97 630.648 121.636 632.348 121.636 634.364C121.636 636.379 121.97 638.08 122.636 639.466C123.311 640.852 124.216 641.902 125.352 642.614C126.496 643.326 127.773 643.682 129.182 643.682C129.955 643.682 130.697 643.576 131.409 643.364C132.121 643.152 132.769 642.837 133.352 642.42C133.943 641.996 134.443 641.477 134.852 640.864C135.269 640.242 135.561 639.53 135.727 638.727H138.545C138.333 639.917 137.947 640.981 137.386 641.92C136.826 642.86 136.129 643.659 135.295 644.318C134.462 644.97 133.527 645.466 132.489 645.807C131.458 646.148 130.356 646.318 129.182 646.318C127.197 646.318 125.432 645.833 123.886 644.864C122.341 643.894 121.125 642.515 120.239 640.727C119.352 638.939 118.909 636.818 118.909 634.364C118.909 631.909 119.352 629.788 120.239 628C121.125 626.212 122.341 624.833 123.886 623.864C125.432 622.894 127.197 622.409 129.182 622.409C130.356 622.409 131.458 622.58 132.489 622.92C133.527 623.261 134.462 623.761 135.295 624.42C136.129 625.072 136.826 625.867 137.386 626.807C137.947 627.739 138.333 628.803 138.545 630ZM147.872 646.409C146.766 646.409 145.762 646.201 144.861 645.784C143.959 645.36 143.243 644.75 142.713 643.955C142.183 643.152 141.918 642.182 141.918 641.045C141.918 640.045 142.115 639.235 142.509 638.614C142.902 637.985 143.429 637.492 144.088 637.136C144.747 636.78 145.474 636.515 146.27 636.341C147.073 636.159 147.88 636.015 148.69 635.909C149.751 635.773 150.611 635.67 151.27 635.602C151.937 635.527 152.421 635.402 152.724 635.227C153.035 635.053 153.19 634.75 153.19 634.318V634.227C153.19 633.106 152.884 632.235 152.27 631.614C151.664 630.992 150.743 630.682 149.509 630.682C148.228 630.682 147.224 630.962 146.497 631.523C145.77 632.083 145.259 632.682 144.963 633.318L142.418 632.409C142.872 631.348 143.478 630.523 144.236 629.932C145.001 629.333 145.834 628.917 146.736 628.682C147.645 628.439 148.539 628.318 149.418 628.318C149.978 628.318 150.622 628.386 151.349 628.523C152.084 628.652 152.793 628.92 153.474 629.33C154.164 629.739 154.736 630.356 155.19 631.182C155.645 632.008 155.872 633.114 155.872 634.5V646H153.19V643.636H153.054C152.872 644.015 152.569 644.42 152.145 644.852C151.721 645.284 151.156 645.652 150.452 645.955C149.747 646.258 148.887 646.409 147.872 646.409ZM148.281 644C149.342 644 150.236 643.792 150.963 643.375C151.698 642.958 152.251 642.42 152.622 641.761C153.001 641.102 153.19 640.409 153.19 639.682V637.227C153.077 637.364 152.827 637.489 152.44 637.602C152.062 637.708 151.622 637.803 151.122 637.886C150.63 637.962 150.149 638.03 149.679 638.091C149.217 638.144 148.842 638.189 148.554 638.227C147.857 638.318 147.205 638.466 146.599 638.67C146.001 638.867 145.516 639.167 145.145 639.568C144.781 639.962 144.599 640.5 144.599 641.182C144.599 642.114 144.944 642.818 145.634 643.295C146.33 643.765 147.213 644 148.281 644ZM163.449 635.5V646H160.767V628.545H163.358V631.273H163.585C163.994 630.386 164.616 629.674 165.449 629.136C166.282 628.591 167.358 628.318 168.676 628.318C169.858 628.318 170.892 628.561 171.778 629.045C172.665 629.523 173.354 630.25 173.847 631.227C174.339 632.197 174.585 633.424 174.585 634.909V646H171.903V635.091C171.903 633.72 171.547 632.652 170.835 631.886C170.123 631.114 169.146 630.727 167.903 630.727C167.047 630.727 166.282 630.913 165.608 631.284C164.941 631.655 164.415 632.197 164.028 632.909C163.642 633.621 163.449 634.485 163.449 635.5ZM186.077 646.364C184.622 646.364 183.338 645.996 182.224 645.261C181.111 644.519 180.24 643.473 179.611 642.125C178.982 640.769 178.668 639.167 178.668 637.318C178.668 635.485 178.982 633.894 179.611 632.545C180.24 631.197 181.115 630.155 182.236 629.42C183.357 628.686 184.652 628.318 186.122 628.318C187.259 628.318 188.156 628.508 188.815 628.886C189.482 629.258 189.99 629.682 190.338 630.159C190.694 630.629 190.971 631.015 191.168 631.318H191.395V622.727H194.077V646H191.486V643.318H191.168C190.971 643.636 190.69 644.038 190.327 644.523C189.963 645 189.444 645.428 188.77 645.807C188.096 646.178 187.198 646.364 186.077 646.364ZM186.44 643.955C187.516 643.955 188.425 643.674 189.168 643.114C189.91 642.545 190.474 641.761 190.861 640.761C191.247 639.754 191.44 638.591 191.44 637.273C191.44 635.97 191.251 634.83 190.872 633.852C190.493 632.867 189.933 632.102 189.19 631.557C188.448 631.004 187.531 630.727 186.44 630.727C185.304 630.727 184.357 631.019 183.599 631.602C182.849 632.178 182.285 632.962 181.906 633.955C181.535 634.939 181.349 636.045 181.349 637.273C181.349 638.515 181.539 639.644 181.918 640.659C182.304 641.667 182.872 642.47 183.622 643.068C184.38 643.659 185.319 643.955 186.44 643.955ZM199.361 646V628.545H202.043V646H199.361ZM200.724 625.636C200.202 625.636 199.751 625.458 199.372 625.102C199.001 624.746 198.815 624.318 198.815 623.818C198.815 623.318 199.001 622.89 199.372 622.534C199.751 622.178 200.202 622 200.724 622C201.247 622 201.694 622.178 202.065 622.534C202.444 622.89 202.634 623.318 202.634 623.818C202.634 624.318 202.444 624.746 202.065 625.102C201.694 625.458 201.247 625.636 200.724 625.636ZM213.545 646.364C212.091 646.364 210.807 645.996 209.693 645.261C208.58 644.519 207.708 643.473 207.08 642.125C206.451 640.769 206.136 639.167 206.136 637.318C206.136 635.485 206.451 633.894 207.08 632.545C207.708 631.197 208.583 630.155 209.705 629.42C210.826 628.686 212.121 628.318 213.591 628.318C214.727 628.318 215.625 628.508 216.284 628.886C216.951 629.258 217.458 629.682 217.807 630.159C218.163 630.629 218.439 631.015 218.636 631.318H218.864V622.727H221.545V646H218.955V643.318H218.636C218.439 643.636 218.159 644.038 217.795 644.523C217.432 645 216.913 645.428 216.239 645.807C215.564 646.178 214.667 646.364 213.545 646.364ZM213.909 643.955C214.985 643.955 215.894 643.674 216.636 643.114C217.379 642.545 217.943 641.761 218.33 640.761C218.716 639.754 218.909 638.591 218.909 637.273C218.909 635.97 218.72 634.83 218.341 633.852C217.962 632.867 217.402 632.102 216.659 631.557C215.917 631.004 215 630.727 213.909 630.727C212.773 630.727 211.826 631.019 211.068 631.602C210.318 632.178 209.754 632.962 209.375 633.955C209.004 634.939 208.818 636.045 208.818 637.273C208.818 638.515 209.008 639.644 209.386 640.659C209.773 641.667 210.341 642.47 211.091 643.068C211.848 643.659 212.788 643.955 213.909 643.955ZM231.966 646.409C230.86 646.409 229.856 646.201 228.955 645.784C228.053 645.36 227.337 644.75 226.807 643.955C226.277 643.152 226.011 642.182 226.011 641.045C226.011 640.045 226.208 639.235 226.602 638.614C226.996 637.985 227.523 637.492 228.182 637.136C228.841 636.78 229.568 636.515 230.364 636.341C231.167 636.159 231.973 636.015 232.784 635.909C233.845 635.773 234.705 635.67 235.364 635.602C236.03 635.527 236.515 635.402 236.818 635.227C237.129 635.053 237.284 634.75 237.284 634.318V634.227C237.284 633.106 236.977 632.235 236.364 631.614C235.758 630.992 234.837 630.682 233.602 630.682C232.322 630.682 231.318 630.962 230.591 631.523C229.864 632.083 229.352 632.682 229.057 633.318L226.511 632.409C226.966 631.348 227.572 630.523 228.33 629.932C229.095 629.333 229.928 628.917 230.83 628.682C231.739 628.439 232.633 628.318 233.511 628.318C234.072 628.318 234.716 628.386 235.443 628.523C236.178 628.652 236.886 628.92 237.568 629.33C238.258 629.739 238.83 630.356 239.284 631.182C239.739 632.008 239.966 633.114 239.966 634.5V646H237.284V643.636H237.148C236.966 644.015 236.663 644.42 236.239 644.852C235.814 645.284 235.25 645.652 234.545 645.955C233.841 646.258 232.981 646.409 231.966 646.409ZM232.375 644C233.436 644 234.33 643.792 235.057 643.375C235.792 642.958 236.345 642.42 236.716 641.761C237.095 641.102 237.284 640.409 237.284 639.682V637.227C237.17 637.364 236.92 637.489 236.534 637.602C236.155 637.708 235.716 637.803 235.216 637.886C234.723 637.962 234.242 638.03 233.773 638.091C233.311 638.144 232.936 638.189 232.648 638.227C231.951 638.318 231.299 638.466 230.693 638.67C230.095 638.867 229.61 639.167 229.239 639.568C228.875 639.962 228.693 640.5 228.693 641.182C228.693 642.114 229.038 642.818 229.727 643.295C230.424 643.765 231.307 644 232.375 644ZM252.452 628.545V630.818H243.406V628.545H252.452ZM246.043 624.364H248.724V641C248.724 641.758 248.834 642.326 249.054 642.705C249.281 643.076 249.569 643.326 249.918 643.455C250.274 643.576 250.649 643.636 251.043 643.636C251.338 643.636 251.58 643.621 251.77 643.591C251.959 643.553 252.111 643.523 252.224 643.5L252.77 645.909C252.588 645.977 252.334 646.045 252.009 646.114C251.683 646.189 251.27 646.227 250.77 646.227C250.012 646.227 249.27 646.064 248.543 645.739C247.823 645.413 247.224 644.917 246.747 644.25C246.277 643.583 246.043 642.742 246.043 641.727V624.364ZM265.44 646V643.955L273.122 635.545C274.024 634.561 274.766 633.705 275.349 632.977C275.933 632.242 276.365 631.553 276.645 630.909C276.933 630.258 277.077 629.576 277.077 628.864C277.077 628.045 276.88 627.337 276.486 626.739C276.099 626.14 275.569 625.678 274.895 625.352C274.221 625.027 273.463 624.864 272.622 624.864C271.728 624.864 270.948 625.049 270.281 625.42C269.622 625.784 269.111 626.295 268.747 626.955C268.391 627.614 268.213 628.386 268.213 629.273H265.531C265.531 627.909 265.846 626.712 266.474 625.682C267.103 624.652 267.959 623.848 269.043 623.273C270.134 622.697 271.357 622.409 272.713 622.409C274.077 622.409 275.285 622.697 276.338 623.273C277.391 623.848 278.217 624.625 278.815 625.602C279.414 626.58 279.713 627.667 279.713 628.864C279.713 629.72 279.558 630.557 279.247 631.375C278.944 632.186 278.414 633.091 277.656 634.091C276.906 635.083 275.865 636.295 274.531 637.727L269.304 643.318V643.5H280.122V646H265.44Z" fill="black"/>
<path d="M121.409 854.182C120.848 854.182 120.367 853.981 119.966 853.58C119.564 853.178 119.364 852.697 119.364 852.136C119.364 851.576 119.564 851.095 119.966 850.693C120.367 850.292 120.848 850.091 121.409 850.091C121.97 850.091 122.451 850.292 122.852 850.693C123.254 851.095 123.455 851.576 123.455 852.136C123.455 852.508 123.36 852.848 123.17 853.159C122.989 853.47 122.742 853.72 122.432 853.909C122.129 854.091 121.788 854.182 121.409 854.182ZM130.222 854.182C129.661 854.182 129.18 853.981 128.778 853.58C128.377 853.178 128.176 852.697 128.176 852.136C128.176 851.576 128.377 851.095 128.778 850.693C129.18 850.292 129.661 850.091 130.222 850.091C130.782 850.091 131.263 850.292 131.665 850.693C132.066 851.095 132.267 851.576 132.267 852.136C132.267 852.508 132.172 852.848 131.983 853.159C131.801 853.47 131.555 853.72 131.244 853.909C130.941 854.091 130.6 854.182 130.222 854.182ZM139.034 854.182C138.473 854.182 137.992 853.981 137.591 853.58C137.189 853.178 136.989 852.697 136.989 852.136C136.989 851.576 137.189 851.095 137.591 850.693C137.992 850.292 138.473 850.091 139.034 850.091C139.595 850.091 140.076 850.292 140.477 850.693C140.879 851.095 141.08 851.576 141.08 852.136C141.08 852.508 140.985 852.848 140.795 853.159C140.614 853.47 140.367 853.72 140.057 853.909C139.754 854.091 139.413 854.182 139.034 854.182Z" fill="black"/>
<rect x="419" y="165" width="524" height="56" fill="#D9D9D9"/>
<path d="M423.818 205V181.727H431.955C433.576 181.727 434.913 182.008 435.966 182.568C437.019 183.121 437.803 183.867 438.318 184.807C438.833 185.739 439.091 186.773 439.091 187.909C439.091 188.909 438.913 189.735 438.557 190.386C438.208 191.038 437.746 191.553 437.17 191.932C436.602 192.311 435.985 192.591 435.318 192.773V193C436.03 193.045 436.746 193.295 437.466 193.75C438.186 194.205 438.788 194.856 439.273 195.705C439.758 196.553 440 197.591 440 198.818C440 199.985 439.735 201.034 439.205 201.966C438.674 202.898 437.837 203.636 436.693 204.182C435.549 204.727 434.061 205 432.227 205H423.818ZM426.636 202.5H432.227C434.068 202.5 435.375 202.144 436.148 201.432C436.928 200.712 437.318 199.841 437.318 198.818C437.318 198.03 437.117 197.303 436.716 196.636C436.314 195.962 435.742 195.424 435 195.023C434.258 194.614 433.379 194.409 432.364 194.409H426.636V202.5ZM426.636 191.955H431.864C432.712 191.955 433.477 191.788 434.159 191.455C434.848 191.121 435.394 190.652 435.795 190.045C436.205 189.439 436.409 188.727 436.409 187.909C436.409 186.886 436.053 186.019 435.341 185.307C434.629 184.587 433.5 184.227 431.955 184.227H426.636V191.955ZM449.403 205.409C448.297 205.409 447.294 205.201 446.392 204.784C445.491 204.36 444.775 203.75 444.244 202.955C443.714 202.152 443.449 201.182 443.449 200.045C443.449 199.045 443.646 198.235 444.04 197.614C444.434 196.985 444.96 196.492 445.619 196.136C446.278 195.78 447.006 195.515 447.801 195.341C448.604 195.159 449.411 195.015 450.222 194.909C451.282 194.773 452.142 194.67 452.801 194.602C453.468 194.527 453.953 194.402 454.256 194.227C454.566 194.053 454.722 193.75 454.722 193.318V193.227C454.722 192.106 454.415 191.235 453.801 190.614C453.195 189.992 452.275 189.682 451.04 189.682C449.759 189.682 448.756 189.962 448.028 190.523C447.301 191.083 446.79 191.682 446.494 192.318L443.949 191.409C444.403 190.348 445.009 189.523 445.767 188.932C446.532 188.333 447.366 187.917 448.267 187.682C449.176 187.439 450.07 187.318 450.949 187.318C451.509 187.318 452.153 187.386 452.881 187.523C453.616 187.652 454.324 187.92 455.006 188.33C455.695 188.739 456.267 189.356 456.722 190.182C457.176 191.008 457.403 192.114 457.403 193.5V205H454.722V202.636H454.585C454.403 203.015 454.1 203.42 453.676 203.852C453.252 204.284 452.688 204.652 451.983 204.955C451.278 205.258 450.419 205.409 449.403 205.409ZM449.812 203C450.873 203 451.767 202.792 452.494 202.375C453.229 201.958 453.782 201.42 454.153 200.761C454.532 200.102 454.722 199.409 454.722 198.682V196.227C454.608 196.364 454.358 196.489 453.972 196.602C453.593 196.708 453.153 196.803 452.653 196.886C452.161 196.962 451.68 197.03 451.21 197.091C450.748 197.144 450.373 197.189 450.085 197.227C449.388 197.318 448.737 197.466 448.131 197.67C447.532 197.867 447.047 198.167 446.676 198.568C446.313 198.962 446.131 199.5 446.131 200.182C446.131 201.114 446.475 201.818 447.165 202.295C447.862 202.765 448.744 203 449.812 203ZM462.298 205V187.545H464.889V190.182H465.071C465.389 189.318 465.965 188.617 466.798 188.08C467.632 187.542 468.571 187.273 469.616 187.273C469.813 187.273 470.06 187.277 470.355 187.284C470.651 187.292 470.874 187.303 471.026 187.318V190.045C470.935 190.023 470.726 189.989 470.401 189.943C470.082 189.89 469.745 189.864 469.389 189.864C468.541 189.864 467.783 190.042 467.116 190.398C466.457 190.746 465.935 191.231 465.548 191.852C465.17 192.466 464.98 193.167 464.98 193.955V205H462.298ZM474.205 205V187.545H476.795V190.182H476.977C477.295 189.318 477.871 188.617 478.705 188.08C479.538 187.542 480.477 187.273 481.523 187.273C481.72 187.273 481.966 187.277 482.261 187.284C482.557 187.292 482.78 187.303 482.932 187.318V190.045C482.841 190.023 482.633 189.989 482.307 189.943C481.989 189.89 481.652 189.864 481.295 189.864C480.447 189.864 479.689 190.042 479.023 190.398C478.364 190.746 477.841 191.231 477.455 191.852C477.076 192.466 476.886 193.167 476.886 193.955V205H474.205ZM492.898 205.364C491.216 205.364 489.765 204.992 488.545 204.25C487.333 203.5 486.398 202.455 485.739 201.114C485.087 199.765 484.761 198.197 484.761 196.409C484.761 194.621 485.087 193.045 485.739 191.682C486.398 190.311 487.314 189.242 488.489 188.477C489.67 187.705 491.049 187.318 492.625 187.318C493.534 187.318 494.432 187.47 495.318 187.773C496.205 188.076 497.011 188.568 497.739 189.25C498.466 189.924 499.045 190.818 499.477 191.932C499.909 193.045 500.125 194.417 500.125 196.045V197.182H486.67V194.864H497.398C497.398 193.879 497.201 193 496.807 192.227C496.42 191.455 495.867 190.845 495.148 190.398C494.436 189.951 493.595 189.727 492.625 189.727C491.557 189.727 490.633 189.992 489.852 190.523C489.08 191.045 488.485 191.727 488.068 192.568C487.652 193.409 487.443 194.311 487.443 195.273V196.818C487.443 198.136 487.67 199.254 488.125 200.17C488.587 201.08 489.227 201.773 490.045 202.25C490.864 202.72 491.814 202.955 492.898 202.955C493.602 202.955 494.239 202.856 494.807 202.659C495.383 202.455 495.879 202.152 496.295 201.75C496.712 201.341 497.034 200.833 497.261 200.227L499.852 200.955C499.58 201.833 499.121 202.606 498.477 203.273C497.833 203.932 497.038 204.447 496.091 204.818C495.144 205.182 494.08 205.364 492.898 205.364ZM519.795 205.364C518.341 205.364 517.057 204.996 515.943 204.261C514.83 203.519 513.958 202.473 513.33 201.125C512.701 199.769 512.386 198.167 512.386 196.318C512.386 194.485 512.701 192.894 513.33 191.545C513.958 190.197 514.833 189.155 515.955 188.42C517.076 187.686 518.371 187.318 519.841 187.318C520.977 187.318 521.875 187.508 522.534 187.886C523.201 188.258 523.708 188.682 524.057 189.159C524.413 189.629 524.689 190.015 524.886 190.318H525.114V181.727H527.795V205H525.205V202.318H524.886C524.689 202.636 524.409 203.038 524.045 203.523C523.682 204 523.163 204.428 522.489 204.807C521.814 205.178 520.917 205.364 519.795 205.364ZM520.159 202.955C521.235 202.955 522.144 202.674 522.886 202.114C523.629 201.545 524.193 200.761 524.58 199.761C524.966 198.754 525.159 197.591 525.159 196.273C525.159 194.97 524.97 193.83 524.591 192.852C524.212 191.867 523.652 191.102 522.909 190.557C522.167 190.004 521.25 189.727 520.159 189.727C519.023 189.727 518.076 190.019 517.318 190.602C516.568 191.178 516.004 191.962 515.625 192.955C515.254 193.939 515.068 195.045 515.068 196.273C515.068 197.515 515.258 198.644 515.636 199.659C516.023 200.667 516.591 201.47 517.341 202.068C518.098 202.659 519.038 202.955 520.159 202.955ZM540.398 205.364C538.716 205.364 537.265 204.992 536.045 204.25C534.833 203.5 533.898 202.455 533.239 201.114C532.587 199.765 532.261 198.197 532.261 196.409C532.261 194.621 532.587 193.045 533.239 191.682C533.898 190.311 534.814 189.242 535.989 188.477C537.17 187.705 538.549 187.318 540.125 187.318C541.034 187.318 541.932 187.47 542.818 187.773C543.705 188.076 544.511 188.568 545.239 189.25C545.966 189.924 546.545 190.818 546.977 191.932C547.409 193.045 547.625 194.417 547.625 196.045V197.182H534.17V194.864H544.898C544.898 193.879 544.701 193 544.307 192.227C543.92 191.455 543.367 190.845 542.648 190.398C541.936 189.951 541.095 189.727 540.125 189.727C539.057 189.727 538.133 189.992 537.352 190.523C536.58 191.045 535.985 191.727 535.568 192.568C535.152 193.409 534.943 194.311 534.943 195.273V196.818C534.943 198.136 535.17 199.254 535.625 200.17C536.087 201.08 536.727 201.773 537.545 202.25C538.364 202.72 539.314 202.955 540.398 202.955C541.102 202.955 541.739 202.856 542.307 202.659C542.883 202.455 543.379 202.152 543.795 201.75C544.212 201.341 544.534 200.833 544.761 200.227L547.352 200.955C547.08 201.833 546.621 202.606 545.977 203.273C545.333 203.932 544.538 204.447 543.591 204.818C542.644 205.182 541.58 205.364 540.398 205.364ZM560.705 205V187.545H563.295V190.182H563.477C563.795 189.318 564.371 188.617 565.205 188.08C566.038 187.542 566.977 187.273 568.023 187.273C568.22 187.273 568.466 187.277 568.761 187.284C569.057 187.292 569.28 187.303 569.432 187.318V190.045C569.341 190.023 569.133 189.989 568.807 189.943C568.489 189.89 568.152 189.864 567.795 189.864C566.947 189.864 566.189 190.042 565.523 190.398C564.864 190.746 564.341 191.231 563.955 191.852C563.576 192.466 563.386 193.167 563.386 193.955V205H560.705ZM579.398 205.364C577.716 205.364 576.265 204.992 575.045 204.25C573.833 203.5 572.898 202.455 572.239 201.114C571.587 199.765 571.261 198.197 571.261 196.409C571.261 194.621 571.587 193.045 572.239 191.682C572.898 190.311 573.814 189.242 574.989 188.477C576.17 187.705 577.549 187.318 579.125 187.318C580.034 187.318 580.932 187.47 581.818 187.773C582.705 188.076 583.511 188.568 584.239 189.25C584.966 189.924 585.545 190.818 585.977 191.932C586.409 193.045 586.625 194.417 586.625 196.045V197.182H573.17V194.864H583.898C583.898 193.879 583.701 193 583.307 192.227C582.92 191.455 582.367 190.845 581.648 190.398C580.936 189.951 580.095 189.727 579.125 189.727C578.057 189.727 577.133 189.992 576.352 190.523C575.58 191.045 574.985 191.727 574.568 192.568C574.152 193.409 573.943 194.311 573.943 195.273V196.818C573.943 198.136 574.17 199.254 574.625 200.17C575.087 201.08 575.727 201.773 576.545 202.25C577.364 202.72 578.314 202.955 579.398 202.955C580.102 202.955 580.739 202.856 581.307 202.659C581.883 202.455 582.379 202.152 582.795 201.75C583.212 201.341 583.534 200.833 583.761 200.227L586.352 200.955C586.08 201.833 585.621 202.606 584.977 203.273C584.333 203.932 583.538 204.447 582.591 204.818C581.644 205.182 580.58 205.364 579.398 205.364ZM597.795 205.364C596.159 205.364 594.75 204.977 593.568 204.205C592.386 203.432 591.477 202.367 590.841 201.011C590.205 199.655 589.886 198.106 589.886 196.364C589.886 194.591 590.212 193.027 590.864 191.67C591.523 190.307 592.439 189.242 593.614 188.477C594.795 187.705 596.174 187.318 597.75 187.318C598.977 187.318 600.083 187.545 601.068 188C602.053 188.455 602.86 189.091 603.489 189.909C604.117 190.727 604.508 191.682 604.659 192.773H601.977C601.773 191.977 601.318 191.273 600.614 190.659C599.917 190.038 598.977 189.727 597.795 189.727C596.75 189.727 595.833 190 595.045 190.545C594.265 191.083 593.655 191.845 593.216 192.83C592.784 193.807 592.568 194.955 592.568 196.273C592.568 197.621 592.78 198.795 593.205 199.795C593.636 200.795 594.242 201.572 595.023 202.125C595.811 202.678 596.735 202.955 597.795 202.955C598.492 202.955 599.125 202.833 599.693 202.591C600.261 202.348 600.742 202 601.136 201.545C601.53 201.091 601.811 200.545 601.977 199.909H604.659C604.508 200.939 604.133 201.867 603.534 202.693C602.943 203.511 602.159 204.163 601.182 204.648C600.212 205.125 599.083 205.364 597.795 205.364ZM611.261 194.5V205H608.58V181.727H611.261V190.273H611.489C611.898 189.371 612.511 188.655 613.33 188.125C614.155 187.587 615.254 187.318 616.625 187.318C617.814 187.318 618.856 187.557 619.75 188.034C620.644 188.504 621.337 189.227 621.83 190.205C622.33 191.174 622.58 192.409 622.58 193.909V205H619.898V194.091C619.898 192.705 619.538 191.633 618.818 190.875C618.106 190.11 617.117 189.727 615.852 189.727C614.973 189.727 614.186 189.913 613.489 190.284C612.799 190.655 612.254 191.197 611.852 191.909C611.458 192.621 611.261 193.485 611.261 194.5ZM634.804 205.364C633.122 205.364 631.671 204.992 630.452 204.25C629.24 203.5 628.304 202.455 627.645 201.114C626.993 199.765 626.668 198.197 626.668 196.409C626.668 194.621 626.993 193.045 627.645 191.682C628.304 190.311 629.221 189.242 630.395 188.477C631.577 187.705 632.955 187.318 634.531 187.318C635.44 187.318 636.338 187.47 637.224 187.773C638.111 188.076 638.918 188.568 639.645 189.25C640.372 189.924 640.952 190.818 641.384 191.932C641.815 193.045 642.031 194.417 642.031 196.045V197.182H628.577V194.864H639.304C639.304 193.879 639.107 193 638.713 192.227C638.327 191.455 637.774 190.845 637.054 190.398C636.342 189.951 635.501 189.727 634.531 189.727C633.463 189.727 632.539 189.992 631.759 190.523C630.986 191.045 630.391 191.727 629.974 192.568C629.558 193.409 629.349 194.311 629.349 195.273V196.818C629.349 198.136 629.577 199.254 630.031 200.17C630.493 201.08 631.134 201.773 631.952 202.25C632.77 202.72 633.721 202.955 634.804 202.955C635.509 202.955 636.145 202.856 636.713 202.659C637.289 202.455 637.785 202.152 638.202 201.75C638.618 201.341 638.94 200.833 639.168 200.227L641.759 200.955C641.486 201.833 641.027 202.606 640.384 203.273C639.74 203.932 638.944 204.447 637.997 204.818C637.05 205.182 635.986 205.364 634.804 205.364ZM646.111 205V187.545H648.702V190.182H648.884C649.202 189.318 649.777 188.617 650.611 188.08C651.444 187.542 652.384 187.273 653.429 187.273C653.626 187.273 653.872 187.277 654.168 187.284C654.463 187.292 654.687 187.303 654.838 187.318V190.045C654.747 190.023 654.539 189.989 654.213 189.943C653.895 189.89 653.558 189.864 653.202 189.864C652.353 189.864 651.596 190.042 650.929 190.398C650.27 190.746 649.747 191.231 649.361 191.852C648.982 192.466 648.793 193.167 648.793 193.955V205H646.111ZM664.577 205.364C662.94 205.364 661.531 204.977 660.349 204.205C659.168 203.432 658.259 202.367 657.622 201.011C656.986 199.655 656.668 198.106 656.668 196.364C656.668 194.591 656.993 193.027 657.645 191.67C658.304 190.307 659.221 189.242 660.395 188.477C661.577 187.705 662.955 187.318 664.531 187.318C665.759 187.318 666.865 187.545 667.849 188C668.834 188.455 669.641 189.091 670.27 189.909C670.899 190.727 671.289 191.682 671.44 192.773H668.759C668.554 191.977 668.099 191.273 667.395 190.659C666.698 190.038 665.759 189.727 664.577 189.727C663.531 189.727 662.615 190 661.827 190.545C661.046 191.083 660.437 191.845 659.997 192.83C659.565 193.807 659.349 194.955 659.349 196.273C659.349 197.621 659.562 198.795 659.986 199.795C660.418 200.795 661.024 201.572 661.804 202.125C662.592 202.678 663.516 202.955 664.577 202.955C665.274 202.955 665.906 202.833 666.474 202.591C667.043 202.348 667.524 202 667.918 201.545C668.312 201.091 668.592 200.545 668.759 199.909H671.44C671.289 200.939 670.914 201.867 670.315 202.693C669.724 203.511 668.94 204.163 667.963 204.648C666.993 205.125 665.865 205.364 664.577 205.364ZM678.043 194.5V205H675.361V181.727H678.043V190.273H678.27C678.679 189.371 679.293 188.655 680.111 188.125C680.937 187.587 682.035 187.318 683.406 187.318C684.596 187.318 685.637 187.557 686.531 188.034C687.425 188.504 688.118 189.227 688.611 190.205C689.111 191.174 689.361 192.409 689.361 193.909V205H686.679V194.091C686.679 192.705 686.319 191.633 685.599 190.875C684.887 190.11 683.899 189.727 682.634 189.727C681.755 189.727 680.967 189.913 680.27 190.284C679.58 190.655 679.035 191.197 678.634 191.909C678.24 192.621 678.043 193.485 678.043 194.5ZM701.585 205.364C699.903 205.364 698.453 204.992 697.233 204.25C696.021 203.5 695.085 202.455 694.426 201.114C693.775 199.765 693.449 198.197 693.449 196.409C693.449 194.621 693.775 193.045 694.426 191.682C695.085 190.311 696.002 189.242 697.176 188.477C698.358 187.705 699.737 187.318 701.312 187.318C702.222 187.318 703.119 187.47 704.006 187.773C704.892 188.076 705.699 188.568 706.426 189.25C707.153 189.924 707.733 190.818 708.165 191.932C708.597 193.045 708.812 194.417 708.812 196.045V197.182H695.358V194.864H706.085C706.085 193.879 705.888 193 705.494 192.227C705.108 191.455 704.555 190.845 703.835 190.398C703.123 189.951 702.282 189.727 701.312 189.727C700.244 189.727 699.32 189.992 698.54 190.523C697.767 191.045 697.172 191.727 696.756 192.568C696.339 193.409 696.131 194.311 696.131 195.273V196.818C696.131 198.136 696.358 199.254 696.812 200.17C697.275 201.08 697.915 201.773 698.733 202.25C699.551 202.72 700.502 202.955 701.585 202.955C702.29 202.955 702.926 202.856 703.494 202.659C704.07 202.455 704.566 202.152 704.983 201.75C705.4 201.341 705.722 200.833 705.949 200.227L708.54 200.955C708.267 201.833 707.809 202.606 707.165 203.273C706.521 203.932 705.725 204.447 704.778 204.818C703.831 205.182 702.767 205.364 701.585 205.364Z" fill="black"/>
<rect x="1113" y="614" width="151" height="41" rx="10" fill="black"/>
<path d="M1168.01 640.182C1167.28 640.182 1166.64 639.998 1166.08 639.631C1165.52 639.259 1165.09 638.737 1164.77 638.062C1164.46 637.384 1164.3 636.583 1164.3 635.659C1164.3 634.742 1164.46 633.947 1164.77 633.273C1165.09 632.598 1165.53 632.078 1166.09 631.71C1166.65 631.343 1167.29 631.159 1168.03 631.159C1168.6 631.159 1169.05 631.254 1169.38 631.443C1169.71 631.629 1169.96 631.841 1170.14 632.08C1170.32 632.314 1170.45 632.508 1170.55 632.659H1170.67V628.364H1172.01V640H1170.71V638.659H1170.55C1170.45 638.818 1170.31 639.019 1170.13 639.261C1169.95 639.5 1169.69 639.714 1169.35 639.903C1169.02 640.089 1168.57 640.182 1168.01 640.182ZM1168.19 638.977C1168.73 638.977 1169.18 638.837 1169.55 638.557C1169.92 638.273 1170.21 637.881 1170.4 637.381C1170.59 636.877 1170.69 636.295 1170.69 635.636C1170.69 634.985 1170.59 634.415 1170.4 633.926C1170.22 633.434 1169.94 633.051 1169.56 632.778C1169.19 632.502 1168.73 632.364 1168.19 632.364C1167.62 632.364 1167.15 632.509 1166.77 632.801C1166.39 633.089 1166.11 633.481 1165.92 633.977C1165.74 634.47 1165.64 635.023 1165.64 635.636C1165.64 636.258 1165.74 636.822 1165.93 637.33C1166.12 637.833 1166.4 638.235 1166.78 638.534C1167.16 638.83 1167.63 638.977 1168.19 638.977ZM1178.31 640.182C1177.47 640.182 1176.74 639.996 1176.13 639.625C1175.53 639.25 1175.06 638.727 1174.73 638.057C1174.4 637.383 1174.24 636.598 1174.24 635.705C1174.24 634.811 1174.4 634.023 1174.73 633.341C1175.06 632.655 1175.52 632.121 1176.1 631.739C1176.69 631.352 1177.38 631.159 1178.17 631.159C1178.63 631.159 1179.08 631.235 1179.52 631.386C1179.96 631.538 1180.37 631.784 1180.73 632.125C1181.09 632.462 1181.38 632.909 1181.6 633.466C1181.81 634.023 1181.92 634.708 1181.92 635.523V636.091H1175.19V634.932H1180.56C1180.56 634.439 1180.46 634 1180.26 633.614C1180.07 633.227 1179.79 632.922 1179.43 632.699C1179.08 632.475 1178.66 632.364 1178.17 632.364C1177.64 632.364 1177.18 632.496 1176.79 632.761C1176.4 633.023 1176.1 633.364 1175.89 633.784C1175.69 634.205 1175.58 634.655 1175.58 635.136V635.909C1175.58 636.568 1175.69 637.127 1175.92 637.585C1176.15 638.04 1176.47 638.386 1176.88 638.625C1177.29 638.86 1177.77 638.977 1178.31 638.977C1178.66 638.977 1178.98 638.928 1179.26 638.83C1179.55 638.727 1179.8 638.576 1180.01 638.375C1180.22 638.17 1180.38 637.917 1180.49 637.614L1181.79 637.977C1181.65 638.417 1181.42 638.803 1181.1 639.136C1180.78 639.466 1180.38 639.723 1179.9 639.909C1179.43 640.091 1178.9 640.182 1178.31 640.182ZM1177.49 630.091L1178.88 627.455H1180.44L1178.67 630.091H1177.49ZM1187.76 631.273V632.409H1183.23V631.273H1187.76ZM1184.55 629.182H1185.89V637.5C1185.89 637.879 1185.95 638.163 1186.06 638.352C1186.17 638.538 1186.32 638.663 1186.49 638.727C1186.67 638.788 1186.86 638.818 1187.05 638.818C1187.2 638.818 1187.32 638.811 1187.42 638.795C1187.51 638.777 1187.59 638.761 1187.64 638.75L1187.92 639.955C1187.83 639.989 1187.7 640.023 1187.54 640.057C1187.37 640.095 1187.17 640.114 1186.92 640.114C1186.54 640.114 1186.17 640.032 1185.8 639.869C1185.44 639.706 1185.14 639.458 1184.9 639.125C1184.67 638.792 1184.55 638.371 1184.55 637.864V629.182ZM1192.34 640.205C1191.79 640.205 1191.29 640.1 1190.84 639.892C1190.39 639.68 1190.03 639.375 1189.76 638.977C1189.5 638.576 1189.37 638.091 1189.37 637.523C1189.37 637.023 1189.46 636.617 1189.66 636.307C1189.86 635.992 1190.12 635.746 1190.45 635.568C1190.78 635.39 1191.14 635.258 1191.54 635.17C1191.94 635.08 1192.35 635.008 1192.75 634.955C1193.28 634.886 1193.71 634.835 1194.04 634.801C1194.37 634.763 1194.62 634.701 1194.77 634.614C1194.92 634.527 1195 634.375 1195 634.159V634.114C1195 633.553 1194.85 633.117 1194.54 632.807C1194.24 632.496 1193.78 632.341 1193.16 632.341C1192.52 632.341 1192.02 632.481 1191.65 632.761C1191.29 633.042 1191.04 633.341 1190.89 633.659L1189.62 633.205C1189.84 632.674 1190.15 632.261 1190.52 631.966C1190.91 631.667 1191.32 631.458 1191.77 631.341C1192.23 631.22 1192.68 631.159 1193.12 631.159C1193.4 631.159 1193.72 631.193 1194.08 631.261C1194.45 631.326 1194.8 631.46 1195.14 631.665C1195.49 631.869 1195.77 632.178 1196 632.591C1196.23 633.004 1196.34 633.557 1196.34 634.25V640H1195V638.818H1194.93C1194.84 639.008 1194.69 639.21 1194.48 639.426C1194.27 639.642 1193.98 639.826 1193.63 639.977C1193.28 640.129 1192.85 640.205 1192.34 640.205ZM1192.55 639C1193.08 639 1193.52 638.896 1193.89 638.688C1194.26 638.479 1194.53 638.21 1194.72 637.881C1194.91 637.551 1195 637.205 1195 636.841V635.614C1194.94 635.682 1194.82 635.744 1194.63 635.801C1194.44 635.854 1194.22 635.902 1193.97 635.943C1193.72 635.981 1193.48 636.015 1193.25 636.045C1193.01 636.072 1192.83 636.095 1192.68 636.114C1192.33 636.159 1192.01 636.233 1191.71 636.335C1191.41 636.434 1191.16 636.583 1190.98 636.784C1190.8 636.981 1190.71 637.25 1190.71 637.591C1190.71 638.057 1190.88 638.409 1191.22 638.648C1191.57 638.883 1192.01 639 1192.55 639ZM1198.79 640V631.273H1200.13V640H1198.79ZM1199.47 629.818C1199.21 629.818 1198.98 629.729 1198.8 629.551C1198.61 629.373 1198.52 629.159 1198.52 628.909C1198.52 628.659 1198.61 628.445 1198.8 628.267C1198.98 628.089 1199.21 628 1199.47 628C1199.73 628 1199.96 628.089 1200.14 628.267C1200.33 628.445 1200.43 628.659 1200.43 628.909C1200.43 629.159 1200.33 629.373 1200.14 629.551C1199.96 629.729 1199.73 629.818 1199.47 629.818ZM1203.93 628.364V640H1202.59V628.364H1203.93ZM1212.57 633.227L1211.36 633.568C1211.29 633.367 1211.17 633.172 1211.03 632.983C1210.88 632.79 1210.68 632.631 1210.43 632.506C1210.18 632.381 1209.86 632.318 1209.47 632.318C1208.94 632.318 1208.5 632.441 1208.14 632.688C1207.79 632.93 1207.61 633.239 1207.61 633.614C1207.61 633.947 1207.73 634.21 1207.97 634.403C1208.22 634.597 1208.6 634.758 1209.11 634.886L1210.41 635.205C1211.19 635.394 1211.77 635.684 1212.15 636.074C1212.53 636.46 1212.72 636.958 1212.72 637.568C1212.72 638.068 1212.58 638.515 1212.29 638.909C1212.01 639.303 1211.61 639.614 1211.1 639.841C1210.59 640.068 1209.99 640.182 1209.32 640.182C1208.43 640.182 1207.69 639.989 1207.11 639.602C1206.52 639.216 1206.15 638.652 1206 637.909L1207.27 637.591C1207.39 638.061 1207.62 638.413 1207.96 638.648C1208.3 638.883 1208.74 639 1209.29 639C1209.92 639 1210.41 638.867 1210.78 638.602C1211.15 638.333 1211.34 638.011 1211.34 637.636C1211.34 637.333 1211.23 637.08 1211.02 636.875C1210.81 636.667 1210.48 636.511 1210.04 636.409L1208.59 636.068C1207.79 635.879 1207.2 635.585 1206.83 635.188C1206.46 634.786 1206.27 634.284 1206.27 633.682C1206.27 633.189 1206.41 632.754 1206.68 632.375C1206.96 631.996 1207.35 631.699 1207.83 631.483C1208.31 631.267 1208.86 631.159 1209.47 631.159C1210.34 631.159 1211.02 631.348 1211.51 631.727C1212 632.106 1212.36 632.606 1212.57 633.227Z" fill="white"/>
<rect x="1113" y="403" width="151" height="41" rx="10" fill="black"/>
<path d="M1168.01 429.182C1167.28 429.182 1166.64 428.998 1166.08 428.631C1165.52 428.259 1165.09 427.737 1164.77 427.062C1164.46 426.384 1164.3 425.583 1164.3 424.659C1164.3 423.742 1164.46 422.947 1164.77 422.273C1165.09 421.598 1165.53 421.078 1166.09 420.71C1166.65 420.343 1167.29 420.159 1168.03 420.159C1168.6 420.159 1169.05 420.254 1169.38 420.443C1169.71 420.629 1169.96 420.841 1170.14 421.08C1170.32 421.314 1170.45 421.508 1170.55 421.659H1170.67V417.364H1172.01V429H1170.71V427.659H1170.55C1170.45 427.818 1170.31 428.019 1170.13 428.261C1169.95 428.5 1169.69 428.714 1169.35 428.903C1169.02 429.089 1168.57 429.182 1168.01 429.182ZM1168.19 427.977C1168.73 427.977 1169.18 427.837 1169.55 427.557C1169.92 427.273 1170.21 426.881 1170.4 426.381C1170.59 425.877 1170.69 425.295 1170.69 424.636C1170.69 423.985 1170.59 423.415 1170.4 422.926C1170.22 422.434 1169.94 422.051 1169.56 421.778C1169.19 421.502 1168.73 421.364 1168.19 421.364C1167.62 421.364 1167.15 421.509 1166.77 421.801C1166.39 422.089 1166.11 422.481 1165.92 422.977C1165.74 423.47 1165.64 424.023 1165.64 424.636C1165.64 425.258 1165.74 425.822 1165.93 426.33C1166.12 426.833 1166.4 427.235 1166.78 427.534C1167.16 427.83 1167.63 427.977 1168.19 427.977ZM1178.31 429.182C1177.47 429.182 1176.74 428.996 1176.13 428.625C1175.53 428.25 1175.06 427.727 1174.73 427.057C1174.4 426.383 1174.24 425.598 1174.24 424.705C1174.24 423.811 1174.4 423.023 1174.73 422.341C1175.06 421.655 1175.52 421.121 1176.1 420.739C1176.69 420.352 1177.38 420.159 1178.17 420.159C1178.63 420.159 1179.08 420.235 1179.52 420.386C1179.96 420.538 1180.37 420.784 1180.73 421.125C1181.09 421.462 1181.38 421.909 1181.6 422.466C1181.81 423.023 1181.92 423.708 1181.92 424.523V425.091H1175.19V423.932H1180.56C1180.56 423.439 1180.46 423 1180.26 422.614C1180.07 422.227 1179.79 421.922 1179.43 421.699C1179.08 421.475 1178.66 421.364 1178.17 421.364C1177.64 421.364 1177.18 421.496 1176.79 421.761C1176.4 422.023 1176.1 422.364 1175.89 422.784C1175.69 423.205 1175.58 423.655 1175.58 424.136V424.909C1175.58 425.568 1175.69 426.127 1175.92 426.585C1176.15 427.04 1176.47 427.386 1176.88 427.625C1177.29 427.86 1177.77 427.977 1178.31 427.977C1178.66 427.977 1178.98 427.928 1179.26 427.83C1179.55 427.727 1179.8 427.576 1180.01 427.375C1180.22 427.17 1180.38 426.917 1180.49 426.614L1181.79 426.977C1181.65 427.417 1181.42 427.803 1181.1 428.136C1180.78 428.466 1180.38 428.723 1179.9 428.909C1179.43 429.091 1178.9 429.182 1178.31 429.182ZM1177.49 419.091L1178.88 416.455H1180.44L1178.67 419.091H1177.49ZM1187.76 420.273V421.409H1183.23V420.273H1187.76ZM1184.55 418.182H1185.89V426.5C1185.89 426.879 1185.95 427.163 1186.06 427.352C1186.17 427.538 1186.32 427.663 1186.49 427.727C1186.67 427.788 1186.86 427.818 1187.05 427.818C1187.2 427.818 1187.32 427.811 1187.42 427.795C1187.51 427.777 1187.59 427.761 1187.64 427.75L1187.92 428.955C1187.83 428.989 1187.7 429.023 1187.54 429.057C1187.37 429.095 1187.17 429.114 1186.92 429.114C1186.54 429.114 1186.17 429.032 1185.8 428.869C1185.44 428.706 1185.14 428.458 1184.9 428.125C1184.67 427.792 1184.55 427.371 1184.55 426.864V418.182ZM1192.34 429.205C1191.79 429.205 1191.29 429.1 1190.84 428.892C1190.39 428.68 1190.03 428.375 1189.76 427.977C1189.5 427.576 1189.37 427.091 1189.37 426.523C1189.37 426.023 1189.46 425.617 1189.66 425.307C1189.86 424.992 1190.12 424.746 1190.45 424.568C1190.78 424.39 1191.14 424.258 1191.54 424.17C1191.94 424.08 1192.35 424.008 1192.75 423.955C1193.28 423.886 1193.71 423.835 1194.04 423.801C1194.37 423.763 1194.62 423.701 1194.77 423.614C1194.92 423.527 1195 423.375 1195 423.159V423.114C1195 422.553 1194.85 422.117 1194.54 421.807C1194.24 421.496 1193.78 421.341 1193.16 421.341C1192.52 421.341 1192.02 421.481 1191.65 421.761C1191.29 422.042 1191.04 422.341 1190.89 422.659L1189.62 422.205C1189.84 421.674 1190.15 421.261 1190.52 420.966C1190.91 420.667 1191.32 420.458 1191.77 420.341C1192.23 420.22 1192.68 420.159 1193.12 420.159C1193.4 420.159 1193.72 420.193 1194.08 420.261C1194.45 420.326 1194.8 420.46 1195.14 420.665C1195.49 420.869 1195.77 421.178 1196 421.591C1196.23 422.004 1196.34 422.557 1196.34 423.25V429H1195V427.818H1194.93C1194.84 428.008 1194.69 428.21 1194.48 428.426C1194.27 428.642 1193.98 428.826 1193.63 428.977C1193.28 429.129 1192.85 429.205 1192.34 429.205ZM1192.55 428C1193.08 428 1193.52 427.896 1193.89 427.688C1194.26 427.479 1194.53 427.21 1194.72 426.881C1194.91 426.551 1195 426.205 1195 425.841V424.614C1194.94 424.682 1194.82 424.744 1194.63 424.801C1194.44 424.854 1194.22 424.902 1193.97 424.943C1193.72 424.981 1193.48 425.015 1193.25 425.045C1193.01 425.072 1192.83 425.095 1192.68 425.114C1192.33 425.159 1192.01 425.233 1191.71 425.335C1191.41 425.434 1191.16 425.583 1190.98 425.784C1190.8 425.981 1190.71 426.25 1190.71 426.591C1190.71 427.057 1190.88 427.409 1191.22 427.648C1191.57 427.883 1192.01 428 1192.55 428ZM1198.79 429V420.273H1200.13V429H1198.79ZM1199.47 418.818C1199.21 418.818 1198.98 418.729 1198.8 418.551C1198.61 418.373 1198.52 418.159 1198.52 417.909C1198.52 417.659 1198.61 417.445 1198.8 417.267C1198.98 417.089 1199.21 417 1199.47 417C1199.73 417 1199.96 417.089 1200.14 417.267C1200.33 417.445 1200.43 417.659 1200.43 417.909C1200.43 418.159 1200.33 418.373 1200.14 418.551C1199.96 418.729 1199.73 418.818 1199.47 418.818ZM1203.93 417.364V429H1202.59V417.364H1203.93ZM1212.57 422.227L1211.36 422.568C1211.29 422.367 1211.17 422.172 1211.03 421.983C1210.88 421.79 1210.68 421.631 1210.43 421.506C1210.18 421.381 1209.86 421.318 1209.47 421.318C1208.94 421.318 1208.5 421.441 1208.14 421.688C1207.79 421.93 1207.61 422.239 1207.61 422.614C1207.61 422.947 1207.73 423.21 1207.97 423.403C1208.22 423.597 1208.6 423.758 1209.11 423.886L1210.41 424.205C1211.19 424.394 1211.77 424.684 1212.15 425.074C1212.53 425.46 1212.72 425.958 1212.72 426.568C1212.72 427.068 1212.58 427.515 1212.29 427.909C1212.01 428.303 1211.61 428.614 1211.1 428.841C1210.59 429.068 1209.99 429.182 1209.32 429.182C1208.43 429.182 1207.69 428.989 1207.11 428.602C1206.52 428.216 1206.15 427.652 1206 426.909L1207.27 426.591C1207.39 427.061 1207.62 427.413 1207.96 427.648C1208.3 427.883 1208.74 428 1209.29 428C1209.92 428 1210.41 427.867 1210.78 427.602C1211.15 427.333 1211.34 427.011 1211.34 426.636C1211.34 426.333 1211.23 426.08 1211.02 425.875C1210.81 425.667 1210.48 425.511 1210.04 425.409L1208.59 425.068C1207.79 424.879 1207.2 424.585 1206.83 424.188C1206.46 423.786 1206.27 423.284 1206.27 422.682C1206.27 422.189 1206.41 421.754 1206.68 421.375C1206.96 420.996 1207.35 420.699 1207.83 420.483C1208.31 420.267 1208.86 420.159 1209.47 420.159C1210.34 420.159 1211.02 420.348 1211.51 420.727C1212 421.106 1212.36 421.606 1212.57 422.227Z" fill="white"/>
<rect x="1113" y="825" width="151" height="41" rx="10" fill="black"/>
<path d="M1168.01 851.182C1167.28 851.182 1166.64 850.998 1166.08 850.631C1165.52 850.259 1165.09 849.737 1164.77 849.062C1164.46 848.384 1164.3 847.583 1164.3 846.659C1164.3 845.742 1164.46 844.947 1164.77 844.273C1165.09 843.598 1165.53 843.078 1166.09 842.71C1166.65 842.343 1167.29 842.159 1168.03 842.159C1168.6 842.159 1169.05 842.254 1169.38 842.443C1169.71 842.629 1169.96 842.841 1170.14 843.08C1170.32 843.314 1170.45 843.508 1170.55 843.659H1170.67V839.364H1172.01V851H1170.71V849.659H1170.55C1170.45 849.818 1170.31 850.019 1170.13 850.261C1169.95 850.5 1169.69 850.714 1169.35 850.903C1169.02 851.089 1168.57 851.182 1168.01 851.182ZM1168.19 849.977C1168.73 849.977 1169.18 849.837 1169.55 849.557C1169.92 849.273 1170.21 848.881 1170.4 848.381C1170.59 847.877 1170.69 847.295 1170.69 846.636C1170.69 845.985 1170.59 845.415 1170.4 844.926C1170.22 844.434 1169.94 844.051 1169.56 843.778C1169.19 843.502 1168.73 843.364 1168.19 843.364C1167.62 843.364 1167.15 843.509 1166.77 843.801C1166.39 844.089 1166.11 844.481 1165.92 844.977C1165.74 845.47 1165.64 846.023 1165.64 846.636C1165.64 847.258 1165.74 847.822 1165.93 848.33C1166.12 848.833 1166.4 849.235 1166.78 849.534C1167.16 849.83 1167.63 849.977 1168.19 849.977ZM1178.31 851.182C1177.47 851.182 1176.74 850.996 1176.13 850.625C1175.53 850.25 1175.06 849.727 1174.73 849.057C1174.4 848.383 1174.24 847.598 1174.24 846.705C1174.24 845.811 1174.4 845.023 1174.73 844.341C1175.06 843.655 1175.52 843.121 1176.1 842.739C1176.69 842.352 1177.38 842.159 1178.17 842.159C1178.63 842.159 1179.08 842.235 1179.52 842.386C1179.96 842.538 1180.37 842.784 1180.73 843.125C1181.09 843.462 1181.38 843.909 1181.6 844.466C1181.81 845.023 1181.92 845.708 1181.92 846.523V847.091H1175.19V845.932H1180.56C1180.56 845.439 1180.46 845 1180.26 844.614C1180.07 844.227 1179.79 843.922 1179.43 843.699C1179.08 843.475 1178.66 843.364 1178.17 843.364C1177.64 843.364 1177.18 843.496 1176.79 843.761C1176.4 844.023 1176.1 844.364 1175.89 844.784C1175.69 845.205 1175.58 845.655 1175.58 846.136V846.909C1175.58 847.568 1175.69 848.127 1175.92 848.585C1176.15 849.04 1176.47 849.386 1176.88 849.625C1177.29 849.86 1177.77 849.977 1178.31 849.977C1178.66 849.977 1178.98 849.928 1179.26 849.83C1179.55 849.727 1179.8 849.576 1180.01 849.375C1180.22 849.17 1180.38 848.917 1180.49 848.614L1181.79 848.977C1181.65 849.417 1181.42 849.803 1181.1 850.136C1180.78 850.466 1180.38 850.723 1179.9 850.909C1179.43 851.091 1178.9 851.182 1178.31 851.182ZM1177.49 841.091L1178.88 838.455H1180.44L1178.67 841.091H1177.49ZM1187.76 842.273V843.409H1183.23V842.273H1187.76ZM1184.55 840.182H1185.89V848.5C1185.89 848.879 1185.95 849.163 1186.06 849.352C1186.17 849.538 1186.32 849.663 1186.49 849.727C1186.67 849.788 1186.86 849.818 1187.05 849.818C1187.2 849.818 1187.32 849.811 1187.42 849.795C1187.51 849.777 1187.59 849.761 1187.64 849.75L1187.92 850.955C1187.83 850.989 1187.7 851.023 1187.54 851.057C1187.37 851.095 1187.17 851.114 1186.92 851.114C1186.54 851.114 1186.17 851.032 1185.8 850.869C1185.44 850.706 1185.14 850.458 1184.9 850.125C1184.67 849.792 1184.55 849.371 1184.55 848.864V840.182ZM1192.34 851.205C1191.79 851.205 1191.29 851.1 1190.84 850.892C1190.39 850.68 1190.03 850.375 1189.76 849.977C1189.5 849.576 1189.37 849.091 1189.37 848.523C1189.37 848.023 1189.46 847.617 1189.66 847.307C1189.86 846.992 1190.12 846.746 1190.45 846.568C1190.78 846.39 1191.14 846.258 1191.54 846.17C1191.94 846.08 1192.35 846.008 1192.75 845.955C1193.28 845.886 1193.71 845.835 1194.04 845.801C1194.37 845.763 1194.62 845.701 1194.77 845.614C1194.92 845.527 1195 845.375 1195 845.159V845.114C1195 844.553 1194.85 844.117 1194.54 843.807C1194.24 843.496 1193.78 843.341 1193.16 843.341C1192.52 843.341 1192.02 843.481 1191.65 843.761C1191.29 844.042 1191.04 844.341 1190.89 844.659L1189.62 844.205C1189.84 843.674 1190.15 843.261 1190.52 842.966C1190.91 842.667 1191.32 842.458 1191.77 842.341C1192.23 842.22 1192.68 842.159 1193.12 842.159C1193.4 842.159 1193.72 842.193 1194.08 842.261C1194.45 842.326 1194.8 842.46 1195.14 842.665C1195.49 842.869 1195.77 843.178 1196 843.591C1196.23 844.004 1196.34 844.557 1196.34 845.25V851H1195V849.818H1194.93C1194.84 850.008 1194.69 850.21 1194.48 850.426C1194.27 850.642 1193.98 850.826 1193.63 850.977C1193.28 851.129 1192.85 851.205 1192.34 851.205ZM1192.55 850C1193.08 850 1193.52 849.896 1193.89 849.688C1194.26 849.479 1194.53 849.21 1194.72 848.881C1194.91 848.551 1195 848.205 1195 847.841V846.614C1194.94 846.682 1194.82 846.744 1194.63 846.801C1194.44 846.854 1194.22 846.902 1193.97 846.943C1193.72 846.981 1193.48 847.015 1193.25 847.045C1193.01 847.072 1192.83 847.095 1192.68 847.114C1192.33 847.159 1192.01 847.233 1191.71 847.335C1191.41 847.434 1191.16 847.583 1190.98 847.784C1190.8 847.981 1190.71 848.25 1190.71 848.591C1190.71 849.057 1190.88 849.409 1191.22 849.648C1191.57 849.883 1192.01 850 1192.55 850ZM1198.79 851V842.273H1200.13V851H1198.79ZM1199.47 840.818C1199.21 840.818 1198.98 840.729 1198.8 840.551C1198.61 840.373 1198.52 840.159 1198.52 839.909C1198.52 839.659 1198.61 839.445 1198.8 839.267C1198.98 839.089 1199.21 839 1199.47 839C1199.73 839 1199.96 839.089 1200.14 839.267C1200.33 839.445 1200.43 839.659 1200.43 839.909C1200.43 840.159 1200.33 840.373 1200.14 840.551C1199.96 840.729 1199.73 840.818 1199.47 840.818ZM1203.93 839.364V851H1202.59V839.364H1203.93ZM1212.57 844.227L1211.36 844.568C1211.29 844.367 1211.17 844.172 1211.03 843.983C1210.88 843.79 1210.68 843.631 1210.43 843.506C1210.18 843.381 1209.86 843.318 1209.47 843.318C1208.94 843.318 1208.5 843.441 1208.14 843.688C1207.79 843.93 1207.61 844.239 1207.61 844.614C1207.61 844.947 1207.73 845.21 1207.97 845.403C1208.22 845.597 1208.6 845.758 1209.11 845.886L1210.41 846.205C1211.19 846.394 1211.77 846.684 1212.15 847.074C1212.53 847.46 1212.72 847.958 1212.72 848.568C1212.72 849.068 1212.58 849.515 1212.29 849.909C1212.01 850.303 1211.61 850.614 1211.1 850.841C1210.59 851.068 1209.99 851.182 1209.32 851.182C1208.43 851.182 1207.69 850.989 1207.11 850.602C1206.52 850.216 1206.15 849.652 1206 848.909L1207.27 848.591C1207.39 849.061 1207.62 849.413 1207.96 849.648C1208.3 849.883 1208.74 850 1209.29 850C1209.92 850 1210.41 849.867 1210.78 849.602C1211.15 849.333 1211.34 849.011 1211.34 848.636C1211.34 848.333 1211.23 848.08 1211.02 847.875C1210.81 847.667 1210.48 847.511 1210.04 847.409L1208.59 847.068C1207.79 846.879 1207.2 846.585 1206.83 846.188C1206.46 845.786 1206.27 845.284 1206.27 844.682C1206.27 844.189 1206.41 843.754 1206.68 843.375C1206.96 842.996 1207.35 842.699 1207.83 842.483C1208.31 842.267 1208.86 842.159 1209.47 842.159C1210.34 842.159 1211.02 842.348 1211.51 842.727C1212 843.106 1212.36 843.606 1212.57 844.227Z" fill="white"/>
</g>
<defs>
<clipPath id="clip0_6_110">
<rect width="1440" height="1024" fill="white"/>
</clipPath>
</defs>
</svg>
