<?xml version="1.0" encoding="UTF-8"?>
<svg id="Calque_1" data-name="Calque 1" xmlns="http://www.w3.org/2000/svg" viewBox="0 0 796 331">
  <path d="M93.24,75.35c9.52-8.8,21.03-14.35,32.74-19.3,16.12-6.82,33.07-10.85,50.47-12.95,17.44-2.11,34.76-1.11,51.92,2.31,10.95,2.18,21.78,4.94,32.7,7.29,1.86.4,3.87.06,6.49-.97-1.89-1.5-3.55-3.59-5.69-4.42-11.94-4.58-23.99-8.86-36.01-13.22-1.51-.55-3.1-.89-5.86-1.68,18.93-6.07,36.54-12.51,54.6-17.27,17.33-4.57,35.06-7.68,52.72-10.87,8.11-1.46,16.48-1.53,24.72-2.3,1.34-.13,2.64-.64,3.96-.97,4.67,0,9.33,0,14,0,4.12.64,8.21,1.58,12.35,1.88,32.27,2.33,62.43,11.34,90.16,28.17.54.33.91.93,1.05,2.11-6.01-2.35-11.93-4.95-18.04-6.99-20.16-6.73-40.89-10.17-62.14-11.29-22.66-1.19-44.99.6-67.15,5.12-10.51,2.15-15.66,9.92-14.05,20.73,1.43,9.59,6.43,17.24,13.12,23.93,5.05,5.05,11.98,4.06,18.13,5.15,24.87,4.41,49.96,3.34,75.02,2.17,21.73-1.02,43.52-1.28,65.15-3.33,15.05-1.43,29.81-5.64,44.8-8,16.49-2.6,33.03-5.27,49.66-6.5,14.68-1.09,29.6-1.27,44.25,0,29.41,2.54,57.44,9.8,81.25,28.74,3.31,2.63,3.03,5.38,2.35,8.63-1.03,4.94-2.11,9.86-3.31,15.42,5.73-.76,6.15,2.24,5.46,6.08-.88,4.87-1.34,9.86-2.73,14.58-.62,2.1-2.99,5.1-4.74,5.23-13.38.97-26.8,1.33-40.62,1.9-3.36-21.5-12.63-38.99-34.23-47.64,11.39,12.96,21.16,26.59,22.31,45.46-11.08-25.16-28.82-40.11-56.19-39.94-27.09.18-44.34,15.62-54.98,39.65.96-13.82,7.43-25.23,15.43-37.19-8.48,0-15.41-.08-22.34.02-18.63.26-37.26,1.13-55.88.78-25.73-.49-51.5-1.19-77.17-3.04-34.67-2.5-69.09-7.34-102.7-16.61-13.63-3.76-27.07-8.22-40.51-12.62-14.23-4.65-28.79-6.75-43.71-7.7-24.95-1.59-49.37,1.58-73.45,7.33-13.72,3.28-27.02,8.3-40.52,12.52-.62.19-1.29.25-1.94.37-.29-.26-.58-.52-.87-.77Z" style="fill: #453731; stroke-width: 0px;"/>
  <path d="M581,331c-.8-.48-1.55-1.21-2.42-1.39-9.87-2.09-16.05-8.09-17.66-17.94-1.69-10.32,1.73-19,10.32-25.36,8.85-6.54,19.35-8.43,29.76-10.57,1.77-.36,3.55-.64,5.47-.99.3-5.21,1.61-10.9-4.34-13.25-9.82-3.87-17.81-.42-23.83,8.41-4.61-3.43-8.82-6.57-13.35-9.95,6.66-10.17,16.16-14.91,27.54-15.87,4.89-.41,10.03.07,14.84,1.15,12.23,2.74,19.1,11.24,19.8,25.96.84,17.44.59,34.94.75,52.41.01,1.44-.51,2.89-.83,4.56h-17.82c-.49-1.58-1.02-3.26-1.52-4.88-7.69,2.61-15.2,5.16-22.7,7.71h-4ZM606.12,288.68c-7.44,2.92-14.19,4.78-20.11,8.12-6.1,3.45-5.79,13.21-.19,15.8,4.75,2.2,17.9-2.4,20.06-7.07.26-.57.22-1.31.22-1.97.02-4.31,0-8.62,0-14.89Z" style="fill: #eb6403; stroke-width: 0px;"/>
  <path d="M796,328h-20.89c-.1-2.2-.25-3.96-.26-5.71-.02-15.82-.2-31.64.05-47.45.22-13.98-5.89-16.68-19-11.46-5.06,2.01-7.41,5.43-7.22,11.49.51,15.64.17,31.3.17,46.95v5.7h-20.51v-81.64h18.57c.22,1.92.44,3.81.74,6.46,2.13-1.02,3.89-1.73,5.53-2.66,7.85-4.46,15.97-7.38,25.17-4.87,8.73,2.38,13.58,8.41,16.02,16.79.44,1.5,1.08,2.94,1.63,4.41v2c-.33,1.22-.95,2.43-.95,3.65-.06,16.9-.06,33.8,0,50.7,0,1.22.62,2.43.95,3.65v2Z" style="fill: #eb6401; stroke-width: 0px;"/>
  <path d="M202,331c-3.43-1.46-7.09-2.53-10.23-4.46-7.4-4.55-10.88-11.81-11.03-20.15-.34-19.8-.11-39.61-.11-59.83h20.41c.07,1.6.22,3.34.22,5.09.02,15.99.12,31.98-.03,47.97-.12,12.61,4.51,16.37,18.47,11.28,5.26-1.92,7.88-5.2,7.64-11.63-.61-15.63-.2-31.3-.2-46.96v-5.78h20.84v81.58h-18.52c-.22-2.07-.43-4-.65-6.09-7.76,3.05-15.29,6.02-22.82,8.98h-4Z" style="fill: #eb6402; stroke-width: 0px;"/>
  <path d="M335,331c-.79-.48-1.54-1.25-2.39-1.39-14.47-2.47-22.64-11.86-26.81-25.07-4.02-12.74-3.75-25.73,1.05-38.19,5.15-13.35,15.05-21.41,29.61-22.36,14.77-.97,24.83,6.51,31.75,19.05,4.8,8.7,5.12,18,4.36,28.08h-47.79c-.88,9.44,2.45,18.38,8.13,20.41,8.14,2.9,16.29,2.53,24.98-8.13,4.68,2.91,9.42,5.85,14.6,9.07-5.67,9.24-13.63,14.68-24.09,16.69-2.49.48-4.94,1.22-7.41,1.85h-6ZM325.15,275.64h27.47c.03-9.37-5.13-14.84-13.76-14.9-8.88-.06-13.59,4.91-13.71,14.9Z" style="fill: #eb6402; stroke-width: 0px;"/>
  <path d="M130,331c-3.38-1.09-6.86-1.96-10.14-3.3-10.96-4.49-17.53-13.06-20.62-24.11-4.71-16.8-3.47-32.86,7.4-47.38,9.79-13.08,29.45-15.75,43.17-7.9,7.32,4.19,12.05,10.52,14.93,18.07,5.82,15.3,5.62,30.61-1.96,45.36-4.99,9.71-12.84,15.92-23.85,17.77-1.35.23-2.62.98-3.92,1.49h-5ZM148.24,287.91c-1.42-6.71-2.33-13.1-4.18-19.2-1.51-4.98-5.71-6.84-10.92-7.04-5.51-.22-9.74,1.93-11.71,6.74-5.06,12.33-5.05,24.96.05,37.28,1.8,4.35,5.62,6.64,10.78,6.64,5.16,0,9.64-1.47,11.41-6.33,2.11-5.81,3.1-12.02,4.58-18.1Z" style="fill: #eb6402; stroke-width: 0px;"/>
  <path d="M1.66,327.18l-.4.16-.26-.34c0-37.67,0-75.33,0-113,.34,0,.68.01,1.02.02,0,35.74-.01,71.47-.04,107.21,0,1.98-.21,3.97-.32,5.95Z" style="fill: #f4b281; stroke-width: 0px;"/>
  <path d="M796,326c-.33-1.22-.95-2.43-.95-3.65-.06-16.9-.06-33.8,0-50.7,0-1.22.62-2.43.95-3.65v58Z" style="fill: #ef883d; stroke-width: 0px;"/>
  <path d="M461.86,327.85h-20.38v-113.7h20.2c10.9,0,10.86.01,13.66,10.25,5.31,19.41,10.66,38.81,16.05,58.2.42,1.5,1.21,2.89,1.82,4.33.53.03,1.07.06,1.6.09.92-3.04,1.9-6.06,2.75-9.11,5.55-19.86,11.15-39.7,16.54-59.6.84-3.08,2.05-4.33,5.38-4.24,8.95.23,17.91.08,27.18.08v113.53h-20.06v-74.58c-.51-.15-1.01-.3-1.52-.44-.83,1.55-1.96,3.01-2.44,4.66-6.26,21.73-12.57,43.45-18.52,65.27-1.19,4.38-3.03,6-7.5,5.49-3.6-.41-7.29-.08-11.18-.08-7.21-25.28-14.36-50.33-21.5-75.37-.7.13-1.39.26-2.09.39v74.84Z" style="fill: #eb6402; stroke-width: 0px;"/>
  <path d="M1.66,327.18c.11-1.98.32-3.97.32-5.95.03-35.74.03-71.47.04-107.21,15.99-.03,32-.56,47.97.01,25.48.91,40.67,23.79,31.48,46.76-3.14,7.85-9.26,12.73-18.19,16.33,4.18,8.4,8.29,16.62,12.38,24.84,4.05,8.14,8.08,16.29,12.61,25.44-8.53,0-16.1.14-23.65-.15-1.12-.04-2.56-1.89-3.19-3.22-6-12.79-11.96-25.59-17.67-38.51-1.21-2.73-2.6-3.73-5.51-3.57-4.44.23-8.9.06-13.82.06v45.17H1.66ZM25.16,262.14c7.82,0,15.42.32,22.98-.09,7.18-.39,11.57-4.82,11.95-10.98.61-10.06-2.51-15.81-10.7-16.73-7.95-.89-16.08-.19-24.23-.19v28Z" style="fill: #eb6301; stroke-width: 0px;"/>
  <path d="M136.63,75.11c31-8.24,62.33-11.82,94.06-5.11,8.58,1.82,17.02,4.51,25.31,7.41,46.39,16.28,94.38,24.14,143.25,26.59,33.73,1.69,67.52,2.02,101.29,2.84,9.13.22,18.28.03,27.63.03-1.97,7.94-3.91,15.75-6.08,24.51-1.93,0-4.51.07-7.09,0-43.23-1.28-86.4-3.52-129.31-9.29-30-4.03-59.81-9.16-88.56-18.89-18.35-6.21-36.38-13.38-54.58-20.04-23.97-8.77-48.86-11.04-74.13-10.1-10.61.4-21.2,1.34-31.79,2.04Z" style="fill: #ec6605; stroke-width: 0px;"/>
  <path d="M647.31,327.71v-113.11h20.42v113.11h-20.42Z" style="fill: #eb6503; stroke-width: 0px;"/>
  <path d="M268.91,214.42h20.12v113.27h-20.12v-113.27Z" style="fill: #eb6301; stroke-width: 0px;"/>
  <path d="M386.05,245.77h18.58c.31,2.4.6,4.64,1,7.7,3.7-2.44,6.73-4.95,10.17-6.56,3.53-1.65,7.47-2.41,11.82-3.74v21.92c-6.84-.72-12.88,1.37-17.21,6.68-1.82,2.23-3.34,5.44-3.4,8.24-.32,15.46-.16,30.94-.16,46.76h-20.8v-81Z" style="fill: #eb6402; stroke-width: 0px;"/>
  <path d="M254.83,142.83c-9.56-27.45-26.81-44.29-55.47-44.55-27.89-.26-46.06,15.39-56.46,40.99-1.04-28.06,21.28-54.61,50.42-57.25,37.27-3.37,63.3,29.73,61.51,60.82Z" style="fill: #493b35; stroke-width: 0px;"/>
  <path d="M707,327.82h-19.95v-81.99h19.95v81.99Z" style="fill: #eb6300; stroke-width: 0px;"/>
  <path d="M687.13,212.69h19.64v19.44h-19.64v-19.44Z" style="fill: #eb6300; stroke-width: 0px;"/>
  <path d="M94.11,76.12c-.87.34-1.73.68-2.6,1.01-.09-.22-.18-.43-.26-.65.66-.38,1.33-.76,1.99-1.14.29.26.58.52.87.77Z" style="fill: #453731; stroke-width: 0px;"/>
</svg>