<?xml version="1.0" encoding="UTF-8"?>
<svg id="Calque_1" data-name="Calque 1" xmlns="http://www.w3.org/2000/svg" viewBox="0 0 623 144">
  <g style="opacity: .95;">
    <g>
      <path d="M284,0c3.96.6,7.91,1.45,11.89,1.75,31.7,2.43,61.44,11.09,88.74,27.61.88.53,1.54,1.43,1.87,2.93-3.79-1.42-7.61-2.75-11.36-4.28-23.66-9.66-48.48-13.4-73.81-14.19-20.81-.64-41.46,1-61.9,5.15-11.48,2.33-15.1,10.48-14.08,20.32.95,9.13,5.88,16.37,11.75,23.13,3.34,3.85,7.83,4.59,12.37,5.34,18.9,3.15,37.92,4.67,57.08,4.01,26.57-.92,53.21-1.09,79.68-3.29,18.41-1.53,36.55-6.14,54.88-8.96,16.54-2.54,33.12-5.27,49.78-6.5,14.69-1.09,29.61-1.25,44.27-.01,29.03,2.45,56.83,9.35,80.34,28.04,1.55,1.23,2.93,2.69,4.47,4.12-1.34,6.69-2.66,13.3-3.93,19.64,2.17,1.08,3.96,1.96,5.78,2.86-.99,6.46-1.8,12.34-2.83,18.18-.61,3.44-1.86,6.26-6.26,6.42-12.28.44-24.55,1.14-36.82,1.72-.96.04-1.94-.13-3.11-.22-3.4-21.63-12.66-38.98-34.08-47.6,11.82,12.92,21.52,26.76,22.19,45.01-10.37-23.58-27.17-38.63-53.88-39.27-28.37-.67-46.14,14.81-56.83,39.96l-1.39-.57c1.85-6.33,3.15-12.89,5.71-18.91,2.59-6.1,6.43-11.66,9.79-17.57-16.65,0-32.58.19-48.51-.04-25.1-.36-50.2-.88-75.3-1.59-12.61-.36-25.24-.91-37.8-2.06-15.68-1.43-31.34-3.29-46.94-5.47-31.96-4.46-62.58-14.16-93.13-24.19-19.81-6.5-40.44-7.43-61.06-6.56-26.99,1.15-53.29,6.39-78.86,15.18-5.15,1.77-10.33,3.41-15.5,5.11-.34-.29-.68-.58-1.03-.87,5.52-3.89,10.74-8.32,16.61-11.58,25.84-14.37,53.86-21.05,83.24-21.85,19.7-.54,38.87,3.58,57.92,8.18,5.24,1.27,10.57,2.2,15.86,3.28.25-.48.49-.96.74-1.43-1.78-1.45-3.35-3.47-5.39-4.25-11.99-4.64-24.08-9.01-36.15-13.42-1.53-.56-3.17-.83-6.22-1.62,9.6-3.24,17.93-5.95,26.19-8.86,23.91-8.43,48.27-15.15,73.44-18.51,11-1.47,22.09-2.18,33.14-3.29,1.18-.12,2.32-.63,3.47-.97,5,0,10,0,15,0Z" style="fill: #463833; stroke-width: 0px;"/>
      <path d="M49.44,74.27c20.59-6.62,41.72-9.19,63.2-8.99,17.43.17,34.42,3.11,50.84,8.97,35.23,12.56,71.4,20.82,108.57,25.06,37.91,4.33,75.93,5.99,114.06,5.95,18.46-.02,36.93,0,55.57,0-2.15,8.46-4.23,16.7-6.25,24.67-9.25,0-18.7.29-28.13-.05-41.22-1.51-82.34-4.46-123.16-10.61-29.63-4.46-58.82-10.97-87.18-20.65-16.14-5.51-31.69-12.73-47.84-18.19-23.95-8.1-48.83-9.49-73.9-7.89-7.57.48-15.09,1.66-22.65,2.41-1.01.1-2.08-.44-3.12-.68Z" style="fill: #ec6809; stroke-width: 0px;"/>
      <path d="M167.83,141.86c-9.76-27.53-27.07-44.43-55.82-44.59-27.76-.16-45.68,15.77-56.24,41.04-.63-29.8,23.17-55.25,51.52-57.42,36.24-2.77,62.69,30.09,60.53,60.96Z" style="fill: #473934; stroke-width: 0px;"/>
      <path d="M7.19,75.2c-.9.34-1.79.68-2.69,1.01-.09-.24-.19-.49-.28-.73.65-.38,1.3-.76,1.94-1.15.34.29.68.58,1.03.87Z" style="fill: #463833; stroke-width: 0px;"/>
    </g>
  </g>
</svg>